<svg xmlns="http://www.w3.org/2000/svg" width="31" height="31" viewBox="0 0 31 31">
    <defs>
        <filter id="prefix__a">
            <feColorMatrix in="SourceGraphic" values="0 0 0 0 1.000000 0 0 0 0 1.000000 0 0 0 0 1.000000 0 0 0 1.000000 0"/>
        </filter>
    </defs>
    <g fill="none" fill-rule="evenodd" filter="url(#prefix__a)" transform="translate(.821 .85)">
        <path fill="#000" fill-rule="nonzero" stroke="#000" stroke-width=".5" d="M24.026 3.909c-.18-.857-.978-1.509-1.917-1.509H9.091c-.94 0-1.736.652-1.917 1.509h-.07C6.494 3.909 6 4.384 6 4.968c0 .583.495 1.059 1.103 1.059h.031v8.382c0 .442.697.443.697 0V6.026h1.227v9.868c0 .442.696.443.696 0v-1.63h2.966v1.63c0 .442.697.443.697 0V6.026h8.318c.46 0 .46-.668 0-.668H7.103c-.224 0-.406-.175-.406-.39 0-.216.182-.39.406-.39h16.994c.224 0 .406.174.406.39 0 .215-.182.39-.406.39h-2.618c-.46 0-.461.668 0 .668h1.89v10.507c0 .265-.105.518-.293.708H8.124c-.188-.19-.293-.443-.293-.708v-2.268c0-.442-.697-.443-.697 0v2.268c0 1.037.812 1.403.903 1.504l-.727 6.438c-.044.386.272.725.678.725h.942c.307 0 .578-.199.658-.484l1.286-4.567 2.83 2.108v.471c0 .566.48 1.027 1.07 1.027h1.652c.59 0 1.07-.46 1.07-1.027v-.47l2.932-2.184 1.307 4.642c.08.285.35.484.658.484h.942c.405 0 .722-.337.678-.725l-.736-6.522c.014-.017.789-.468.789-1.42V6.026h.03c.609 0 1.104-.475 1.104-1.058 0-.584-.495-1.06-1.103-1.06h-.07zm-11.306 6.79H9.754V8.473h2.966V10.7zm-2.966 2.897v-2.228h2.966v2.228H9.754zm2.966-5.793H9.754V6.026h2.966v1.777zM9.09 3.068h13.02c.555 0 1.034.355 1.198.84H7.892c.164-.485.643-.84 1.199-.84zM17.03 21.76h-2.856l-5.17-3.85h13.195l-5.17 3.85zm-8.11 2.772h-.915l.68-6.014 1.593 1.187-1.358 4.827zm7.507-1.446h-1.652c-.206 0-.373-.16-.373-.358v-.3H16.8v.3c0 .198-.167.358-.373.358zm6.893 1.446h-.915l-1.38-4.902 1.606-1.196.69 6.098z"/>
    </g>
</svg>
