<svg xmlns="http://www.w3.org/2000/svg" width="36" height="35" viewBox="0 0 36 35">
    <defs>
        <filter id="prefix__a">
            <feColorMatrix in="SourceGraphic" values="0 0 0 0 0.470588 0 0 0 0 0.737255 0 0 0 0 0.937255 0 0 0 1.000000 0"/>
        </filter>
    </defs>
    <g fill="none" fill-rule="evenodd" filter="url(#prefix__a)" transform="translate(1)">
        <path fill="#000" fill-rule="nonzero" d="M25.663 6.621h-.072C25.404 5.701 24.58 5 23.614 5H10.187c-.968 0-1.79.7-1.977 1.621h-.072C7.51 6.621 7 7.131 7 7.76c0 .627.51 1.138 1.138 1.138h.032v9.007c0 .475.718.476.718 0V8.897h1.265V19.5c0 .474.719.475.719 0v-1.752h3.059v1.752c0 .474.718.475.718 0V8.897h6.87c.474 0 .475-.718 0-.718H8.137c-.231 0-.42-.189-.42-.42 0-.231.189-.42.42-.42h17.525c.232 0 .42.189.42.42 0 .231-.188.42-.42.42h-2.7c-.474 0-.475.718 0 .718h1.95v11.29c0 .285-.109.556-.302.761H9.191c-.194-.205-.303-.476-.303-.761v-.83c0-.475-.718-.476-.718 0v.83c0 1.114.837 1.507.93 1.616l-.75 6.918c-.044.415.281.779.7.779h.971c.318 0 .597-.214.68-.52l1.325-4.907 2.92 2.264v.507c0 .608.495 1.103 1.103 1.103h1.703c.609 0 1.103-.495 1.103-1.103v-.505l3.025-2.347 1.348 4.988c.082.306.362.52.679.52h.971c.418 0 .744-.363.7-.78l-.76-7.008c.014-.017.813-.502.813-1.525V8.897h.032c.628 0 1.138-.51 1.138-1.138 0-.627-.51-1.138-1.138-1.138zM13.931 13.92h-3.06v-2.394h3.06v2.394zm-3.06 3.112v-2.394h3.06v2.394h-3.06zm3.06-6.225h-3.06v-1.91h3.06v1.91zm-3.744-5.088h13.427c.573 0 1.066.381 1.236.903H8.95c.17-.522.663-.903 1.236-.903zm8.187 20.085H15.43l-5.333-4.137h13.61l-5.332 4.137zm-8.364 2.979h-.943l.7-6.462 1.644 1.275-1.401 5.187zm7.743-1.553h-1.704c-.212 0-.385-.173-.385-.385v-.323h2.473v.323c0 .212-.172.385-.384.385zm7.109 1.553h-.944l-1.423-5.268 1.656-1.285.71 6.553z"/>
    </g>
</svg>
