<?xml version="1.0" encoding="utf-8"?>
<!-- Generator: Adobe Illustrator 24.1.2, SVG Export Plug-In . SVG Version: 6.00 Build 0)  -->
<svg version="1.1" id="Layer_1" xmlns="http://www.w3.org/2000/svg" xmlns:xlink="http://www.w3.org/1999/xlink" x="0px" y="0px"
	 viewBox="0 0 52.5 53.4" style="enable-background:new 0 0 52.5 53.4;" xml:space="preserve">
<style type="text/css">
	.st0{fill:#F4B425;}
	.st1{fill:#FFFFFF;}
</style>
<circle class="st0" cx="26.2" cy="26.6" r="25.2"/>
<g>
	<g>
		<g>
			<path class="st1" d="M16.4,36.9c0.5,0.5,1,0.9,1.5,1.3c0.7,0.5,1.7,0.4,2.2-0.3c0.5-0.7,0.4-1.7-0.3-2.2c-0.4-0.3-0.8-0.7-1.2-1
				c0,0,0,0,0,0c-4.3-4.3-4.3-11.3,0-15.6c4.2-4.2,10.8-4.3,15.2-0.5l-2.9,0c-0.9,0-1.6,0.7-1.6,1.6c0,0.9,0.7,1.6,1.6,1.6h6.7
				c0.9,0,1.6-0.7,1.6-1.6l0-6.7c0-0.9-0.7-1.6-1.6-1.6c-0.9,0-1.6,0.7-1.6,1.6v2.9c-5.6-5.1-14.3-5-19.7,0.4
				C10.8,22.4,10.8,31.4,16.4,36.9C16.4,36.9,16.4,36.9,16.4,36.9z"/>
			<path class="st1" d="M27.6,37.9c-0.9,0.1-1.8,0.1-2.8,0c-0.5-0.1-1,0.1-1.3,0.4c-0.2,0.2-0.4,0.5-0.4,0.9
				c-0.1,0.9,0.5,1.7,1.3,1.8c1.2,0.2,2.4,0.2,3.5,0.1c0.9-0.1,1.5-0.9,1.4-1.7C29.3,38.4,28.5,37.8,27.6,37.9z"/>
			<path class="st1" d="M39,24.8c-0.4,0-0.8,0.2-1.1,0.5c-0.3,0.3-0.5,0.7-0.5,1.2c0,0.9-0.1,1.9-0.2,2.7c-0.2,0.9,0.4,1.7,1.2,1.9
				c0.9,0.2,1.7-0.4,1.9-1.2c0.3-1.2,0.4-2.3,0.3-3.5C40.6,25.5,39.9,24.8,39,24.8z"/>
			<path class="st1" d="M34.8,34.1c-0.6,0.7-1.3,1.3-2.1,1.8c-0.1,0.1-0.2,0.1-0.2,0.2c-0.5,0.5-0.6,1.4-0.2,2
				c0.5,0.7,1.5,0.9,2.2,0.4c1-0.7,1.9-1.5,2.6-2.4c0.6-0.7,0.5-1.7-0.2-2.2C36.4,33.4,35.4,33.5,34.8,34.1z"/>
		</g>
	</g>
</g>
</svg>
