<svg xmlns="http://www.w3.org/2000/svg" width="23" height="22" viewBox="0 0 23 22">
    <defs>
        <filter id="206j9mqlya">
            <feColorMatrix in="SourceGraphic" values="0 0 0 0 0.000000 0 0 0 0 0.407843 0 0 0 0 1.000000 0 0 0 1.000000 0"/>
        </filter>
    </defs>
    <g fill="none" fill-rule="evenodd">
        <g>
            <g>
                <g fill="#000" filter="url(#206j9mqlya)" transform="translate(-280 -685) translate(270.5 669) translate(10 16)">
                    <g>
                        <path d="M10.516.279c-3.71 0-7.351 1.394-9.989 3.825-.174.161-.173.42.001.578.087.078.2.118.313.118.114 0 .228-.04.316-.12C3.63 2.4 7.04 1.094 10.516 1.094c.244 0 .445-.184.445-.408 0-.225-.2-.407-.445-.407" transform="translate(10 17)"/>
                    </g>
                    <path d="M11.932 17.176c-.124-.183-.374-.231-.557-.107-1.716 1.158-3.164 2.607-4.307 4.307-.124.183-.074.433.11.555.068.047.146.069.223.069.129 0 .256-.063.333-.177 1.085-1.614 2.46-2.99 4.09-4.09.183-.124.231-.374.108-.557"/>
                    <g>
                        <path d="M6.04.601c-1.821 0-3.624.311-5.355.925-.213.075-.323.306-.249.519.06.168.216.272.383.272.046 0 .093-.008.137-.024 1.645-.582 3.356-.877 5.083-.877.225 0 .408-.184.408-.408 0-.224-.183-.407-.408-.407" transform="translate(15 14)"/>
                    </g>
                    <g>
                        <path d="M2.606 5.232c-.225 0-.407.183-.407.407v2.71c-.592-.702-.91-1.525-.91-2.385 0-1.038.466-2.024 1.317-2.808.85.784 1.316 1.77 1.316 2.808 0 .86-.318 1.683-.91 2.385v-2.71c0-.224-.182-.407-.406-.407M9.333 9.67c0-.86.385-1.678 1.09-2.327.706.65 1.09 1.467 1.09 2.327 0 .712-.263 1.392-.752 1.974V9.4c0-.186-.151-.337-.337-.337-.188 0-.339.151-.339.337v2.244c-.488-.582-.752-1.262-.752-1.974m5.383-4.085c0-1.447.662-2.817 1.87-3.891 1.212 1.074 1.874 2.444 1.874 3.891 0 1.276-.515 2.493-1.465 3.498V5.964c0-.224-.183-.406-.408-.406-.225 0-.406.182-.406.406v3.12c-.95-1.006-1.465-2.223-1.465-3.499m1.952 6.395h.003c1.229-.262 2.492-.397 3.768-.397.225 0 .408-.183.408-.408 0-.225-.183-.407-.408-.407-1.158 0-2.31.106-3.444.313v-.878c1.471-1.246 2.28-2.879 2.28-4.618 0-1.797-.864-3.48-2.433-4.742-.148-.119-.36-.119-.51 0-1.568 1.261-2.43 2.945-2.43 4.742 0 1.74.807 3.372 2.28 4.618v1.045c-.775.176-1.538.4-2.284.67-.156.056-.815.316-.815.316-.697.29-1.379.62-2.039.99-.095.053-.19.108-.283.164v-.789c.92-.793 1.427-1.827 1.427-2.929 0-1.15-.552-2.228-1.553-3.034-.124-.1-.3-.1-.424 0-1 .806-1.553 1.883-1.553 3.034 0 1.102.506 2.136 1.427 2.93v.795c-.277-.163-.558-.318-.842-.466 0 0-3.19-1.483-5.375-1.84-.284-.052-.569-.098-.856-.136V9.5c1.114-.958 1.724-2.206 1.724-3.537 0-1.388-.665-2.689-1.875-3.662-.15-.12-.36-.12-.51 0C1.141 3.275.476 4.576.476 5.964c0 1.331.61 2.58 1.723 3.537v1.357c-.594-.054-1.192-.083-1.792-.083-.225 0-.407.183-.407.407 0 .224.182.407.407.407 3.256 0 6.44.861 9.247 2.496-.673.457-1.315.956-1.923 1.494-2.274-1.16-4.801-1.771-7.324-1.771-.225 0-.407.182-.407.406 0 .226.182.408.407.408 2.296 0 4.595.534 6.684 1.547-.619.6-1.197 1.24-1.731 1.918-1.583-.665-3.249-1-4.953-1-.225 0-.407.18-.407.406 0 .224.182.408.407.408 1.527 0 3.02.29 4.446.858-.282.392-.548.793-.8 1.205l-.62 1.017c-.118.191-.057.442.135.56.066.04.14.06.211.06.137 0 .271-.07.348-.196l.62-1.017c.325-.53.674-1.04 1.046-1.53.014-.015.029-.033.04-.051 2.68-3.493 6.556-5.919 10.835-6.827"/>
                    </g>
                </g>
            </g>
        </g>
    </g>
</svg>
