<svg xmlns="http://www.w3.org/2000/svg" width="18" height="18" viewBox="0 0 18 18">
    <path fill="#8798AD" fill-rule="evenodd" d="M14.415 3.9l-.01-.01-.001-.001c-1.712-1.697-4.846-1.185-7.079 1.048-.333.333-.634.693-.897 1.07-1.333-.197-2.507.135-3.313.94l-.009.01-.002.002c-1.615 1.633-1.102 4.922 1.111 7.136 2.241 2.24 5.535 2.712 7.147 1.1l.006-.007.003-.003c.8-.806 1.128-1.975.931-3.303.378-.263.737-.564 1.07-.897 2.245-2.245 2.748-5.38 1.043-7.085zm-6.54 1.587c1.729-1.73 4.005-2.277 5.454-1.447l-.018.006c-.863.294-1.627.801-2.209 1.467-.554.633-.943 1.41-1.133 2.255-.82-.742-1.756-1.284-2.715-1.574.19-.247.397-.483.62-.707zm-3.11 8.058c-1.63-1.63-2.276-4.002-1.503-5.492.598 1.753 2.097 3.065 3.914 3.425 1.564.31 2.846 1.444 3.344 2.96l.119.362c-1.374 1.102-4.044.575-5.874-1.255zm6.46.552c-.609-1.732-2.093-3.024-3.898-3.382-1.546-.306-2.821-1.423-3.33-2.914l-.157-.463c1.428-1.173 4.015-.6 5.873 1.259.9.9 1.6 2.066 1.807 3.315.14.836.034 1.589-.296 2.185zm.89-3.041c-.28-.928-.796-1.834-1.5-2.633.034-.124.064-.249.09-.374.309-1.563 1.35-2.754 2.857-3.267l.462-.157c1.17 1.412.672 3.937-1.201 5.81-.224.224-.46.431-.707.62z"/>
</svg>
