<?xml version="1.0" encoding="UTF-8"?>
<svg width="25px" height="25px" viewBox="0 0 25 25" version="1.1" xmlns="http://www.w3.org/2000/svg" xmlns:xlink="http://www.w3.org/1999/xlink">
    <!-- Generator: Sketch 61 (89581) - https://sketch.com -->
    <title>icon/menu/charaxcteristics</title>
    <desc>Created with Sketch.</desc>
    <g id="icon/menu/charaxcteristics" stroke="none" stroke-width="1" fill="none" fill-rule="evenodd">
        <path d="M9.12,19.279982 L9.12,22.639982 C9.12,22.905062 9.33486,23.1200421 9.59994,23.1200421 C9.6942,23.1200421 9.78636,23.092322 9.86496,23.040302 L12.49728,21.295982 L15.09216,23.037902 C15.31212,23.185862 15.61044,23.127422 15.75834,22.907402 C15.81144,22.828382 15.83994,22.735262 15.84,22.639982 L15.84,19.279982 L15.84,18.319982 L15.84,17.374862 C16.08936,17.399102 16.34022,17.347802 16.56,17.227502 C16.97052,16.912682 17.23836,16.447022 17.304,15.933902 C17.34738,15.691322 17.43756,15.459482 17.56944,15.251342 C17.77782,15.119522 18.00978,15.029402 18.25248,14.985902 C18.7665,14.920322 19.23312,14.652122 19.54848,14.240942 C19.74456,13.768022 19.74456,13.236422 19.54848,12.763502 C19.46328,12.526802 19.4256,12.275582 19.4376,12.024302 C19.5501,11.812562 19.70208,11.624342 19.88544,11.469902 C20.30232,11.151962 20.57412,10.680062 20.64,10.159982 C20.57388,9.639602 20.30148,9.167642 19.884,8.850062 C19.70082,8.695622 19.54878,8.507642 19.43616,8.296142 C19.4241,8.044862 19.46178,7.793642 19.54704,7.556942 C19.74384,7.083962 19.74384,6.552002 19.54704,6.079022 C19.23246,5.668202 18.76668,5.400182 18.25344,5.334542 C18.0108,5.290922 17.77884,5.200742 17.5704,5.069102 C17.43876,4.860842 17.34876,4.629062 17.30544,4.386542 C17.23998,3.872522 16.97196,3.406022 16.56096,3.090542 C16.08774,2.894222 15.55584,2.894222 15.08256,3.090542 C14.84592,3.175982 14.59464,3.213482 14.34336,3.200942 C14.13186,3.088502 13.94382,2.936642 13.78944,2.753582 C13.47132,2.337302 12.99972,2.065862 12.48,1.999982 C11.95962,2.066102 11.48766,2.338502 11.17008,2.755982 C11.01552,2.939042 10.82754,3.091022 10.61616,3.203822 C10.36494,3.214982 10.1139,3.177302 9.87696,3.092942 C9.40374,2.896622 8.87178,2.896622 8.39856,3.092942 C7.9875,3.408302 7.7196,3.874982 7.65456,4.388942 C7.61106,4.631462 7.52088,4.863302 7.38912,5.071502 C7.1808,5.203382 6.94878,5.293502 6.70608,5.336942 C6.19314,5.402462 5.72748,5.669882 5.41248,6.079982 C5.21616,6.553262 5.21616,7.085102 5.41248,7.558382 C5.49756,7.794962 5.53512,8.046002 5.52288,8.297102 C5.41062,8.508842 5.25876,8.697062 5.07552,8.851502 C4.65864,9.168902 4.38648,9.640262 4.32,10.159982 C4.38612,10.680362 4.65852,11.152322 5.076,11.469902 C5.25906,11.624462 5.41104,11.812442 5.52384,12.023822 C5.53566,12.275102 5.49798,12.526262 5.41296,12.763022 C5.21616,13.236182 5.21616,13.768262 5.41296,14.241422 C5.72832,14.652482 6.195,14.920382 6.70896,14.985422 C6.95148,15.028922 7.18332,15.119102 7.39152,15.250862 C7.5234,15.459182 7.61352,15.691202 7.65696,15.933902 C7.72248,16.446842 7.9899,16.912502 8.4,17.227502 C8.61978,17.347802 8.87064,17.399102 9.12,17.374862 L9.12,18.319982 L9.12,19.279982 Z M12.768,20.321102 C12.60678,20.213702 12.39684,20.213702 12.23568,20.321102 L10.08,21.746222 L10.08,17.174222 C10.2525,17.117582 10.43502,17.097962 10.61568,17.116622 C10.82742,17.228882 11.01564,17.380742 11.17008,17.563982 C11.48772,17.981342 11.95968,18.253742 12.48,18.319982 C13.00026,18.253622 13.47216,17.981222 13.78992,17.563982 C13.9443,17.380922 14.13234,17.229002 14.34384,17.116622 C14.52462,17.097662 14.70738,17.117282 14.88,17.174222 L14.88,21.739982 L12.768,20.321102 Z M6.4512,11.776142 C6.30894,11.393222 6.06924,11.053982 5.75568,10.792142 C5.54352,10.579982 5.28,10.315502 5.28,10.159982 C5.28,10.004462 5.54352,9.739982 5.75568,9.528302 C6.06912,9.266282 6.30876,8.926922 6.45072,8.543822 C6.52224,8.130602 6.4845,7.705802 6.34128,7.311662 C6.27072,7.044782 6.17424,6.679502 6.24528,6.559502 C6.31632,6.439502 6.68736,6.333902 6.9576,6.260942 C7.36644,6.189422 7.7496,6.012542 8.06928,5.747822 C8.33406,5.428142 8.51112,5.044982 8.58288,4.636142 C8.65536,4.365902 8.7552,3.996302 8.88096,3.923342 C9.00672,3.850382 9.36624,3.950222 9.63312,4.019342 C10.02726,4.162682 10.452,4.200542 10.86528,4.129262 C11.24826,3.987062 11.58744,3.747302 11.84928,3.433742 C12.06,3.223502 12.32448,2.959982 12.48,2.959982 C12.63552,2.959982 12.89952,3.223502 13.11168,3.435662 C13.37382,3.749102 13.71318,3.988802 14.09616,4.131182 C14.50944,4.202522 14.93418,4.164662 15.32832,4.021262 C15.5952,3.950702 15.96048,3.854222 16.08096,3.925262 C16.20144,3.996302 16.30608,4.367822 16.37904,4.637582 C16.45026,5.046542 16.62714,5.429762 16.89216,5.749262 C17.2119,6.014162 17.59524,6.191102 18.00432,6.262382 C18.27408,6.335342 18.64416,6.435182 18.71664,6.560942 C18.78912,6.686702 18.68976,7.046222 18.62064,7.313102 C18.47742,7.707302 18.43968,8.132042 18.5112,8.545262 C18.65292,8.928422 18.89256,9.267662 19.20624,9.529262 C19.41792,9.741422 19.68192,10.005902 19.68192,10.161422 C19.68192,10.316942 19.4184,10.581422 19.20672,10.793102 C18.8928,11.054822 18.65304,11.394242 18.5112,11.777582 C18.43968,12.190982 18.47742,12.615902 18.62064,13.010222 C18.6912,13.277102 18.78768,13.642382 18.71664,13.761902 C18.6456,13.881422 18.27408,13.987502 18.00432,14.060462 C17.5953,14.131982 17.21196,14.308802 16.89216,14.573582 C16.62726,14.893442 16.45026,15.276662 16.37856,15.685742 C16.30608,15.955502 16.20624,16.325102 16.08048,16.398062 C15.96192,16.467662 15.59568,16.371182 15.3288,16.302062 C14.93442,16.159022 14.50962,16.121162 14.09616,16.192142 C13.71318,16.334522 13.37382,16.574222 13.11168,16.887662 C12.89952,17.099822 12.63552,17.363342 12.48,17.363342 C12.32448,17.363342 12.06,17.099822 11.84832,16.887662 C11.5863,16.574162 11.24694,16.334582 10.86384,16.192622 C10.74774,16.162142 10.62816,16.147082 10.50816,16.147982 C10.21062,16.161782 9.91608,16.213622 9.63168,16.302062 C9.3648,16.372622 8.99856,16.469102 8.87952,16.398062 C8.76048,16.327022 8.65392,15.955982 8.58096,15.685742 C8.50944,15.276842 8.33256,14.893742 8.06784,14.574062 C7.74816,14.309222 7.365,14.132222 6.95616,14.060462 C6.68592,13.987982 6.31632,13.888142 6.24336,13.762382 C6.1704,13.636622 6.27072,13.277102 6.33936,13.010222 C6.48348,12.615662 6.522,12.190202 6.4512,11.776142 L6.4512,11.776142 Z M22.08,10.159982 C22.08,10.425062 22.29492,10.639982 22.56,10.639982 L24.48,10.639982 C24.74508,10.639982 24.96,10.425062 24.96,10.159982 C24.96,9.894902 24.74508,9.679982 24.48,9.679982 L22.56,9.679982 C22.29492,9.679982 22.08,9.894902 22.08,10.159982 M21.46752,6.559982 C21.55176,6.559982 21.63456,6.537782 21.70752,6.495662 L23.37024,5.535662 C23.5989,5.401562 23.67564,5.107502 23.54154,4.878782 C23.40876,4.652282 23.11854,4.574522 22.89024,4.704302 L21.22752,5.664302 C20.99796,5.796842 20.9193,6.090422 21.05184,6.319982 C21.13758,6.468482 21.2961,6.559982 21.46752,6.559982 M21.227052,14.65565 L22.889772,15.61565 C23.120232,15.74669 23.413272,15.66605 23.544252,15.43559 C23.673972,15.20729 23.596272,14.91713 23.369772,14.78435 L21.707052,13.82435 C21.478332,13.69019 21.184272,13.76687 21.050172,13.99559 C20.916072,14.22425 20.992752,14.51837 21.221412,14.65241 C21.223332,14.65355 21.225192,14.65457 21.227052,14.65565 M0.48,10.639982 L2.4,10.639982 C2.66508,10.639982 2.88,10.425062 2.88,10.159982 C2.88,9.894902 2.66508,9.679982 2.4,9.679982 L0.48,9.679982 C0.21492,9.679982 7.10542736e-15,9.894902 7.10542736e-15,10.159982 C7.10542736e-15,10.425062 0.21492,10.639982 0.48,10.639982 M1.590234,5.53568 L3.252954,6.49568 C3.481674,6.62972 3.775734,6.55304 3.909834,6.32432 C4.043874,6.09566 3.967134,5.80154 3.738474,5.6675 C3.736614,5.66642 3.734814,5.66534 3.732954,5.66432 L2.070234,4.70432 C1.841514,4.57022 1.547454,4.64696 1.413414,4.87568 C1.279314,5.10434 1.356054,5.3984 1.584774,5.5325 C1.586574,5.53358 1.588374,5.5346 1.590234,5.53568 M3.252948,13.82432 L1.590228,14.78432 C1.359768,14.91536 1.279128,15.20828 1.410168,15.4388 C1.541148,15.66926 1.834188,15.7499 2.064648,15.61886 C2.066508,15.61784 2.068368,15.61676 2.070228,15.61562 L3.732948,14.65562 C3.963408,14.52464 4.044048,14.2316 3.913068,14.00114 C3.782028,13.77068 3.489048,13.6901 3.258528,13.82108 C3.256668,13.82216 3.254808,13.82318 3.252948,13.82432 M12.48,5.839982 C14.8659,5.839982 16.8,7.774082 16.8,10.159982 C16.8,12.545882 14.8659,14.479982 12.48,14.479982 C10.0941,14.479982 8.16,12.545882 8.16,10.159982 C8.16264,7.775222 10.09524,5.842622 12.48,5.839982 M12.48,15.439982 C15.39606,15.439982 17.76,13.076042 17.76,10.159982 C17.76,7.243922 15.39606,4.879982 12.48,4.879982 C9.56394,4.879982 7.2,7.243922 7.2,10.159982 C7.20342,13.074602 9.56538,15.436502 12.48,15.439982 M13.818576,8.337956 L11.712936,10.443536 L11.141436,9.872036 C10.932996,9.663596 10.595076,9.663596 10.386636,9.872036 C10.178316,10.080476 10.178316,10.418456 10.386636,10.626716 L11.335596,11.575736 C11.439816,11.679956 11.576376,11.731976 11.712936,11.731976 C11.849496,11.731976 11.986056,11.679956 12.090276,11.575736 L14.573376,9.092636 C14.781696,8.884196 14.781696,8.546276 14.573376,8.337956 C14.364876,8.129336 14.027016,8.129336 13.818576,8.337956" id="Fill-1" fill="#78BCEF"></path>
    </g>
</svg>