<?xml version="1.0" encoding="utf-8"?>
<!-- Generator: Adobe Illustrator 24.0.1, SVG Export Plug-In . SVG Version: 6.00 Build 0)  -->
<svg version="1.1" id="Capa_1" xmlns="http://www.w3.org/2000/svg" xmlns:xlink="http://www.w3.org/1999/xlink" x="0px" y="0px"
	 viewBox="0 0 25 25" style="enable-background:new 0 0 25 25;" xml:space="preserve">
<style type="text/css">
	.st0{fill-rule:evenodd;clip-rule:evenodd;fill:#69707F;}
</style>
<title>icon/menu/charaxcteristics</title>
<desc>Created with Sketch.</desc>
<g id="icon_x2F_menu_x2F_charaxcteristics">
	<path id="Fill-1" class="st0" d="M9.1,19.3v3.4c0,0.3,0.2,0.5,0.5,0.5c0.1,0,0.2,0,0.3-0.1l2.6-1.7l2.6,1.7
		c0.2,0.1,0.5,0.1,0.7-0.1c0.1-0.1,0.1-0.2,0.1-0.3v-3.4v-1v-0.9c0.2,0,0.5,0,0.7-0.1c0.4-0.3,0.7-0.8,0.7-1.3
		c0-0.2,0.1-0.5,0.3-0.7c0.2-0.1,0.4-0.2,0.7-0.3c0.5-0.1,1-0.3,1.3-0.7c0.2-0.5,0.2-1,0-1.5c-0.1-0.2-0.1-0.5-0.1-0.7
		c0.1-0.2,0.3-0.4,0.4-0.6c0.4-0.3,0.7-0.8,0.8-1.3c-0.1-0.5-0.3-1-0.8-1.3c-0.2-0.2-0.3-0.3-0.4-0.6c0-0.3,0-0.5,0.1-0.7
		c0.2-0.5,0.2-1,0-1.5c-0.3-0.4-0.8-0.7-1.3-0.7c-0.2,0-0.5-0.1-0.7-0.3c-0.1-0.2-0.2-0.4-0.3-0.7c-0.1-0.5-0.3-1-0.7-1.3
		c-0.5-0.2-1-0.2-1.5,0c-0.2,0.1-0.5,0.1-0.7,0.1c-0.2-0.1-0.4-0.3-0.6-0.4C13.5,2.3,13,2.1,12.5,2c-0.5,0.1-1,0.3-1.3,0.8
		c-0.2,0.2-0.3,0.3-0.6,0.4c-0.3,0-0.5,0-0.7-0.1c-0.5-0.2-1-0.2-1.5,0C8,3.4,7.7,3.9,7.7,4.4c0,0.2-0.1,0.5-0.3,0.7
		C7.2,5.2,6.9,5.3,6.7,5.3c-0.5,0.1-1,0.3-1.3,0.7c-0.2,0.5-0.2,1,0,1.5C5.5,7.8,5.5,8,5.5,8.3C5.4,8.5,5.3,8.7,5.1,8.9
		c-0.4,0.3-0.7,0.8-0.8,1.3c0.1,0.5,0.3,1,0.8,1.3c0.2,0.2,0.3,0.3,0.4,0.6c0,0.3,0,0.5-0.1,0.7c-0.2,0.5-0.2,1,0,1.5
		c0.3,0.4,0.8,0.7,1.3,0.7c0.2,0,0.5,0.1,0.7,0.3c0.1,0.2,0.2,0.4,0.3,0.7c0.1,0.5,0.3,1,0.7,1.3c0.2,0.1,0.5,0.2,0.7,0.1v0.9V19.3z
		 M12.8,20.3c-0.2-0.1-0.4-0.1-0.5,0l-2.2,1.4v-4.6c0.2-0.1,0.4-0.1,0.5-0.1c0.2,0.1,0.4,0.3,0.6,0.4c0.3,0.4,0.8,0.7,1.3,0.8
		c0.5-0.1,1-0.3,1.3-0.8c0.2-0.2,0.3-0.3,0.6-0.4c0.2,0,0.4,0,0.5,0.1v4.6L12.8,20.3z M6.5,11.8c-0.1-0.4-0.4-0.7-0.7-1
		c-0.2-0.2-0.5-0.5-0.5-0.6c0-0.2,0.3-0.4,0.5-0.6c0.3-0.3,0.6-0.6,0.7-1c0.1-0.4,0-0.8-0.1-1.2C6.3,7,6.2,6.7,6.2,6.6
		C6.3,6.4,6.7,6.3,7,6.3C7.4,6.2,7.7,6,8.1,5.7C8.3,5.4,8.5,5,8.6,4.6C8.7,4.4,8.8,4,8.9,3.9C9,3.9,9.4,4,9.6,4
		c0.4,0.1,0.8,0.2,1.2,0.1c0.4-0.1,0.7-0.4,1-0.7C12.1,3.2,12.3,3,12.5,3c0.2,0,0.4,0.3,0.6,0.5c0.3,0.3,0.6,0.6,1,0.7
		c0.4,0.1,0.8,0,1.2-0.1C15.6,4,16,3.9,16.1,3.9c0.1,0.1,0.2,0.4,0.3,0.7c0.1,0.4,0.2,0.8,0.5,1.1C17.2,6,17.6,6.2,18,6.3
		c0.3,0.1,0.6,0.2,0.7,0.3c0.1,0.1,0,0.5-0.1,0.8c-0.1,0.4-0.2,0.8-0.1,1.2c0.1,0.4,0.4,0.7,0.7,1c0.2,0.2,0.5,0.5,0.5,0.6
		c0,0.2-0.3,0.4-0.5,0.6c-0.3,0.3-0.6,0.6-0.7,1c-0.1,0.4,0,0.8,0.1,1.2c0.1,0.3,0.2,0.6,0.1,0.8c-0.1,0.1-0.4,0.2-0.7,0.3
		c-0.4,0.1-0.8,0.2-1.1,0.5c-0.3,0.3-0.4,0.7-0.5,1.1c-0.1,0.3-0.2,0.6-0.3,0.7c-0.1,0.1-0.5,0-0.8-0.1c-0.4-0.1-0.8-0.2-1.2-0.1
		c-0.4,0.1-0.7,0.4-1,0.7c-0.2,0.2-0.5,0.5-0.6,0.5c-0.2,0-0.4-0.3-0.6-0.5c-0.3-0.3-0.6-0.6-1-0.7c-0.1,0-0.2,0-0.4,0
		c-0.3,0-0.6,0.1-0.9,0.2c-0.3,0.1-0.6,0.2-0.8,0.1c-0.1-0.1-0.2-0.4-0.3-0.7c-0.1-0.4-0.2-0.8-0.5-1.1c-0.3-0.3-0.7-0.4-1.1-0.5
		c-0.3-0.1-0.6-0.2-0.7-0.3c-0.1-0.1,0-0.5,0.1-0.8C6.5,12.6,6.5,12.2,6.5,11.8L6.5,11.8z M22.1,10.2c0,0.3,0.2,0.5,0.5,0.5h1.9
		c0.3,0,0.5-0.2,0.5-0.5c0-0.3-0.2-0.5-0.5-0.5h-1.9C22.3,9.7,22.1,9.9,22.1,10.2 M21.5,6.6c0.1,0,0.2,0,0.2-0.1l1.7-1
		c0.2-0.1,0.3-0.4,0.2-0.7c-0.1-0.2-0.4-0.3-0.7-0.2l-1.7,1c-0.2,0.1-0.3,0.4-0.2,0.7C21.1,6.5,21.3,6.6,21.5,6.6 M21.2,14.7l1.7,1
		c0.2,0.1,0.5,0.1,0.7-0.2c0.1-0.2,0.1-0.5-0.2-0.7l-1.7-1c-0.2-0.1-0.5-0.1-0.7,0.2C20.9,14.2,21,14.5,21.2,14.7
		C21.2,14.7,21.2,14.7,21.2,14.7 M0.5,10.6h1.9c0.3,0,0.5-0.2,0.5-0.5c0-0.3-0.2-0.5-0.5-0.5H0.5C0.2,9.7,0,9.9,0,10.2
		C0,10.4,0.2,10.6,0.5,10.6 M1.6,5.5l1.7,1c0.2,0.1,0.5,0.1,0.7-0.2C4,6.1,4,5.8,3.7,5.7c0,0,0,0,0,0l-1.7-1
		C1.8,4.6,1.5,4.6,1.4,4.9C1.3,5.1,1.4,5.4,1.6,5.5C1.6,5.5,1.6,5.5,1.6,5.5 M3.3,13.8l-1.7,1c-0.2,0.1-0.3,0.4-0.2,0.7
		c0.1,0.2,0.4,0.3,0.7,0.2c0,0,0,0,0,0l1.7-1C4,14.5,4,14.2,3.9,14C3.8,13.8,3.5,13.7,3.3,13.8C3.3,13.8,3.3,13.8,3.3,13.8
		 M12.5,5.8c2.4,0,4.3,1.9,4.3,4.3s-1.9,4.3-4.3,4.3s-4.3-1.9-4.3-4.3C8.2,7.8,10.1,5.8,12.5,5.8 M12.5,15.4c2.9,0,5.3-2.4,5.3-5.3
		s-2.4-5.3-5.3-5.3s-5.3,2.4-5.3,5.3C7.2,13.1,9.6,15.4,12.5,15.4 M13.8,8.3l-2.1,2.1l-0.6-0.6c-0.2-0.2-0.5-0.2-0.8,0
		c-0.2,0.2-0.2,0.5,0,0.8l0.9,0.9c0.1,0.1,0.2,0.2,0.4,0.2c0.1,0,0.3-0.1,0.4-0.2l2.5-2.5c0.2-0.2,0.2-0.5,0-0.8
		C14.4,8.1,14,8.1,13.8,8.3"/>
</g>
</svg>
