<svg xmlns="http://www.w3.org/2000/svg" width="25" height="25" viewBox="0 0 25 25">
    <g>
        <path d="M18.245 3.13C16.226 1.112 13.542 0 10.687 0 8.515 0 6.425.649 4.64 1.875c-.19.131-.239.391-.108.581.13.19.39.238.58.107C6.758 1.433 8.686.835 10.688.835c5.433 0 9.853 4.42 9.853 9.852 0 5.433-4.42 9.853-9.852 9.853-5.433 0-9.853-4.42-9.853-9.852 0-2.003.598-3.93 1.728-5.575.13-.19.083-.45-.107-.58-.19-.131-.45-.083-.58.107C.647 6.424 0 8.515 0 10.688c0 2.854 1.112 5.538 3.13 7.557 2.019 2.018 4.703 3.13 7.557 3.13 2.855 0 5.54-1.112 7.558-3.13 2.018-2.019 3.13-4.703 3.13-7.558 0-2.854-1.112-5.538-3.13-7.557z" transform="translate(0 2)"/>
        <path d="M10.688 19.288c4.742 0 8.6-3.858 8.6-8.6 0-.986-.167-1.933-.474-2.815l-.002-.007c-1.17-3.36-4.37-5.779-8.125-5.779-4.742 0-8.6 3.858-8.6 8.6 0 4.743 3.858 8.6 8.6 8.6zm7.765-8.6c0 .2-.008.397-.023.593-.438.023-.865.088-1.278.191.136-1.143-.035-2.316-.488-3.37.481.082.96.174 1.438.276.228.73.35 1.506.35 2.31zm-2.794-2.743c.635 1.15.851 2.52.605 3.816-1.906.769-3.384 2.381-3.968 4.373-1.045.307-2.172.307-3.217 0-.584-1.992-2.062-3.604-3.968-4.373-.246-1.296-.03-2.666.605-3.816 1.646-.233 3.31-.352 4.971-.352 1.662 0 3.326.119 4.972.352zM4.223 11.472c-.413-.103-.84-.168-1.278-.19-.015-.197-.023-.395-.023-.595 0-.803.123-1.58.351-2.309.477-.102.957-.194 1.438-.276-.453 1.054-.624 2.227-.488 3.37zm-1.167.653c3.051.24 5.46 2.799 5.46 5.91v.108c-2.78-.81-4.918-3.136-5.46-6.018zm6.289 6.211c.004-.1.007-.2.007-.3 0-.337-.025-.667-.073-.99.463.102.935.153 1.409.153.472 0 .945-.05 1.408-.152-.048.322-.073.652-.073.988 0 .1.003.2.007.301-.436.076-.885.117-1.342.117-.458 0-.907-.04-1.343-.117zm3.515-.193l-.002-.108c0-3.111 2.41-5.67 5.46-5.91-.541 2.882-2.68 5.207-5.458 6.018zm-2.172-15.22c3.127 0 5.829 1.858 7.058 4.53-2.322-.46-4.692-.695-7.059-.695-2.366 0-4.737.234-7.058.694 1.23-2.67 3.93-4.53 7.059-4.53z" transform="translate(0 2)"/>
        <path d="M8.6 10.688c0 1.15.937 2.087 2.088 2.087 1.15 0 2.087-.937 2.087-2.088 0-1.15-.937-2.087-2.088-2.087-1.15 0-2.087.937-2.087 2.088zm2.088-1.253c.69 0 1.252.562 1.252 1.252 0 .691-.562 1.253-1.252 1.253-.691 0-1.253-.562-1.253-1.252 0-.691.562-1.253 1.252-1.253zM3.425 3.843c.107 0 .214-.04.296-.122.163-.163.163-.428 0-.59-.163-.164-.428-.164-.59 0-.164.163-.164.427 0 .59.08.081.188.122.294.122z" transform="translate(0 2)"/>
    </g>
</svg>
