<?xml version="1.0" encoding="UTF-8"?>
<svg width="15px" height="15px" viewBox="0 0 15 15" version="1.1" xmlns="http://www.w3.org/2000/svg" xmlns:xlink="http://www.w3.org/1999/xlink">
    <!-- Generator: Sketch 61 (89581) - https://sketch.com -->
    <title>Element/Icon/contract</title>
    <desc>Created with Sketch.</desc>
    <g id="Symbols" stroke="none" stroke-width="1" fill="none" fill-rule="evenodd">
        <g id="element/row/dashboard" transform="translate(-21.000000, -20.000000)" fill="#69707F">
            <g id="Element/Icon/contract" transform="translate(20.000000, 19.000000)">
                <path d="M10.8181818,10.1636364 L6.23636364,10.1636364 L6.23636364,8.85454545 L10.8181818,8.85454545 L10.8181818,10.1636364 M12.7818182,7.54545455 L6.23636364,7.54545455 L6.23636364,6.23636364 L12.7818182,6.23636364 L12.7818182,7.54545455 M12.7818182,4.92727273 L6.23636364,4.92727273 L6.23636364,3.61818182 L12.7818182,3.61818182 L12.7818182,4.92727273 M2.30909091,3.61818182 L2.30909091,14.0909091 L12.7818182,14.0909091 L12.7818182,15.4 L2.30909091,15.4 C1.58609996,15.4 1,14.8139 1,14.0909091 L1,3.61818182 L2.30909091,3.61818182 M14.0909091,1 C14.8139,1 15.4,1.58609996 15.4,2.30909091 L15.4,11.4727273 C15.4,12.1992727 14.8174545,12.7818182 14.0909091,12.7818182 L4.92727273,12.7818182 C4.20428178,12.7818182 3.61818182,12.1957182 3.61818182,11.4727273 L3.61818182,2.30909091 C3.61818182,1.58254545 4.20072727,1 4.92727273,1 L14.0909091,1 M4.92727273,2.30909091 L4.92727273,11.4727273 L14.0909091,11.4727273 L14.0909091,2.30909091 L4.92727273,2.30909091 Z" id="Shape"></path>
            </g>
        </g>
    </g>
</svg>