<?xml version="1.0" encoding="utf-8"?>
<!-- Generator: Adobe Illustrator 24.0.1, SVG Export Plug-In . SVG Version: 6.00 Build 0)  -->
<svg version="1.1" id="Capa_1" xmlns="http://www.w3.org/2000/svg" xmlns:xlink="http://www.w3.org/1999/xlink" x="0px" y="0px"
	 viewBox="0 0 15 15" style="enable-background:new 0 0 15 15;" xml:space="preserve">
<style type="text/css">
	.st0{fill-rule:evenodd;clip-rule:evenodd;fill:#FFFFFF;}
</style>
<title>Element/Icon/contract</title>
<desc>Created with Sketch.</desc>
<g id="Symbols">
	<g id="element_x2F_row_x2F_dashboard" transform="translate(-21.000000, -20.000000)">
		<g id="Element_x2F_Icon_x2F_contract" transform="translate(20.000000, 19.000000)">
			<path id="Shape" class="st0" d="M10.8,10.2H6.2V8.9h4.6V10.2 M12.8,7.5H6.2V6.2h6.5V7.5 M12.8,4.9H6.2V3.6h6.5V4.9 M2.3,3.6v10.5
				h10.5v1.3H2.3c-0.7,0-1.3-0.6-1.3-1.3V3.6H2.3 M14.1,1c0.7,0,1.3,0.6,1.3,1.3v9.2c0,0.7-0.6,1.3-1.3,1.3H4.9
				c-0.7,0-1.3-0.6-1.3-1.3V2.3C3.6,1.6,4.2,1,4.9,1H14.1 M4.9,2.3v9.2h9.2V2.3H4.9z"/>
		</g>
	</g>
</g>
</svg>
