<?xml version="1.0" encoding="UTF-8"?>
<svg width="17" height="17" version="1.1" viewBox="0 0 17 17" xmlns="http://www.w3.org/2000/svg" xmlns:cc="http://creativecommons.org/ns#" xmlns:dc="http://purl.org/dc/elements/1.1/" xmlns:rdf="http://www.w3.org/1999/02/22-rdf-syntax-ns#">
 <metadata>
  <rdf:RDF>
   <cc:Work rdf:about="">
    <dc:format>image/svg+xml</dc:format>
    <dc:type rdf:resource="http://purl.org/dc/dcmitype/StillImage"/>
    <dc:title/>
   </cc:Work>
  </rdf:RDF>
 </metadata>
 <defs>
  <filter id="aui5z5o2ja">
   <feColorMatrix in="SourceGraphic" values="0 0 0 0 0.000000 0 0 0 0 0.407843 0 0 0 0 0.819608 0 0 0 1.000000 0"/>
  </filter>
 </defs>
 <g fill="none" fill-rule="evenodd">
  <g transform="translate(0 -3)" filter="url(#aui5z5o2ja)">
   <path transform="translate(0 3)" d="M15.372 5.049c.282-.282.282-.753 0-1.02l-1.69-1.694c-.268-.282-.738-.282-1.02 0l-1.329 1.324 2.71 2.714m-11.918 6.34v2.869h2.87l8.463-8.466-2.87-2.868-8.463 8.466z" fill="#8798AD" fill-rule="nonzero"/>
  </g>
 </g>
 <path d="m2.14 14.145v-1.435l8.4499-8.45 2.8468 2.8466-8.4467 8.4733-2.85 9.7e-5z" style="fill:#fff;stroke-width:.02"/>
 <path d="m12.69 5-1.3399-1.34 0.68992-0.69081c0.81464-0.8157 0.81957-0.81924 1.1396-0.81924 0.31245 0 0.26759-0.034953 1.3527 1.0541 0.88614 0.88937 0.94516 0.95303 0.98832 1.0659 0.07142 0.18675 0.06497 0.38309-0.01844 0.5614-0.059411 0.12702-0.1219 0.19582-0.74791 0.8236-0.37569 0.37675-0.6924 0.685-0.70379 0.685-0.01139 0-0.62365-0.60299-1.3606-1.34z" style="fill:#fff;stroke-width:.02"/>
 <path d="m12.703 4.9917-1.333-1.3319 0.67-0.66662c0.65719-0.65387 0.78131-0.76339 0.91798-0.80997 0.09815-0.033454 0.3688-0.029232 0.45578 0.00711 0.13078 0.054645 0.32555 0.23543 1.1775 1.093 0.9176 0.92364 0.94134 0.95302 0.96302 1.1921 0.01248 0.13766-0.02973 0.30612-0.10827 0.43207-0.05308 0.085118-1.3069 1.3599-1.373 1.396-0.03201 0.01747-0.21773-0.16035-1.37-1.3117z" style="fill:#fff;stroke-width:.02"/>
 <path d="m12.703 4.9917-1.333-1.3319 0.67-0.66662c0.65719-0.65387 0.78131-0.76339 0.91798-0.80997 0.09815-0.033454 0.3688-0.029232 0.45578 0.00711 0.13078 0.054645 0.32555 0.23543 1.1775 1.093 0.9176 0.92364 0.94134 0.95302 0.96302 1.1921 0.0119 0.13127-0.02951 0.30756-0.09978 0.42469-0.04498 0.074983-1.3195 1.3698-1.3815 1.4035-0.03198 0.017373-0.21877-0.16149-1.37-1.3118z" style="fill:#fff;stroke-width:.02"/>
 <path d="m2.1295 14.15c1.8e-6 -0.792 0.00248-1.1131 0.00551-0.71353 0.00303 0.39956 0.00303 1.0476-3.3e-6 1.44-0.0030298 0.39244-0.0055086 0.065529-0.0055067-0.72647z" style="fill:#fff;stroke-width:.02"/>
 <path d="m2.1279 12.99c3.13e-5 -0.154 0.00317-0.21436 0.00698-0.13412 0.00381 0.08023 0.00378 0.20623-5.67e-5 0.28-0.00384 0.07377-0.00695 0.0081-0.00692-0.14588z" style="fill:#fff;stroke-width:.02"/>
 <path d="m2.14 14.155v-1.425l8.4501-8.45 2.8277 2.83-8.4477 8.4718-2.83-0.001795z" style="fill:#fff;stroke-width:.02"/>
 <path d="m2.14 14.155v-1.425l8.4501-8.45 2.8282 2.83-8.4482 8.472-2.83-0.001991z" style="fill:#fff;stroke-width:.02"/>
 <path d="m2.14 14.155v-1.425l8.4501-8.45 2.8285 2.83-8.4486 8.4721-2.83-0.002076z" style="fill:#fff;stroke-width:.02"/>
</svg>
