<svg xmlns="http://www.w3.org/2000/svg" xmlns:xlink="http://www.w3.org/1999/xlink" width="92" height="124" viewBox="0 0 92 124">
    <defs>
        <filter id="cz9apycyra">
            <feColorMatrix in="SourceGraphic" values="0 0 0 0 0.525490 0 0 0 0 0.603922 0 0 0 0 0.674510 0 0 0 1.000000 0"/>
        </filter>
        <filter id="f3y7uj2dcf">
            <feColorMatrix in="SourceGraphic" values="0 0 0 0 0.000000 0 0 0 0 0.407843 0 0 0 0 1.000000 0 0 0 1.000000 0"/>
        </filter>
        <path id="mqe96m6qob" d="M0 0.103L17.141 0.103 17.141 41.693 0 41.693z"/>
        <path id="12lkfnev6d" d="M0.07 0.149L6.896 0.149 6.896 4.55 0.07 4.55z"/>
    </defs>
    <g fill="none" fill-rule="evenodd">
        <g>
            <g>
                <g>
                    <g filter="url(#cz9apycyra)" transform="translate(-870 -408) translate(780 388) translate(90 20)">
                        <g>
                            <g transform="rotate(158 38.528 45.263) translate(.063 .24)">
                                <mask id="pr7slhutmc" fill="#fff">
                                    <use xlink:href="#mqe96m6qob"/>
                                </mask>
                                <path fill="#000" d="M12.058 1.43c.437-.447.877-.89 1.319-1.327l.561.584c-.439.435-.876.873-1.309 1.317l-.57-.575zM9.5 4.166c.415-.466.837-.93 1.264-1.385l.583.562c-.422.451-.839.907-1.25 1.369L9.5 4.167zM7.093 7.05c.384-.493.779-.981 1.18-1.462l.614.529c-.397.474-.785.953-1.163 1.439l-.631-.506zM4.9 10.111c.343-.526.699-1.044 1.066-1.555l.65.48c-.36.5-.71 1.01-1.045 1.526l-.67-.45zm-1.902 3.265c.287-.56.591-1.113.91-1.658l.691.415c-.31.532-.607 1.072-.887 1.62l-.714-.377zm-1.523 3.472c.214-.585.451-1.177.708-1.76l.735.331c-.25.567-.482 1.144-.69 1.712l-.753-.283zM.44 20.514c.123-.623.273-1.248.445-1.855l.773.225c-.166.586-.31 1.188-.43 1.79l-.788-.16zm-.44 3.788c.022-.635.072-1.275.145-1.903l.798.097c-.07.605-.117 1.224-.141 1.836L0 24.302zm.006 1.909l.803-.036c.027.613.08 1.231.157 1.833l-.797.106c-.08-.625-.136-1.265-.163-1.903zm.492 3.786l.785-.179c.133.603.294 1.198.48 1.77l-.765.255c-.193-.598-.362-1.219-.5-1.846zm8.426 1.537c.608-.265 1.243-.439 1.89-.518l.098.81c-.572.07-1.133.225-1.67.458l-.318-.75zm3.702.349l.154-.8c.666.132 1.285.376 1.888.758l-.469.662c-.474-.298-1.003-.507-1.573-.62zM5.958 34.07c.097-.153.2-.305.31-.452.281-.38.613-.734.986-1.048l.515.626c-.325.275-.614.582-.86.913-.095.129-.186.261-.27.397l-.68-.436zm9.463-.39l.656-.472c.378.542.664 1.15.847 1.81l-.772.223c-.16-.57-.405-1.096-.73-1.562zm-13.74-.05l.734-.334c.248.561.528 1.108.83 1.625l-.692.415c-.318-.542-.61-1.116-.871-1.706zm1.934 3.3l.637-.497c.203.27.418.532.639.786.052-.459.14-.908.267-1.34l.77.23c-.161.558-.255 1.146-.28 1.749l-.255-.01-.53.532c-.441-.451-.861-.938-1.248-1.45zm12.305 1.68c.24-.497.381-1.053.418-1.649l.803.05c-.044.706-.212 1.364-.5 1.96l-.721-.361zM6.294 39.66l.484-.652c.467.358.975.674 1.51.943l-.358.731c-.58-.291-1.13-.635-1.636-1.022zm7.081 1.026c.56-.16 1.063-.42 1.497-.77l.5.638c-.517.42-1.115.728-1.778.917l-.219-.785zm-3.65.697l.214-.787c.59.165 1.174.26 1.73.282l-.03.815c-.62-.024-1.263-.129-1.913-.31z" mask="url(#pr7slhutmc)"/>
                            </g>
                            <g transform="rotate(158 38.528 45.263) translate(58.29 72.619)">
                                <mask id="vfmyfm77qe" fill="#fff">
                                    <use xlink:href="#12lkfnev6d"/>
                                </mask>
                                <path fill="#000" d="M0.07 0.791L0.676 0.198 3.504 3.285 6.28 0.149 6.896 0.73 3.514 4.55z" mask="url(#vfmyfm77qe)"/>
                            </g>
                            <path fill="#000" d="M54.332 58.252l.55-.605c.47.43.927.886 1.355 1.354l-.603.553c-.41-.45-.849-.888-1.302-1.302zm3.523 4.237c-.325-.523-.676-1.035-1.042-1.52l.65-.494c.382.504.748 1.037 1.086 1.582l-.694.432zm-6.45-6.471l.435-.692c.537.34 1.066.708 1.57 1.093l-.493.652c-.487-.372-.995-.726-1.513-1.053zm8.104 9.764c-.226-.572-.48-1.138-.753-1.684l.728-.367c.286.566.548 1.155.785 1.75l-.76.301zM48.134 54.324l.31-.756c.587.242 1.172.513 1.736.805l-.375.726c-.543-.28-1.106-.542-1.671-.775zm12.431 14.993c-.124-.6-.276-1.203-.452-1.79l.783-.235c.182.61.34 1.236.468 1.86l-.799.165zM44.621 53.225l.174-.799c.618.135 1.24.3 1.85.49l-.244.78c-.586-.183-1.185-.341-1.78-.47zM60.997 72.98c-.018-.613-.065-1.232-.137-1.841l.811-.097c.075.633.122 1.277.142 1.914l-.816.024zM40.972 52.774l.028-.817c.28.01.562.024.844.044.354.025.71.06 1.063.103l-.1.812c-.34-.042-.68-.074-1.022-.099-.27-.018-.542-.033-.813-.043zM60.779 76.66c.09-.603.155-1.22.191-1.835l.815.049c-.037.64-.105 1.282-.2 1.907l-.806-.121zM37.269 52.9l-.07-.816c.63-.054 1.262-.096 1.894-.12l.03.819c-.619.021-1.237.063-1.854.116zm-3.72.41l-.098-.813.267-.031c.533-.066 1.067-.13 1.6-.192l.094.813c-.532.061-1.064.126-1.596.19l-.266.033zm-3.754.395l-.06-.816c.62-.047 1.237-.106 1.857-.174l.087.814c-.627.068-1.255.129-1.884.176zm-3.806.06l.046-.817c.311.018.623.027.934.033.304.004.608.003.912-.003l.017.818c-.313.007-.628.008-.94.003-.324-.005-.647-.016-.97-.034zm-3.78-.515l.17-.8c.605.13 1.216.239 1.82.32l-.111.812c-.624-.085-1.256-.197-1.88-.332zm-3.658-1.084l.29-.766c.575.218 1.163.417 1.75.592l-.232.784c-.606-.18-1.213-.385-1.808-.61zm-3.457-1.607l.396-.717c.538.299 1.093.582 1.647.84l-.344.742c-.572-.266-1.144-.557-1.699-.865zm-3.192-2.088l.493-.653c.49.373 1 .732 1.513 1.068l-.448.685c-.528-.346-1.052-.716-1.558-1.1zM5.53 41.425c-.27-.446-.526-.902-.767-1.367l.725-.377c.232.449.48.889.74 1.319l-.698.425zm3.51 4.519l.583-.574c.43.44.882.87 1.342 1.276l-.54.614c-.475-.42-.94-.862-1.385-1.316zm-1.283-1.415c-.407-.484-.802-.992-1.174-1.509l.663-.478c.36.5.742.991 1.136 1.46l-.625.527z" transform="rotate(158 38.528 45.263)"/>
                        </g>
                    </g>
                    <g filter="url(#f3y7uj2dcf)" transform="translate(-870 -408) translate(780 388) translate(90 20)">
                        <g fill="#000" fill-rule="nonzero">
                            <path d="M32.895 28.595c-.187.186-.293.444-.293.707 0 .264.107.521.293.707.186.187.444.293.706.293.264 0 .522-.106.709-.293.185-.186.291-.444.291-.707 0-.263-.105-.52-.291-.707-.187-.186-.445-.292-.709-.292-.262 0-.52.106-.706.292z" transform="translate(20 72)"/>
                            <path d="M50.587 47.527l-.063-.063-2.64-11.099c-1.13-4.747-5.328-8.063-10.208-8.063h-.074c-.552 0-1 .448-1 1 0 .553.448 1 1 1h.075c3.95 0 7.346 2.684 8.26 6.527l1.89 7.937-8.517-8.517c-.188-.187-.442-.293-.707-.293H34.15c-.127 0-.25.025-.364.07-2.477-1.43-5.3-2.188-8.177-2.188-2.883 0-5.698.756-8.178 2.188-.114-.045-.236-.07-.362-.07h-4.452c-.266 0-.52.106-.707.293l-8.523 8.523 1.877-7.933c.91-3.849 4.308-6.537 8.264-6.537H21.2c1.217 1.072 2.762 1.66 4.398 1.66 1.78 0 3.453-.694 4.711-1.952.188-.188.293-.442.293-.708v-5.13c2.183-1.368 3.77-3.6 4.276-6.215h.778c1.875 0 3.4-1.525 3.4-3.4v-.539c0-1.875-1.525-3.4-3.4-3.4h-.605V9.464c0-5.213-4.24-9.454-9.453-9.454-5.213 0-9.454 4.241-9.454 9.454v1.154h-.604c-1.875 0-3.4 1.525-3.4 3.4v.54c0 1.874 1.525 3.4 3.4 3.4h.777c.507 2.614 2.094 4.846 4.276 6.214v4.13H13.53c-2.353 0-4.664.804-6.51 2.264-1.844 1.46-3.159 3.524-3.7 5.813L.696 47.464l-.063.063c-.62.62-.803 1.542-.468 2.351.335.81 1.118 1.332 1.994 1.332h6.77c.354 0 .68-.186.86-.49l3.357-5.672.307.198c.3.192.625.317.958.381-.581 1.415-.902 2.962-.902 4.583 0 .552.447 1 1 1 .552 0 1-.448 1-1 0-2.425.86-4.654 2.29-6.397l4.245 4.245c-.381.629-.6 1.365-.6 2.152 0 .552.447 1 1 1 .552 0 1-.448 1-1 0-1.194.971-2.167 2.166-2.167 1.195 0 2.167.973 2.167 2.167 0 .552.448 1 1 1s1-.448 1-1c0-.787-.22-1.523-.6-2.152l4.245-4.245c1.43 1.743 2.29 3.972 2.29 6.397 0 .553.447 1 1 1 .552 0 1-.447 1-1 0-1.62-.322-3.168-.903-4.583.334-.064.659-.189.958-.381l.307-.198 3.356 5.672c.18.304.508.49.86.49h6.772c.875 0 1.658-.523 1.993-1.332.335-.809.152-1.732-.468-2.351zM37.056 14.018v.54c0 .771-.628 1.4-1.4 1.4h-.605v-3.34h.605c.772 0 1.4.628 1.4 1.4zM18.144 9.464c0-4.11 3.344-7.454 7.454-7.454 4.11 0 7.453 3.344 7.453 7.454v1.154h-2.626c-.524 0-1.027-.14-1.465-.401.553-.4 1.078-.847 1.57-1.34.391-.39.391-1.023 0-1.413-.39-.39-1.023-.39-1.414 0-2.034 2.034-4.738 3.154-7.615 3.154h-3.357V9.464zm-4.005 5.093v-.539c0-.772.628-1.4 1.4-1.4h.605v3.34h-.605c-.772 0-1.4-.629-1.4-1.4zm4.005 1.6v-3.539H21.5c1.98 0 3.891-.447 5.618-1.295.902.837 2.069 1.295 3.306 1.295h2.626v3.537c0 4.11-3.343 7.453-7.453 7.453s-7.453-3.342-7.454-7.451zm7.454 9.452c1.05 0 2.06-.173 3.004-.49v3.746c-1.73 1.46-4.28 1.46-6.009 0v-3.746c.944.317 1.955.49 3.005.49zm6.992 12.037l-.812 1.387c-.115.197-.202.405-.263.617-1.748-.981-3.762-1.541-5.905-1.541-2.142 0-4.157.56-5.904 1.541-.062-.212-.149-.42-.264-.616l-.81-1.388c2.126-1.183 4.524-1.807 6.978-1.807 2.45 0 4.854.624 6.98 1.807zM8.36 49.21H2.158c-.03 0-.106 0-.146-.097-.04-.097.014-.151.034-.172l5.684-5.684 2.608 2.608-1.98 3.345zm4.995-6.405c-.229-.147-.507-.195-.771-.132-.265.063-.492.23-.63.464l-.564.951-2.245-2.245 3.887-3.886h3.464l1.22 2.086c.157.27.127.612-.075.85l-2.143 2.527c-.239.281-.653.343-.963.143l-1.18-.758zm10.103 3.839l-4.245-4.245c1.743-1.43 3.972-2.29 6.397-2.29 2.426 0 4.655.86 6.398 2.29l-4.245 4.245c-.629-.381-1.366-.6-2.153-.6-.787 0-1.523.219-2.152.6zm14.408-3.84l-1.18.76c-.31.199-.724.137-.963-.144l-2.143-2.526c-.203-.239-.233-.58-.075-.851l1.22-2.087h3.463l3.887 3.887-2.245 2.245-.563-.951c-.138-.234-.366-.402-.63-.464-.264-.063-.543-.015-.771.132zm11.341 6.309c-.04.097-.116.097-.145.097h-6.2l-1.98-3.345 2.607-2.608 5.684 5.684c.02.02.075.075.034.172z" transform="translate(20 72)"/>
                        </g>
                    </g>
                </g>
            </g>
        </g>
    </g>
</svg>
