<svg xmlns="http://www.w3.org/2000/svg" width="239.299" height="156.279" viewBox="0 0 239.299 156.279">
    <defs>
        <style>
            .cls-2{fill:#2f5bfd;opacity:.4}.cls-3{fill:#fff}.cls-4{fill:#a194ef}.cls-7,.cls-9{fill:none;stroke-miterlimit:10}.cls-7{stroke:#4147c8}.cls-6{fill:#4147c8}.cls-7{stroke-dasharray:8}.cls-8{fill:#dbdbf3}.cls-9{stroke:#3444bb}.cls-10{fill:#8cff01}.cls-13{fill:#5e6ec4}.cls-15{fill:#ccd7f2}
        </style>
    </defs>
    <g id="empty_nota_de_peso" transform="translate(-6.344 -6.5)">
        <path id="Path_3713" fill="#2f5bfd" d="M49.929 160.784s-25.028 4.96-27.3-19.178 34.393-19.283 22.281-43.4S5.534 81.725 6.363 42.828s45.093-36.737 52.271-22S90.861 42.685 112.3 32.366s52.26-30.937 76.86-24.719 32.22 17.381 30.909 35.714-8.43 38.464 7.687 51.4 30.474 42.868.1 59.909c0 0-9.826 5.758-16.084 6.251z" opacity="0.1"/>
        <g id="Group_3444" transform="translate(205.171 104.334)">
            <g id="Group_3443">
                <rect id="Rectangle_289" width="23.069" height="43.865" class="cls-2" rx="11.534"/>
                <g id="Group_3441" transform="translate(11.224 5.598)">
                    <path id="Rectangle_290" d="M0 0H0.394V50.777H0z" class="cls-3"/>
                </g>
                <path id="Path_3714" d="M337.177 198.448l5.639 4.737 6.312-4.48-.21-.334-6.082 4.316-5.356-4.5z" class="cls-3" transform="translate(-331.518 -177.54)"/>
                <path id="Path_3715" d="M337.177 216.72l5.639 4.737 6.312-4.48-.21-.334-6.082 4.316-5.356-4.5z" class="cls-3" transform="translate(-331.518 -184.518)"/>
                <path id="Path_3716" d="M337.177 180.177l5.639 4.737 6.312-4.48-.21-.334-6.082 4.316-5.356-4.5z" class="cls-3" transform="translate(-331.518 -170.562)"/>
                <g id="Group_3442" transform="translate(8.447 55.97)">
                    <path id="Path_3717" d="M348.013 255.777h-6.106a.222.222 0 0 1 0-.443h6.106a.222.222 0 1 1 0 .443z" class="cls-4" transform="translate(-341.686 -255.334)"/>
                </g>
            </g>
        </g>
        <g id="Group_3448" transform="translate(35.138 115.693)">
            <g id="Group_3447">
                <rect id="Rectangle_291" width="18.749" height="35.65" class="cls-2" rx="9.374"/>
                <g id="Group_3445" transform="translate(9.122 4.55)">
                    <path id="Rectangle_292" d="M0 0H0.32V41.268H0z" class="cls-3"/>
                </g>
                <path id="Path_3718" d="M60.371 210.522l4.583 3.85 5.13-3.641-.171-.271-4.943 3.508-4.353-3.656z" class="cls-3" transform="translate(-55.771 -193.529)"/>
                <path id="Path_3719" d="M60.371 225.372l4.583 3.85 5.13-3.641-.171-.271-4.943 3.508-4.353-3.656z" class="cls-3" transform="translate(-55.771 -199.2)"/>
                <path id="Path_3720" d="M60.371 195.672l4.583 3.85 5.13-3.641-.171-.271-4.943 3.508-4.353-3.656z" class="cls-3" transform="translate(-55.771 -187.858)"/>
                <g id="Group_3446" transform="translate(6.865 45.489)">
                    <path id="Path_3721" d="M69.177 257.115h-4.962a.18.18 0 0 1 0-.36h4.962a.18.18 0 1 1 0 .36z" class="cls-4" transform="translate(-64.035 -256.755)"/>
                </g>
            </g>
        </g>
        <g id="Group_3449" transform="translate(24.751 10.251)">
            <path id="Path_3722" fill="none" stroke="#4147c8" stroke-miterlimit="10" d="M37.92 23.895l34.98 4.22L112.486 14" transform="translate(-36.81 -13.115)"/>
            <circle id="Ellipse_15" cx=".655" cy=".655" r=".655" class="cls-6" transform="translate(0 10.125)"/>
            <circle id="Ellipse_16" cx=".655" cy=".655" r=".655" class="cls-6" transform="translate(75.384)"/>
        </g>
        <path id="Path_3723" d="M331.369 125.55s13.849-2.356 20.443-12.366 5.2-19.88-3.471-26.135-10.411-9.885-9.023-13.811" class="cls-7" transform="translate(-124.128 -25.487)"/>
        <path id="Path_3724" d="M38.592 82.236S27.14 79.46 17.423 86.054s-13.534 22.21 0 36.438 19.087 18.046 21.169 24.639" class="cls-7" transform="translate(-.879 -28.702)"/>
        <circle id="Ellipse_17" cx="7.164" cy="7.164" r="7.164" class="cls-8" transform="rotate(-45 79.702 -26.583)"/>
        <circle id="Ellipse_18" cx="7.164" cy="7.164" r="7.164" class="cls-9" transform="rotate(-45 81.642 -31.265)"/>
        <circle id="Ellipse_19" cx="9.019" cy="9.019" r="9.019" class="cls-8" transform="rotate(-45 143.089 -224.607)"/>
        <circle id="Ellipse_20" cx="9.019" cy="9.019" r="9.019" class="cls-9" transform="rotate(-45 140.647 -218.713)"/>
        <g id="Group_3450" transform="translate(13.561 71.358)">
            <path id="Path_3725" d="M25.983 127.357a7.963 7.963 0 1 1 7.963-7.963 7.972 7.972 0 0 1-7.963 7.963zm0-14.328a6.365 6.365 0 1 0 6.365 6.365 6.373 6.373 0 0 0-6.365-6.365z" class="cls-10" transform="translate(-18.02 -111.431)"/>
        </g>
        <g id="Group_3451" transform="translate(53.149 10.59)">
            <path id="Path_3726" d="M89.139 24.195a1.892 1.892 0 0 1-1.44-.183l-4.677-2.675a1.9 1.9 0 0 1-.7-2.588l2.675-4.677a1.9 1.9 0 0 1 2.589-.7l4.676 2.675a1.9 1.9 0 0 1 .7 2.588l-2.675 4.677a1.891 1.891 0 0 1-1.148.883zm-2.645-9.719a.554.554 0 0 0-.338.261l-2.675 4.677a.558.558 0 0 0 .208.761l4.677 2.675a.558.558 0 0 0 .761-.207l2.673-4.677a.559.559 0 0 0-.207-.761l-4.676-2.675a.551.551 0 0 0-.423-.054z" class="cls-10" transform="translate(-82.069 -13.117)"/>
        </g>
        <g id="Group_3452" transform="translate(180.7 18.915)">
            <path id="Path_3727" d="M297.65 39.188a2.257 2.257 0 0 1-1.731.061l-6.019-2.258a2.266 2.266 0 0 1-1.325-2.914l2.257-6.021a2.264 2.264 0 0 1 2.914-1.326l6.021 2.257a2.267 2.267 0 0 1 1.323 2.913l-2.257 6.021a2.254 2.254 0 0 1-1.183 1.267zm-4.977-10.943a.661.661 0 0 0-.348.373l-2.256 6.021a.666.666 0 0 0 .39.858l6.021 2.256a.667.667 0 0 0 .857-.39l2.256-6.021a.667.667 0 0 0-.39-.858l-6.021-2.256a.663.663 0 0 0-.509.016z" class="cls-10" transform="translate(-288.429 -26.585)"/>
        </g>
        <g id="Group_3454" transform="translate(77.082 30.517)">
            <path id="Path_3728" fill="#2f5bfd" d="M142.925 59.039h59.29l18.243 18.243v86.655h13.682V45.357h-91.215z" opacity="0.08" transform="translate(-129.243 -45.357)"/>
            <path id="Path_3729" d="M187.2 201.979h63.851V144.97c-.002 31.51-28.56 57.009-63.851 57.009z" class="cls-8" transform="translate(-146.151 -83.4)"/>
            <path id="Path_3730" fill="#b2c1ea" d="M212 85.736v100.337h-91.211V67.493h72.972v18.243z" transform="translate(-120.789 -53.811)"/>
            <path id="Path_3731" d="M257.092 85.736l-18.243-18.243v18.243z" class="cls-13" transform="translate(-165.877 -53.811)"/>
            <path id="Path_3732" fill="#8391cc" d="M165.062 224.115h63.851v-57.009c0 31.51-28.558 57.009-63.851 57.009z" transform="translate(-137.697 -91.853)"/>
            <g id="Group_3453" transform="translate(11.402 84.374)">
                <path id="Path_3733" d="M146.077 186.424h-4.561a2.28 2.28 0 0 1 0-4.561h4.561a2.28 2.28 0 1 1 0 4.561z" class="cls-13" transform="translate(-139.236 -181.863)"/>
                <path id="Path_3734" d="M213.821 186.424h-50.168a2.28 2.28 0 1 1 0-4.561h50.168a2.28 2.28 0 0 1 0 4.561z" class="cls-13" transform="translate(-147.69 -181.863)"/>
                <path id="Path_3735" d="M205.367 201.181h-63.851a2.28 2.28 0 0 1 0-4.56h63.851a2.28 2.28 0 1 1 0 4.56z" class="cls-13" transform="translate(-139.236 -187.499)"/>
                <path id="Path_3736" d="M205.367 215.939h-63.851a2.28 2.28 0 0 1 0-4.561h63.851a2.28 2.28 0 0 1 0 4.561z" class="cls-13" transform="translate(-139.236 -193.135)"/>
                <path id="Path_3737" d="M242 230.7h-4.56a2.28 2.28 0 0 1 0-4.56H242a2.28 2.28 0 1 1 0 4.56z" class="cls-13" transform="translate(-175.87 -198.771)"/>
                <path id="Path_3738" d="M191.685 230.7h-50.169a2.28 2.28 0 0 1 0-4.56h50.168a2.28 2.28 0 1 1 0 4.56z" class="cls-13" transform="translate(-139.236 -198.771)"/>
            </g>
            <path id="Path_3739" d="M139.357 108.365l20.334 9.54.022.01 20.311-13.957c-1.47-7.11-9.874-12.458-20.334-12.458-11.518 0-20.568 6.465-20.568 14.692a8.842 8.842 0 0 0 .235 2.173z" class="cls-13" transform="translate(-127.79 -62.979)"/>
            <path id="Path_3740" d="M159.836 128.58c11.518 0 20.568-6.464 20.568-14.691a9.3 9.3 0 0 0-.235-2.233c-13.634 5.289-16.983 3.761-20.333 2.233-3.291-1.587-6.7-3.115-20.334 2.174 1.411 7.17 9.873 12.517 20.334 12.517z" class="cls-15" transform="translate(-127.936 -70.677)"/>
            <circle id="Ellipse_21" cx="11.402" cy="11.402" r="11.402" class="cls-13" transform="translate(43.327 47.888)"/>
            <path id="Path_3741" d="M207.455 134.587l-5.228 5.228-1.613-1.612a2.28 2.28 0 0 0-3.28 3.168l.056.056 3.224 3.224a2.28 2.28 0 0 0 3.225 0l6.841-6.841a2.28 2.28 0 0 0-3.225-3.224z" class="cls-15" transform="translate(-149.777 -79.19)"/>
        </g>
    </g>
</svg>
