<svg xmlns="http://www.w3.org/2000/svg" id="empty_process" width="89.161" height="94.985" viewBox="0 0 89.161 94.985">
    <defs>
        <clipPath id="clip-path">
            <path id="Path_301" d="M91.019-75.5l-15.892 6.424-15.58-38.561 15.893-6.421z" class="cls-1" transform="translate(-59.547 114.059)"/>
        </clipPath>
        <clipPath id="clip-path-2">
            <path id="Path_300" d="M-870 865H570V-556H-870z" class="cls-2" transform="translate(870 556)"/>
        </clipPath>
        <clipPath id="clip-path-3">
            <path id="Rectangle_78" d="M0 0H24V41H0z" class="cls-2"/>
        </clipPath>
        <clipPath id="clip-path-4">
            <path id="Path_299" d="M79.343-72.21q-.356.866-.726 1.724l-.739-.331q.366-.851.72-1.711zm1.346-3.5q-.315.882-.653 1.758l-.751-.3q.333-.865.645-1.737zm1.153-3.574q-.256.9-.547 1.8l-.766-.26q.285-.882.539-1.77zm.886-3.66q-.181.924-.4 1.841l-.782-.2q.218-.9.4-1.806zm.54-3.739q-.084.941-.222 1.878l-.8-.126c.088-.61.162-1.221.216-1.835zm.112-3.79c.021.623.023 1.261 0 1.9l-.806-.033c.02-.62.018-1.241 0-1.845zm-.415-3.786c.12.624.215 1.259.283 1.887l-.8.081c-.066-.606-.157-1.219-.273-1.821zm-1.01-3.677c.216.6.41 1.209.577 1.818l-.776.21c-.161-.588-.349-1.179-.557-1.756zm-.722-1.764l-.731.335c-.255-.559-.536-1.112-.832-1.641l.7-.4c.308.549.6 1.122.864 1.7zm-1.874-3.326l-.661.46c-.349-.509-.722-1-1.108-1.462l.613-.522c.4.482.792.994 1.156 1.524zm-8.388 1.726a6.828 6.828 0 0 1-1.558 1.188l-.394-.714a6.039 6.039 0 0 0 1.377-1.05zm-3.563 1.063l.157.8a5.472 5.472 0 0 1-2.034 0l.187-.79a4.65 4.65 0 0 0 1.691-.014zm5.363-4.528c-.032.178-.07.358-.117.535a6.216 6.216 0 0 1-.522 1.342l-.712-.387a5.507 5.507 0 0 0 .455-1.169c.04-.155.075-.312.1-.469zm-8.627 3.907l-.431.683a5.9 5.9 0 0 1-1.464-1.361l.633-.5a5.137 5.137 0 0 0 1.262 1.174zm12.758-5.1l-.555.585a16.38 16.38 0 0 0-1.378-1.2l.486-.644a16.986 16.986 0 0 1 1.447 1.255zm-3.028-2.335l-.4.7c-.29-.174-.587-.337-.887-.489a8.008 8.008 0 0 1 .255 1.342l-.8.075a7.363 7.363 0 0 0-.395-1.726l.24-.086.291-.693a15.091 15.091 0 0 1 1.7.877zm-12.038 3.052a4.383 4.383 0 0 0 .23 1.685l-.764.255a5.194 5.194 0 0 1-.27-2zm8.531-4.578l-.2.785a9.557 9.557 0 0 0-1.753-.309l.058-.812a10.359 10.359 0 0 1 1.9.336zm-6.95 1.7a4.223 4.223 0 0 0-1.1 1.275l-.7-.4a4.976 4.976 0 0 1 1.306-1.516zm3.123-2.013l.1.809a7.569 7.569 0 0 0-1.71.387l-.277-.767a8.349 8.349 0 0 1 1.891-.429z" class="cls-1" transform="translate(-61.02 110.151)"/>
        </clipPath>
        <clipPath id="clip-path-5">
            <path id="Path_298" d="M59-69h25v-46H59z" class="cls-2" transform="translate(-59 115)"/>
        </clipPath>
        <clipPath id="clip-path-6">
            <path id="Path_306" d="M9.836-120.808l-6.329 2.557-1.649-4.081 6.329-2.557z" class="cls-1" transform="translate(-1.859 124.889)"/>
        </clipPath>
        <clipPath id="clip-path-8">
            <path id="Rectangle_79" d="M0 0H7V6H0z" class="cls-2"/>
        </clipPath>
        <clipPath id="clip-path-9">
            <path id="Path_304" d="M9.6-121.4l-.34.777-3.778-1.8-1.4 3.948-.789-.309 1.7-4.808z" class="cls-1" transform="translate(-3.289 123.599)"/>
        </clipPath>
        <clipPath id="clip-path-10">
            <path id="Path_303" d="M3-118h7v-6H3z" class="cls-2" transform="translate(-3 124)"/>
        </clipPath>
        <clipPath id="clip-path-11">
            <path id="Path_309" d="M19.01-108.859l-.283.767c-.6-.222-1.192-.474-1.764-.748l.351-.738c.549.263 1.12.506 1.7.719zm-4.854-2.609c.5.364 1.014.706 1.535 1.018l-.418.7c-.543-.324-1.081-.681-1.6-1.06zm8.405 3.584l-.145.8c-.625-.114-1.253-.257-1.866-.424l.214-.79c.591.162 1.195.3 1.8.41zM11.389-113.9c.423.446.871.876 1.329 1.279l-.538.614c-.477-.418-.941-.866-1.383-1.328zm14.839 6.363v.817c-.635 0-1.278-.037-1.911-.1l.076-.814c.609.056 1.229.088 1.84.093zm-17.143-9.247c.34.51.707 1.012 1.09 1.491l-.638.51c-.4-.5-.778-1.019-1.13-1.548zm20.815 8.948l.138.806c-.624.107-1.262.187-1.9.239l-.067-.815c.612-.049 1.227-.127 1.827-.23zM7.313-120.018c.246.561.521 1.118.816 1.656l-.716.393c-.307-.559-.591-1.138-.848-1.721zm26.136 11.233l.28.769q-.4.144-.8.275c-.337.11-.68.211-1.024.3l-.212-.79q.5-.133.985-.291.387-.126.77-.265zM6.136-123.512c.142.593.313 1.189.51 1.773l-.774.26c-.205-.607-.383-1.228-.529-1.843zm30.7 13.223l.37.73c-.564.287-1.134.562-1.711.82l-.334-.748c.565-.252 1.122-.522 1.675-.8zm3.294-1.774l.4.717-.236.129q-.705.391-1.413.777l-.391-.718c.471-.256.939-.515 1.409-.775zm3.333-1.772l.362.734c-.557.276-1.108.562-1.657.856l-.386-.722c.555-.3 1.115-.59 1.681-.869zm3.507-1.481l.263.775c-.3.1-.588.208-.879.319s-.565.225-.844.345l-.322-.753c.288-.123.579-.242.871-.354s.605-.227.911-.331zm3.7-.939l.141.806c-.609.105-1.216.234-1.807.385l-.2-.794c.611-.155 1.239-.288 1.867-.4zm3.8-.364l.019.818c-.615.013-1.235.049-1.845.107l-.079-.814c.63-.06 1.269-.1 1.9-.111zm3.807.195l-.1.813c-.611-.076-1.231-.13-1.843-.162l.041-.817c.63.033 1.27.088 1.9.166zm3.742.74l-.212.789c-.595-.162-1.2-.3-1.8-.423l.158-.8c.62.123 1.244.27 1.857.437zm8.548 4.146q.626.468 1.223.979l-.531.621q-.575-.493-1.18-.945zm-4.948-2.875l-.326.75c-.564-.247-1.144-.476-1.721-.68l.27-.771c.6.211 1.2.447 1.777.7zm1.72.831c.559.3 1.116.619 1.654.959l-.436.692c-.521-.328-1.059-.641-1.6-.928z" class="cls-1" transform="translate(-5.343 123.512)"/>
        </clipPath>
        <style>
            .cls-1,.cls-2{fill:none}.cls-1{clip-rule:evenodd}.cls-4{clip-path:url(#clip-path-2)}.cls-5{isolation:isolate}.cls-9{fill:#869aab}.cls-15{fill:#0067ff}
        </style>
    </defs>
    <g id="Group_352" clip-path="url(#clip-path)" transform="translate(57.688 10.831)">
        <g id="Group_351" class="cls-4" transform="translate(-929.547 -441.941)">
            <g id="Group_350" class="cls-5" transform="translate(930 445)">
                <g id="Group_349" clip-path="url(#clip-path-3)">
                    <g id="Group_348" clip-path="url(#clip-path-4)" transform="translate(1.02 0.849)">
                        <g id="Group_347" clip-path="url(#clip-path-5)" transform="translate(-2.02 -4.849)">
                            <path id="Path_297" d="M97.528-72.734L72.364-62.567 53.038-110.4 78.2-120.567z" class="cls-9" transform="translate(-59 115)"/>
                        </g>
                    </g>
                </g>
            </g>
        </g>
    </g>
    <g id="Group_358" clip-path="url(#clip-path-6)">
        <g id="Group_357" class="cls-4" transform="translate(-871.859 -431.111)">
            <g id="Group_356" class="cls-5" transform="translate(873 432)">
                <g id="Group_355" clip-path="url(#clip-path-8)">
                    <g id="Group_354" clip-path="url(#clip-path-9)" transform="translate(0.289 0.401)">
                        <g id="Group_353" clip-path="url(#clip-path-10)" transform="translate(-0.289 -0.401)">
                            <path id="Path_302" d="M16.345-118.046l-15.6 6.3L-4.65-125.1l15.6-6.3z" class="cls-9" transform="translate(-3 124)"/>
                        </g>
                    </g>
                </g>
            </g>
        </g>
    </g>
    <g id="Group_360" clip-path="url(#clip-path-11)" transform="translate(3.484 1.378)">
        <g id="Group_359" class="cls-4" transform="translate(-875.343 -432.488)">
            <path id="Path_307" d="M78.435-107.447L16.267-82.329-1.377-126l62.168-25.117z" class="cls-9" transform="translate(870 556)"/>
        </g>
    </g>
    <g id="Group_3533" transform="translate(-222.863 -192.225)">
        <g id="Group_3532" transform="translate(246.038 246.038)">
            <g id="Group_3531">
                <path id="Path_3809" d="M262.018 257.451h-14.372a1.607 1.607 0 0 0-1.608 1.608v14.372a1.607 1.607 0 0 0 1.608 1.608h14.372a1.607 1.607 0 0 0 1.608-1.608v-14.372a1.607 1.607 0 0 0-1.608-1.608zm-1.608 14.37h-11.155v-11.155h11.155z" class="cls-15" transform="translate(-246.038 -233.867)"/>
                <path id="Path_3810" d="M259.305 257.922a1.608 1.608 0 1 0-2.275 2.273l13.818 13.818a1.608 1.608 0 1 0 2.275-2.273z" class="cls-15" transform="translate(-234.818 -233.867)"/>
                <path id="Path_3811" d="M275.82 263.142l-8.107-16.215a1.61 1.61 0 0 0-2.879 0l-8.107 16.215a1.608 1.608 0 0 0 1.438 2.327h16.215a1.608 1.608 0 0 0 1.438-2.327zm-15.05-.891l5.5-11.008 5.505 11.008z" class="cls-15" transform="translate(-234.818 -246.038)"/>
                <path id="Path_3812" d="M255.752 246.038a9.715 9.715 0 1 0 9.716 9.714 9.726 9.726 0 0 0-9.716-9.714zm0 16.213a6.5 6.5 0 1 1 6.5-6.5 6.5 6.5 0 0 1-6.5 6.5z" class="cls-15" transform="translate(-246.038 -246.038)"/>
            </g>
        </g>
    </g>
</svg>
