<?xml version="1.0" encoding="utf-8"?>
<!-- Generator: Adobe Illustrator 25.0.1, SVG Export Plug-In . SVG Version: 6.00 Build 0)  -->
<svg version="1.1" id="Layer_1" xmlns="http://www.w3.org/2000/svg" xmlns:xlink="http://www.w3.org/1999/xlink" x="0px" y="0px"
	 viewBox="0 0 400 269" style="enable-background:new 0 0 400 269;" xml:space="preserve">
<style type="text/css">
	.st0{opacity:0.1;fill:#2F5BFD;}
	.st1{opacity:0.4;fill:#2F5BFD;}
	.st2{fill:#FFFFFF;}
	.st3{fill:#A194EF;}
	.st4{fill:none;stroke:#4147C8;stroke-miterlimit:10;}
	.st5{fill:#4147C8;}
	.st6{fill:none;stroke:#4147C8;stroke-miterlimit:10;stroke-dasharray:8.3195,8.3195;}
	.st7{fill:none;stroke:#4147C8;stroke-miterlimit:10;stroke-dasharray:7.7984,7.7984;}
	.st8{fill:#DBDBF3;}
	.st9{fill:none;stroke:#3444BB;stroke-miterlimit:10;}
	.st10{fill:#8CFF01;}
	.st11{opacity:8.000000e-02;fill:#2F5BFD;}
	.st12{fill:#B2C1EA;}
	.st13{fill:#CAD2ED;}
	.st14{fill:#5E6EC4;}
	.st15{opacity:0.22;fill:#2F5BFD;}
	.st16{fill:#8391CC;}
	.st17{fill:#CCD7F2;}
</style>
<path class="st0" d="M78.9,254.4c0,0-40.5,8-44.2-31c-3.7-39.1,55.6-31.2,36-70.2C51.1,114.2,7,126.5,8.4,63.6
	C9.7,0.7,81.3,4.2,92.9,28c11.6,23.9,52.1,35.4,86.8,18.7c34.7-16.7,84.5-50.1,124.3-40s52.1,28.1,50,57.8s-13.6,62.2,12.4,83.2
	c26.1,20.9,49.3,69.4,0.2,96.9c0,0-15.9,9.3-26,10.1L78.9,254.4z"/>
<g>
	<g>
		<path class="st1" d="M348.7,163.1L348.7,163.1c-10.3,0-18.7,8.4-18.7,18.7v33.6c0,10.3,8.4,18.7,18.7,18.7h0
			c10.3,0,18.7-8.4,18.7-18.7v-33.6C367.3,171.5,358.9,163.1,348.7,163.1z"/>
		<g>
			<rect x="348.2" y="172.2" class="st2" width="0.6" height="82.2"/>
		</g>
		<polygon class="st2" points="339.2,196.9 348.3,204.6 358.5,197.4 358.2,196.8 348.3,203.8 339.7,196.5 		"/>
		<polygon class="st2" points="339.2,215.2 348.3,222.9 358.5,215.6 358.2,215.1 348.3,222.1 339.7,214.8 		"/>
		<polygon class="st2" points="339.2,178.7 348.3,186.3 358.5,179.1 358.2,178.5 348.3,185.5 339.7,178.2 		"/>
		<g>
			<path class="st3" d="M353.9,254.4H344c-0.2,0-0.4-0.2-0.4-0.4c0-0.2,0.2-0.4,0.4-0.4h9.9c0.2,0,0.4,0.2,0.4,0.4
				C354.3,254.2,354.1,254.4,353.9,254.4z"/>
		</g>
	</g>
</g>
<g>
	<g>
		<path class="st1" d="M70.1,181.5L70.1,181.5c-8.3,0-15.2,6.8-15.2,15.2V224c0,8.3,6.8,15.2,15.2,15.2h0c8.3,0,15.2-6.8,15.2-15.2
			v-27.3C85.3,188.3,78.4,181.5,70.1,181.5z"/>
		<g>
			<rect x="69.7" y="188.9" class="st2" width="0.5" height="66.8"/>
		</g>
		<polygon class="st2" points="62.4,209 69.8,215.2 78.1,209.3 77.8,208.9 69.8,214.6 62.8,208.6 		"/>
		<polygon class="st2" points="62.4,223.8 69.8,230.1 78.1,224.2 77.8,223.7 69.8,229.4 62.8,223.5 		"/>
		<polygon class="st2" points="62.4,194.1 69.8,200.4 78.1,194.5 77.8,194 69.8,199.7 62.8,193.8 		"/>
		<g>
			<path class="st3" d="M74.4,255.7h-8c-0.2,0-0.3-0.1-0.3-0.3c0-0.2,0.1-0.3,0.3-0.3h8c0.2,0,0.3,0.1,0.3,0.3
				C74.6,255.5,74.5,255.7,74.4,255.7z"/>
		</g>
	</g>
</g>
<g>
	<polyline class="st4" points="39.9,28.3 96.5,35.2 160.6,12.3 	"/>
	<circle class="st5" cx="39.2" cy="28.3" r="1.1"/>
	<circle class="st5" cx="161.1" cy="12" r="1.1"/>
</g>
<g>
	<g>
		<path class="st4" d="M333.4,156.2c0,0,1.5-0.3,3.9-0.9"/>
		<path class="st6" d="M345.1,152.6c7.1-2.9,15.8-8,21.3-16.4c10.7-16.2,8.4-32.2-5.6-42.3c-8.2-5.9-12.6-10.4-14.4-14.4"/>
		<path class="st4" d="M345.5,75.5c0-1.3,0.2-2.6,0.7-3.9"/>
	</g>
</g>
<g>
	<g>
		<path class="st4" d="M59.1,80.9c0,0-1.5-0.4-3.9-0.6"/>
		<path class="st7" d="M47.4,80c-6.5,0.3-14.9,1.9-22.5,7.1c-15.7,10.7-21.9,35.9,0,59c16.7,17.6,25.9,25.3,30.8,32.8"/>
		<path class="st4" d="M57.6,182.2c0.6,1.2,1.1,2.4,1.5,3.7"/>
	</g>
</g>
<ellipse transform="matrix(0.7071 -0.7071 0.7071 0.7071 -27.3389 79.7941)" class="st8" cx="82.7" cy="72.9" rx="11.6" ry="11.6"/>
<ellipse transform="matrix(0.7071 -0.7071 0.7071 0.7071 -25.5009 84.2314)" class="st9" cx="88.9" cy="72.9" rx="11.6" ry="11.6"/>
<ellipse transform="matrix(0.7071 -0.7071 0.7071 0.7071 64.1297 257.9774)" class="st8" cx="343.5" cy="51.6" rx="14.6" ry="14.6"/>
<ellipse transform="matrix(0.7071 -0.7071 0.7071 0.7071 61.8158 252.3912)" class="st9" cx="335.6" cy="51.6" rx="14.6" ry="14.6"/>
<g>
	<path class="st10" d="M32.9,135.5c-7.1,0-12.9-5.8-12.9-12.9c0-7.1,5.8-12.9,12.9-12.9c7.1,0,12.9,5.8,12.9,12.9
		C45.8,129.7,40,135.5,32.9,135.5z M32.9,112.3c-5.7,0-10.3,4.6-10.3,10.3s4.6,10.3,10.3,10.3s10.3-4.6,10.3-10.3
		S38.6,112.3,32.9,112.3z"/>
</g>
<g>
	<defs>
		<rect id="SVGID_1_" x="119.8" y="146.4" width="68.2" height="68.2"/>
	</defs>
	<clipPath id="SVGID_2_">
		<use xlink:href="#SVGID_1_"  style="overflow:visible;"/>
	</clipPath>
</g>
<g>
	<path class="st10" d="M95.5,29.4c-0.8,0.2-1.6,0.1-2.3-0.3l-7.6-4.3c-1.5-0.8-2-2.7-1.1-4.2l0,0l4.3-7.6c0.4-0.7,1.1-1.2,1.9-1.4
		c0.8-0.2,1.6-0.1,2.3,0.3l7.6,4.3c1.5,0.8,2,2.7,1.1,4.2l-4.3,7.6C96.9,28.7,96.3,29.2,95.5,29.4z M91.2,13.6
		c-0.2,0.1-0.4,0.2-0.5,0.4l-4.3,7.6c-0.1,0.2-0.2,0.5-0.1,0.7c0.1,0.2,0.2,0.4,0.4,0.5l7.6,4.3c0.4,0.2,1,0.1,1.2-0.3l4.3-7.6
		c0.2-0.4,0.1-1-0.3-1.2l-7.6-4.3C91.7,13.6,91.5,13.6,91.2,13.6z"/>
</g>
<g>
	<path class="st10" d="M305.3,45.3c-0.9,0.4-1.9,0.5-2.8,0.1l-9.7-3.7c-1.9-0.7-2.9-2.8-2.1-4.7l0,0l3.7-9.7c0.3-0.9,1-1.6,1.9-2
		c0.9-0.4,1.9-0.4,2.8-0.1l9.7,3.7c1.9,0.7,2.9,2.8,2.1,4.7l-3.7,9.7C306.9,44.2,306.2,44.9,305.3,45.3z M297.3,27.6
		c-0.3,0.1-0.5,0.3-0.6,0.6l-3.7,9.7c-0.1,0.3-0.1,0.6,0,0.8c0.1,0.3,0.3,0.5,0.6,0.6l9.7,3.7c0.6,0.2,1.2-0.1,1.4-0.6l3.7-9.7
		c0.2-0.6-0.1-1.2-0.6-1.4l-9.7-3.7C297.8,27.5,297.6,27.5,297.3,27.6z"/>
</g>
<g>
	<path class="st11" d="M319.4,87.1c-2.9-1.2-6.2-0.5-8.4,1.7l-33,33V94.2v0c0-0.4,0-0.8-0.1-1.1c-0.4-2.6-2.1-4.9-4.7-6
		c-2.9-1.2-6.2-0.5-8.4,1.7l-25.3,25.3l-7.7,7.7V94.2c0-3.1-1.9-5.9-4.7-7.1c-2.8-1.2-6.2-0.5-8.4,1.7l-46.1,46.1
		c-2.2,2.2-2.9,5.5-1.7,8.4c1.2,2.9,4,4.7,7.1,4.7h46.1h15.4h30.7h38.4c8.5,0,15.4-6.9,15.4-15.4V94.2
		C324.1,91.1,322.2,88.3,319.4,87.1z"/>
	<path class="st12" d="M239.5,132.7h-76.9c-4.2,0-7.7,3.4-7.7,7.7v99.9c0,8.5,6.9,15.4,15.4,15.4h69.2h76.9c4.2,0,7.7-3.4,7.7-7.7
		V132.7H239.5z"/>
	<g>
		<g>
			<path class="st13" d="M193.4,171.1h92.2v30.7h-92.2V171.1z"/>
		</g>
	</g>
	<path class="st14" d="M285.7,163.4h-92.2c-4.2,0-7.7,3.4-7.7,7.7v30.7c0,4.2,3.4,7.7,7.7,7.7h92.2c4.2,0,7.7-3.4,7.7-7.7v-30.7
		C293.3,166.8,289.9,163.4,285.7,163.4z M247.2,178.8v15.4h-15.4v-15.4H247.2z M201.1,178.8h15.4v15.4h-15.4V178.8z M278,194.1
		h-15.4v-15.4H278V194.1z"/>
	<path class="st14" d="M293.3,201.8v-30.7c0-4.2-3.4-7.7-7.7-7.7h-46.1v15.4h7.7v15.4h-7.7v15.4h46.1
		C289.9,209.5,293.3,206.1,293.3,201.8z M278,194.1h-15.4v-15.4H278V194.1z"/>
	<path class="st15" d="M158.8,108.6l-7.7-62c-0.5-3.8-3.8-6.7-7.6-6.7h-11.5h-11.5c-3.9,0-7.1,2.9-7.6,6.7l-7.7,62
		c-0.3,2.2,0.4,4.4,1.9,6s3.6,2.6,5.8,2.6h19.2h19.2c0.3,0,0.6,0,0.8,0c1.9-0.2,3.7-1.1,4.9-2.6c1.3-1.4,2-3.3,1.9-5.2
		C158.8,109.2,158.8,108.9,158.8,108.6z"/>
	<g>
		<g>
			<g>
				<g>
					<path class="st16" d="M162.7,101.9h-62c-4.2,0-7.7,3.4-7.7,7.7V248c0,4.2,3.4,7.7,7.7,7.7h23.6l7.7-15.4l7.7,15.4h30.7V109.6
						C170.4,105.3,166.9,101.9,162.7,101.9z"/>
				</g>
			</g>
		</g>
	</g>
	<path class="st14" d="M324.5,241.4l-31.3-14.7v0l0,0l-31.2,21.5c2.3,10.9,15.2,19.2,31.3,19.2c17.7,0,31.6-9.9,31.6-22.6
		C324.8,243.5,324.8,242.5,324.5,241.4z"/>
	<path class="st17" d="M293.2,222.1c-17.7,0-31.6,9.9-31.6,22.6c0,1.2,0.1,2.4,0.4,3.4c21-8.1,26.1-5.8,31.3-3.4
		c5.1,2.4,10.3,4.8,31.3-3.3C322.3,230.3,309.3,222.1,293.2,222.1z"/>
	<path class="st14" d="M170.4,255.6V109.6c0-4.2-3.4-7.7-7.7-7.7h-30.7v138.4l7.7,15.4H170.4z"/>
	<path class="st13" d="M131.9,224.9c-4.3,0-7.7,3.4-7.7,7.7v23.1h7.7h7.7v-23.1C139.6,228.3,136.2,224.9,131.9,224.9z"/>
</g>
</svg>
