<?xml version="1.0" encoding="UTF-8"?>
<svg width="82px" height="114px" viewBox="0 0 82 114" version="1.1" xmlns="http://www.w3.org/2000/svg" xmlns:xlink="http://www.w3.org/1999/xlink">
    <title>F4DA4D58-009F-4801-9D89-30837FB02CFC</title>
    <defs>
        <filter id="filter-1">
            <feColorMatrix in="SourceGraphic" type="matrix" values="0 0 0 0 0.525490 0 0 0 0 0.603922 0 0 0 0 0.674510 0 0 0 1.000000 0"></feColorMatrix>
        </filter>
        <polygon id="path-2" points="0.000238839458 0.103384615 17.1409506 0.103384615 17.1409506 41.6927538 0.000238839458 41.6927538"></polygon>
        <polygon id="path-4" points="0.0699854167 0.1485575 6.895875 0.1485575 6.895875 4.54982937 0.0699854167 4.54982937"></polygon>
        <filter id="filter-6">
            <feColorMatrix in="SourceGraphic" type="matrix" values="0 0 0 0 0.000000 0 0 0 0 0.407843 0 0 0 0 1.000000 0 0 0 1.000000 0"></feColorMatrix>
        </filter>
    </defs>
    <g id="Receiving-ticket-2" stroke="none" stroke-width="1" fill="none" fill-rule="evenodd">
        <g id="receiving-ticket_fincas-empty" transform="translate(-538.000000, -442.000000)">
            <g id="empty_finca" transform="translate(538.000000, 442.000000)">
                <g filter="url(#filter-1)" id="Group-9">
                    <g transform="translate(41.000000, 46.000000) rotate(-193.000000) translate(-41.000000, -46.000000) translate(8.000000, 7.000000)">
                        <g id="Group-3" transform="translate(0.062710, 0.240908)">
                            <mask id="mask-3" fill="white">
                                <use xlink:href="#path-2"></use>
                            </mask>
                            <g id="Clip-2"></g>
                            <path d="M12.058447,1.42929231 C12.494727,0.982638462 12.9349878,0.540830769 13.3768408,0.103061538 L13.9381135,0.687023077 C13.499445,1.12156154 13.0623688,1.56013846 12.6292733,2.00356154 L12.058447,1.42929231 Z M9.50047636,4.16736923 C9.91526089,3.70052308 10.3372106,3.23771538 10.7639371,2.78217692 L11.3467054,3.34352308 C10.9247557,3.79502308 10.5083789,4.25136923 10.097575,4.71256154 L9.50047636,4.16736923 Z M7.09297462,7.04921538 C7.47671002,6.55571538 7.87159126,6.06786923 8.27363768,5.58729231 L8.88665896,6.11552308 C8.49018545,6.58963846 8.10167327,7.0686 7.72351079,7.55483077 L7.09297462,7.04921538 Z M4.90042839,10.1111769 C5.24276495,9.58536923 5.59863574,9.06683077 5.96565238,8.55556154 L6.61529571,9.03613846 C6.25624039,9.53690769 5.90673865,10.0457538 5.57077114,10.5618692 L4.90042839,10.1111769 Z M2.99847017,13.3758692 C3.28507752,12.8153308 3.58919977,12.2628692 3.90765238,11.7176769 L4.59949068,12.1328308 C4.28899938,12.6651 3.99204232,13.2046385 3.71180402,13.7530615 L2.99847017,13.3758692 Z M1.47467443,16.8481385 C1.68883381,16.2625615 1.92608101,15.6705231 2.18323149,15.0873692 L2.91806089,15.4193308 C2.66727946,15.9863308 2.43640132,16.5630231 2.22781485,17.1308308 L1.47467443,16.8481385 Z M0.441295706,20.5142538 C0.563899961,19.8907154 0.713572689,19.2663692 0.885537099,18.6589846 L1.65858081,18.8835231 C1.49298545,19.4699077 1.34808952,20.0724462 1.22946592,20.6741769 L0.441295706,20.5142538 Z M0.000238839458,24.3015231 C0.0233266538,23.6666769 0.0726868085,23.0269846 0.145930909,22.3994077 L0.944450832,22.4955231 C0.873595126,23.1012923 0.826623366,23.7199846 0.80273942,24.3322154 L0.000238839458,24.3015231 Z M0.00660789168,26.2109077 L0.809904603,26.1745615 C0.836973075,26.7884077 0.890313888,27.4062923 0.966742515,28.0080231 L0.169814855,28.1138308 C0.0894055706,27.4894846 0.0344724952,26.8489846 0.00660789168,26.2109077 L0.00660789168,26.2109077 Z M0.498617176,29.9965615 L1.28360286,29.8180615 C1.41655683,30.4206 1.57817153,31.0158692 1.76367017,31.5885231 L0.999383907,31.8429462 C0.805923946,31.2452538 0.637144062,30.6241385 0.498617176,29.9965615 L0.498617176,29.9965615 Z M8.92487327,31.5336 C9.53311776,31.2694846 10.1684307,31.0950231 10.8148895,31.0158692 L10.9128137,31.8259846 C10.3411913,31.8962538 9.77991853,32.0505231 9.24252975,32.2839462 L8.92487327,31.5336 Z M12.6268849,31.8825231 L12.7813344,31.0821 C13.4469003,31.2145615 14.0662907,31.4592923 14.6689622,31.8405231 L14.2000408,32.5028308 C13.7263425,32.2047923 13.196915,31.9964077 12.6268849,31.8825231 L12.6268849,31.8825231 Z M5.9584872,34.0713692 C6.05481911,33.9179077 6.15752008,33.7660615 6.26738623,33.6190615 C6.54921679,33.2386385 6.88120364,32.8848692 7.25379319,32.5706769 L7.76889029,33.1966385 C7.44406863,33.4720615 7.15507288,33.7789846 6.90906824,34.1101385 C6.81353246,34.2385615 6.72277346,34.3710231 6.63838352,34.5067154 L5.9584872,34.0713692 Z M15.4213065,33.6804462 L16.0765228,33.2087538 C16.4554814,33.7507154 16.7412926,34.3597154 16.9244029,35.0196 L16.1521553,35.2417154 C15.9921328,34.6714846 15.7469243,34.1464846 15.4213065,33.6804462 L15.4213065,33.6804462 Z M1.68166863,33.6311769 L2.41490576,33.2967923 C2.6632988,33.8581385 2.94274097,34.4049462 3.24447482,34.9218692 L2.55263652,35.3370231 C2.23498004,34.7950615 1.94279977,34.2207923 1.68166863,33.6311769 L1.68166863,33.6311769 Z M3.61467598,36.9306 L4.2515812,36.4338692 C4.45539087,36.7036385 4.66955025,36.9661385 4.89087482,37.2197538 C4.94262337,36.7609846 5.0317901,36.3119077 5.15757888,35.8797923 L5.9282342,36.1107923 C5.7666195,36.6681 5.67267598,37.2561 5.6479959,37.8586385 L5.39323381,37.8481385 L4.86380634,38.3812154 C4.42195335,37.9297154 4.0015959,37.4426769 3.61467598,36.9306 L3.61467598,36.9306 Z M15.9196849,38.6106 C16.1601166,38.1138692 16.3010319,37.5581769 16.3376539,36.9621 L17.1409506,37.0121769 C17.0971634,37.7181 16.9291797,38.3763692 16.6401839,38.9716385 L15.9196849,38.6106 Z M6.2944547,39.6597923 L6.77770654,39.0079846 C7.24503574,39.3657923 7.75296766,39.6824077 8.28717191,39.9513692 L7.92970886,40.6823308 C7.35092124,40.3907538 6.80079435,40.0474846 6.2944547,39.6597923 L6.2944547,39.6597923 Z M13.3752485,40.6863692 C13.9341328,40.5256385 14.4380841,40.2663692 14.8719758,39.9158308 L15.3727425,40.5539077 C14.855257,40.9731 14.2565661,41.2816385 13.5941847,41.4706385 L13.3752485,40.6863692 Z M9.72578159,41.3826 L9.93914484,40.5959077 C10.5298744,40.7614846 11.1126427,40.8551769 11.6699348,40.8777923 L11.6396818,41.6927538 C11.0194953,41.6685231 10.376221,41.5643308 9.72578159,41.3826 L9.72578159,41.3826 Z" id="Fill-1" fill="#000000" mask="url(#mask-3)"></path>
                        </g>
                        <g id="Group-6" transform="translate(58.290840, 72.618969)">
                            <mask id="mask-5" fill="white">
                                <use xlink:href="#path-4"></use>
                            </mask>
                            <g id="Clip-5"></g>
                            <polygon id="Fill-4" fill="#000000" mask="url(#mask-5)" points="0.0699854167 0.790960625 0.675728472 0.19803875 3.50363125 3.284645 6.28029792 0.1485575 6.89595764 0.73038875 3.51437431 4.54982937"></polygon>
                        </g>
                        <path d="M54.3318098,58.2517265 L54.8815802,57.6471963 C55.3529275,58.0774987 55.8089135,58.5329222 56.2366026,59.0013115 L55.6342806,59.5539785 C55.2235697,59.1042275 54.7853704,58.6658216 54.3318098,58.2517265 L54.3318098,58.2517265 Z M57.8551914,62.4891102 C57.53018,61.9656163 57.1792972,61.4542777 56.813053,60.9696812 L57.4638842,60.4753603 C57.8454896,60.9794055 58.2109252,61.5118134 58.5488723,62.0571872 L57.8551914,62.4891102 Z M51.4042823,56.0175581 L51.8400562,55.3263191 C52.3768908,55.6658609 52.9056406,56.0337653 53.4109443,56.4186873 L52.9169594,57.0710289 C52.4302509,56.6990726 51.9217133,56.3449444 51.4042823,56.0175581 L51.4042823,56.0175581 Z M59.5085451,65.782422 C59.2829775,65.2103063 59.0291129,64.6438632 58.7558447,64.0984894 L59.4842905,63.730585 C59.769686,64.2970282 60.032444,64.8861614 60.2685218,65.4801569 L59.5085451,65.782422 Z M48.1339568,54.3239012 L48.4444154,53.5678333 C49.0313761,53.8101316 49.6159114,54.0807925 50.1802346,54.3733333 L49.8050971,55.0994177 C49.2617946,54.8190324 48.6990884,54.5572855 48.1339568,54.3239012 L48.1339568,54.3239012 Z M60.5652362,69.3172217 C60.4407293,68.7167433 60.288734,68.1138339 60.1132925,67.5263213 L60.8959069,67.2921267 C61.0778162,67.9023294 61.235471,68.527929 61.3640203,69.1510974 L60.5652362,69.3172217 Z M44.6210855,53.2250501 L44.7949099,52.426033 C45.4134017,52.5605531 46.0351273,52.7250566 46.6447257,52.9154917 L46.4013715,53.6966809 C45.8152192,53.5127287 45.2161311,53.354708 44.6210855,53.2250501 L44.6210855,53.2250501 Z M60.9969676,72.9800586 C60.979181,72.3674248 60.9322888,71.7483081 60.8603335,71.1389158 L61.6712449,71.0424827 C61.7464341,71.6753755 61.7933263,72.3188031 61.8127299,72.9557477 L60.9969676,72.9800586 Z M40.9715801,52.7744887 L40.9998771,51.9568333 C41.2804217,51.9665577 41.5617748,51.9811442 41.8439364,52.0014032 C42.1980532,52.0257141 42.553787,52.0605597 42.9070953,52.1043192 L42.8076516,52.9163021 C42.467279,52.8741633 42.1260979,52.8417488 41.7849169,52.8174379 C41.5140741,52.7987996 41.2432313,52.7842131 40.9715801,52.7744887 L40.9715801,52.7744887 Z M60.7786765,76.6599131 C60.8692269,76.0570037 60.9339057,75.4403181 60.9702876,74.8252532 L61.7852414,74.873875 C61.7480511,75.5132507 61.6801382,76.1558679 61.5855454,76.7814675 L60.7786765,76.6599131 Z M37.2687146,52.8992845 L37.1991848,52.0840602 C37.8298038,52.0297659 38.4612313,51.9876271 39.0926588,51.9641266 L39.1225728,52.7825924 C38.504081,52.8044721 37.8863978,52.8458006 37.2687146,52.8992845 L37.2687146,52.8992845 Z M33.5496794,53.3101381 L33.4510441,52.4973449 L33.7178444,52.4657408 C34.2514451,52.4001014 34.7850458,52.3352724 35.3186465,52.2744953 L35.4124309,53.0872885 C34.8796387,53.1480657 34.3484635,53.2128947 33.8156712,53.2777236 L33.5496794,53.3101381 Z M29.7950708,53.7047845 L29.7344343,52.8887498 C30.354543,52.8417488 30.9722263,52.7825924 31.5915265,52.7153323 L31.678843,53.5289359 C31.0522664,53.5970063 30.4240728,53.6577835 29.7950708,53.7047845 L29.7950708,53.7047845 Z M25.9887191,53.7647513 L26.0348028,52.9479062 C26.3460699,52.9657342 26.6581454,52.9754585 26.9694125,52.9811311 C27.2725947,52.9851829 27.5773939,52.9843725 27.8813846,52.9778896 L27.8975543,53.7963554 C27.5846703,53.8028383 27.2701693,53.8036487 26.9572852,53.7987865 C26.6338909,53.7939243 26.311305,53.7825793 25.9887191,53.7647513 L25.9887191,53.7647513 Z M22.208239,53.2501713 L22.379638,52.4503439 C22.983577,52.5808122 23.5947923,52.6885903 24.1987313,52.7704369 L24.0879687,53.5816094 C23.4638176,53.4965214 22.8315816,53.3846914 22.208239,53.2501713 L22.208239,53.2501713 Z M18.5514572,52.1659068 L18.8408951,51.4001145 C19.4157286,51.6181019 20.0043064,51.817451 20.5912671,51.9916789 L20.3592317,52.7761095 C19.7528673,52.5962091 19.1456943,52.3911874 18.5514572,52.1659068 L18.5514572,52.1659068 Z M15.0943714,50.5589586 L15.489721,49.8417881 C16.0281727,50.1408117 16.582794,50.4236281 17.1374153,50.6821337 L16.7930003,51.4244254 C16.2214008,51.1578162 15.6489928,50.8668962 15.0943714,50.5589586 L15.0943714,50.5589586 Z M11.902469,48.4706554 L12.394837,47.8183138 C12.8855879,48.1910804 13.3941255,48.5500708 13.9075141,48.8855608 L13.4604214,49.5711272 C12.9316716,49.2251025 12.4077727,48.854767 11.902469,48.4706554 L11.902469,48.4706554 Z M5.52998307,41.4245564 C5.25994877,40.9788573 5.00365874,40.5226234 4.76272993,40.0582859 L5.4879418,39.6814675 C5.71997726,40.1295977 5.96737394,40.5696244 6.22770641,40.9999267 L5.52998307,41.4245564 Z M9.0404289,45.9439462 L9.62334725,45.3702098 C10.0534618,45.8102364 10.5054054,46.2397283 10.9646254,46.6457198 L10.4253653,47.2599743 C9.94997555,46.8402067 9.48428767,46.397749 9.0404289,45.9439462 L9.0404289,45.9439462 Z M7.75736176,44.5290538 C7.34988486,44.0452676 6.95453524,43.5371706 6.58263172,43.0201595 L7.24559017,42.5420459 C7.60536641,43.0412289 7.98778024,43.5331188 8.38151288,44.0015081 L7.75736176,44.5290538 Z" id="Fill-7" fill="#000000"></path>
                    </g>
                </g>
                <g filter="url(#filter-6)" id="silo-(6)">
                    <g transform="translate(25.000000, 66.000000)">
                        <path d="M47.0044,25.2336 L36.8524,20.3336 C36.6600241,20.2410265 36.4359759,20.2410265 36.2436,20.3336 L31.2288,22.7564 L31.2288,19.7736 C31.2320512,18.7058222 30.6825928,17.7123784 29.7764,17.1476 L25.0672,14.1924 L25.0672,12.18 C25.0664874,11.8328441 24.8108938,11.5389114 24.4672,11.49 L24.4672,4.3 C24.4645556,1.92658406 22.5414154,0.00308604249 20.168,0 L11.06,0 C8.68627216,0.0026453158 6.76264532,1.92627216 6.76,4.3 L6.76,7.086 C6.41621833,7.1347498 6.16054034,7.42877948 6.16,7.776 L6.16,9.7892 L1.454,12.746 C0.545685333,13.3089563 -0.00492547485,14.3033882 -3.27698004e-05,15.372 L-3.27698004e-05,46.7 C-3.27698004e-05,47.0865079 0.313492118,47.4 0.7,47.4 L46.7,47.4 C47.0865079,47.4 47.4000001,47.0865079 47.4000001,46.7 L47.4000001,25.864 C47.4000001,25.5953384 47.2463715,25.3503426 47.0044,25.2336 Z M29.0324,18.3332 C29.5291778,18.6430352 29.8304203,19.1877229 29.8288065,19.7732 L29.8288065,21.068 L15.3055915,21.068 L15.3055915,19.7736 C15.3037481,19.1880635 15.6050488,18.6432707 16.102,18.3336 L17.014,17.7612 L17.016,17.7612 L21.14,15.1724 C21.3440434,15.0443938 21.4679407,14.820472 21.468,14.5796 L21.468,12.8796 L23.668,12.8796 L23.668,14.58 C23.6680593,14.820872 23.7919566,15.0447938 23.996,15.1728 L29.0324,18.3332 Z M10.3616,25.2656 L10.3616,27.4656 L6.9616,27.4656 L6.9616,25.2656 L10.3616,25.2656 Z M6.9616,23.8656 L6.9616,21.6656 L10.3616,21.6656 L10.3616,23.8656 L6.9616,23.8656 Z M10.3616,28.8656 L10.3616,31.0656 L6.9616,31.0656 L6.9616,28.8656 L10.3616,28.8656 Z M10.3616,32.4656 L10.3616,34.6656 L6.9616,34.6656 L6.9616,32.4656 L10.3616,32.4656 Z M10.3616,36.0656 L10.3616,38.2656 L6.9616,38.2656 L6.9616,36.0656 L10.3616,36.0656 Z M10.3616,39.6656 L10.3616,41.8656 L6.9616,41.8656 L6.9616,39.6656 L10.3616,39.6656 Z M10.3616,20.2656 L6.9616,20.2656 L6.9616,18.0656 L10.3616,18.0656 L10.3616,20.2656 Z M6.9616,43.2656 L10.3616,43.2656 L10.3616,46 L6.9616,46 L6.9616,43.2656 Z M11.7616,43.1956 C12.0058274,43.0809174 12.161769,42.8354132 12.161769,42.5656 C12.161769,42.2957868 12.0058274,42.0502826 11.7616,41.9356 L11.7616,39.5956 C12.0058274,39.4809174 12.161769,39.2354132 12.161769,38.9656 C12.161769,38.6957868 12.0058274,38.4502826 11.7616,38.3356 L11.7616,35.9956 C12.0058274,35.8809174 12.161769,35.6354132 12.161769,35.3656 C12.161769,35.0957868 12.0058274,34.8502826 11.7616,34.7356 L11.7616,32.3956 C12.0058274,32.2809174 12.161769,32.0354132 12.161769,31.7656 C12.161769,31.4957868 12.0058274,31.2502826 11.7616,31.1356 L11.7616,28.7956 C12.0058274,28.6809174 12.161769,28.4354132 12.161769,28.1656 C12.161769,27.8957868 12.0058274,27.6502826 11.7616,27.5356 L11.7616,25.1956 C12.0058274,25.0809174 12.161769,24.8354132 12.161769,24.5656 C12.161769,24.2957868 12.0058274,24.0502826 11.7616,23.9356 L11.7616,21.5956 C12.0058274,21.4809174 12.161769,21.2354132 12.161769,20.9656 C12.161769,20.6957868 12.0058274,20.4502826 11.7616,20.3356 L11.7616,18.064 L14.4236,18.064 C14.086014,18.5702651 13.9057812,19.165103 13.9056,19.7736 L13.9056,46 L11.7616,46 L11.7616,43.1956 Z M15.8724,12.7472 L11.16,9.7872 L11.16,7.776 C11.1594597,7.42877948 10.9037817,7.1347498 10.56,7.086 L10.56,4.3 C10.5634503,4.02529949 10.7852995,3.80345033 11.06,3.8 L20.168,3.8 C20.4427005,3.80345033 20.6645497,4.02529949 20.668,4.3 L20.668,11.4896 C20.3241303,11.5381879 20.0683678,11.8323148 20.068,12.1796 L20.068,14.1924 L17.3248,15.9124 L17.3248,15.372 C17.3297279,14.3041123 16.7797951,13.3102652 15.8724,12.7472 L15.8724,12.7472 Z M11.06,1.4 L20.168,1.4 C21.7688947,1.40176359 23.0662364,2.6991053 23.068,4.3 L23.068,11.4796 L22.068,11.4796 L22.068,4.3 C22.0666777,3.25120717 21.2167928,2.40132229 20.168,2.4 L11.06,2.4 C10.0112072,2.40132229 9.16132229,3.25120717 9.16,4.3 L9.16,7.076 L8.16,7.076 L8.16,4.3 C8.16176359,2.6991053 9.4591053,1.40176359 11.06,1.4 Z M2.1964,13.9328 L7.2324,10.7688 C7.43623334,10.640644 7.55995115,10.4167737 7.56,10.176 L7.56,8.476 L9.76,8.476 L9.76,10.176 C9.75989672,10.4168129 9.8836525,10.640752 10.0876,10.7688 L15.13,13.934 C15.626528,14.2428299 15.9271452,14.7872727 15.9240244,15.372 L15.9240244,16.664 L11.7616,16.664 L11.7616,15 C11.7616,14.6134007 11.4481993,14.3 11.0616,14.3 C10.6750007,14.3 10.3616,14.6134007 10.3616,15 L10.3616,16.664 L6.9616,16.664 L6.9616,15 C6.9616,14.6134007 6.64819932,14.3 6.2616,14.3 C5.87500068,14.3 5.5616,14.6134007 5.5616,15 L5.5616,16.664 L1.39997825,16.664 L1.39997825,15.372 C1.39702857,14.78639 1.69864615,14.2413272 2.1964,13.9328 Z M1.4,18.064 L5.56,18.064 L5.56,20.3356 C5.31577256,20.4502826 5.15983103,20.6957868 5.15983103,20.9656 C5.15983103,21.2354132 5.31577256,21.4809174 5.56,21.5956 L5.56,23.9356 C5.31577256,24.0502826 5.15983103,24.2957868 5.15983103,24.5656 C5.15983103,24.8354132 5.31577256,25.0809174 5.56,25.1956 L5.56,27.5356 C5.31577256,27.6502826 5.15983103,27.8957868 5.15983103,28.1656 C5.15983103,28.4354132 5.31577256,28.6809174 5.56,28.7956 L5.56,31.1356 C5.31577256,31.2502826 5.15983103,31.4957868 5.15983103,31.7656 C5.15983103,32.0354132 5.31577256,32.2809174 5.56,32.3956 L5.56,34.7356 C5.31577256,34.8502826 5.15983103,35.0957868 5.15983103,35.3656 C5.15983103,35.6354132 5.31577256,35.8809174 5.56,35.9956 L5.56,38.3356 C5.31577256,38.4502826 5.15983103,38.6957868 5.15983103,38.9656 C5.15983103,39.2354132 5.31577256,39.4809174 5.56,39.5956 L5.56,41.9356 C5.31577256,42.0502826 5.15983103,42.2957868 5.15983103,42.5656 C5.15983103,42.8354132 5.31577256,43.0809174 5.56,43.1956 L5.56,46 L1.4,46 L1.4,18.064 Z M15.3056,46 L15.3056,22.468 L29.8288,22.468 L29.8288,46 L15.3056,46 Z M33.45,46 L33.45,37.8 L39.65,37.8 L39.65,46 L33.45,46 Z M46,46 L41.05,46 L41.05,37.1 C41.0497793,36.7134921 40.7365079,36.4002207 40.35,36.4 L32.75,36.4 C32.3634921,36.4002207 32.0502207,36.7134921 32.05,37.1 L32.05,46 L31.2288,46 L31.2288,24.3108 L36.5488,21.7416 L46,26.3036 L46,46 Z" id="Shape" fill="#000000" fill-rule="nonzero"></path>
                        <path d="M34.05,28.6732 C34.05,30.0539119 35.1692881,31.1732 36.55,31.1732 C37.9307119,31.1732 39.05,30.0539119 39.05,28.6732 C39.05,27.2924881 37.9307119,26.1732 36.55,26.1732 C35.1699278,26.1747431 34.0515431,27.2931278 34.05,28.6732 L34.05,28.6732 Z M36.55,27.5732 C37.1575132,27.5732 37.65,28.0656868 37.65,28.6732 C37.65,29.2807132 37.1575132,29.7732 36.55,29.7732 C35.9424868,29.7732 35.45,29.2807132 35.45,28.6732 C35.4504412,28.0658696 35.9426696,27.5736412 36.55,27.5732 L36.55,27.5732 Z" id="Shape" fill="#000000" fill-rule="nonzero"></path>
                        <path d="M28.1288,35.0668 C27.7422007,35.0668 27.4288,35.3802007 27.4288,35.7668 L27.4288,38.5 C27.4288,38.8865993 27.7422007,39.2 28.1288,39.2 C28.5153993,39.2 28.8288,38.8865993 28.8288,38.5 L28.8288,35.7668 C28.8285793,35.3802921 28.5153079,35.0670207 28.1288,35.0668 L28.1288,35.0668 Z" id="Path" fill="#000000" fill-rule="nonzero"></path>
                    </g>
                </g>
            </g>
        </g>
    </g>
</svg>