<svg xmlns="http://www.w3.org/2000/svg" xmlns:xlink="http://www.w3.org/1999/xlink" width="20" height="17" viewBox="0 0 20 17">
    <defs>
        <path id="prefix__b" d="M0 0.223L19.214 0.223 19.214 5.268 0 5.268z"/>
        <path id="prefix__d" d="M0 0.388L19.214 0.388 19.214 5.44 0 5.44z"/>
        <filter id="prefix__a">
            <feColorMatrix in="SourceGraphic" values="0 0 0 0 0.000000 0 0 0 0 0.407843 0 0 0 0 0.819608 0 0 0 1.000000 0"/>
        </filter>
    </defs>
    <g fill="none" fill-rule="evenodd" filter="url(#prefix__a)" transform="translate(-260 -248)">
        <g>
            <g transform="translate(260 248) translate(0 .177)">
                <mask id="prefix__c" fill="#fff">
                    <use xlink:href="#prefix__b"/>
                </mask>
                <path fill="#000" d="M6.4 2.785c.024-.7-.527-1.293-1.227-1.319-.704-.025-1.296.518-1.327 1.219-.03.704.512 1.306 1.206 1.338.723.033 1.324-.519 1.349-1.238m-3.773.6c-.605 0-1.192.002-1.779 0C.305 3.383.008 3.161 0 2.757c-.008-.42.295-.65.866-.653.493-.002.987-.006 1.481.004.194.003.303-.041.388-.244C3.173.812 3.975.225 5.115.223 6.272.22 7.086.813 7.517 1.887c.101.251.264.216.443.216 2.682.002 5.364.001 8.046.001l2.362-.001c.541 0 .84.225.846.632.007.408-.294.65-.828.65-3.456.002-6.912.006-10.368-.004-.289-.001-.434.062-.559.35-.435 1.004-1.241 1.53-2.324 1.537-1.086.007-1.873-.533-2.351-1.51-.052-.108-.093-.22-.156-.373" mask="url(#prefix__c)"/>
            </g>
            <g transform="translate(260 248) translate(0 5.777)">
                <mask id="prefix__e" fill="#fff">
                    <use xlink:href="#prefix__d"/>
                </mask>
                <path fill="#000" d="M12.787 4.191c.722.008 1.307-.57 1.303-1.288-.003-.7-.572-1.268-1.278-1.272-.697-.005-1.276.568-1.282 1.267-.005.701.563 1.286 1.257 1.293m-7.401-.64c-1.562 0-3.123.004-4.684-.002-.43-.002-.712-.28-.702-.654.01-.358.285-.606.694-.624.08-.003.16 0 .24 0 2.99 0 5.978-.006 8.968.007.311.001.452-.087.584-.379.45-.994 1.256-1.52 2.342-1.511 1.084.008 1.888.54 2.322 1.541.127.293.274.352.561.346.907-.017 1.815-.008 2.722-.004.493.003.792.258.781.657-.01.382-.3.62-.774.622-.948.004-1.895.008-2.843-.002-.215-.003-.32.05-.409.267-.417 1.024-1.342 1.656-2.394 1.624-1.121-.034-1.924-.584-2.357-1.62-.1-.24-.231-.271-.448-.27-1.535.005-3.069.002-4.603.002" mask="url(#prefix__e)"/>
            </g>
            <path fill="#000" d="M3.845 14.449c-.004.703.556 1.273 1.263 1.284.697.011 1.287-.56 1.295-1.254.008-.724-.563-1.303-1.286-1.303-.7 0-1.268.567-1.272 1.273zm9.369.645c-1.748 0-3.496.006-5.244-.005-.263-.002-.383.074-.495.326-.447 1.01-1.247 1.563-2.352 1.562-1.103-.001-1.905-.55-2.351-1.562-.11-.25-.228-.338-.496-.327-.52.022-1.04.013-1.561.004-.437-.006-.716-.266-.715-.64.002-.376.282-.63.72-.636.547-.008 1.095-.012 1.641 0 .201.004.296-.055.377-.254.42-1.026 1.334-1.662 2.387-1.636 1.12.028 1.928.567 2.366 1.605.096.227.207.286.437.286 3.376-.007 6.752-.005 10.128-.005.16 0 .32-.004.48.004.407.018.677.276.678.637 0 .36-.27.633-.676.639-.774.011-1.548.004-2.322.005h-3.002v-.003z" transform="translate(260 248)"/>
        </g>
    </g>
</svg>
