<?xml version="1.0" encoding="UTF-8"?>
<svg width="25px" height="25px" viewBox="0 0 25 25" version="1.1" xmlns="http://www.w3.org/2000/svg" xmlns:xlink="http://www.w3.org/1999/xlink">
    <title>57D52A8E-37F6-4E6D-A429-F4A5979A6698</title>
    <defs>
        <filter id="filter-1">
            <feColorMatrix in="SourceGraphic" type="matrix" values="0 0 0 0 0.470588 0 0 0 0 0.737255 0 0 0 0 0.937255 0 0 0 1.000000 0"></feColorMatrix>
        </filter>
    </defs>
    <g id="Nota-de-peso-/-lotes-2" stroke="none" stroke-width="1" fill="none" fill-rule="evenodd">
        <g id="nota-de-recepcion-peso" transform="translate(-246.000000, -545.000000)">
            <g id="element/ticket-peso" transform="translate(236.000000, 530.000000)">
                <g id="document-(1)" transform="translate(10.000000, 15.000000)" filter="url(#filter-1)">
                    <g transform="translate(4.000000, 3.000000)">
                        <path d="M16.9632144,0 L2.95488,0 C2.5476768,0 2.2175856,0.3300912 2.2175856,0.7372944 L2.2175856,2.9491344 L0.74304,2.9491344 C0.3358368,2.9491344 0.0057456,3.2792256 0.0057456,3.6864288 L0.0057456,19.90656 C0.0057456,20.3137632 0.3358368,20.6438544 0.74304,20.6438544 L14.01408,20.6438544 C14.4212832,20.6438544 14.7513744,20.3137632 14.7513744,19.90656 L14.7513744,19.1692656 L16.9632144,19.1692656 C17.3704176,19.1692656 17.7005088,18.8391744 17.7005088,18.4319712 L17.7005088,0.7372512 C17.7005088,0.3300912 17.3703744,0 16.9632144,0 Z M13.2768288,19.1692656 L1.4803344,19.1692656 L1.4803344,4.42368 L9.5904,4.42368 L9.5904,7.3728144 C9.5904,7.7800176 9.9204912,8.1101088 10.3276944,8.1101088 L13.2768288,8.1101088 L13.2768288,19.1692656 L13.2768288,19.1692656 Z M11.0649456,6.63552 L11.0649456,5.4661824 L12.2342832,6.63552 L11.0649456,6.63552 Z M16.22592,17.69472 L14.7513744,17.69472 L14.7513744,7.3728144 C14.7503808,7.1771184 14.6725344,6.9896736 14.5345968,6.8508288 L10.8482112,3.1644 C10.709496,3.0273696 10.522656,2.950128 10.3276944,2.9491344 L3.6921744,2.9491344 L3.6921744,1.4745456 L16.22592,1.4745456 L16.22592,17.69472 Z" id="Shape" fill="#000000" fill-rule="nonzero"></path>
                        <path d="M11.0649456,9.5846544 L3.6921744,9.5846544 C3.2849712,9.5846544 2.95488,9.9147456 2.95488,10.3219488 C2.95488,10.729152 3.2849712,11.0592 3.6921744,11.0592 L11.0649888,11.0592 C11.472192,11.0592 11.8022832,10.7291088 11.8022832,10.3219056 C11.8022832,9.9147024 11.4721488,9.5846544 11.0649456,9.5846544 Z" id="Path" fill="#000000" fill-rule="nonzero"></path>
                        <path d="M11.0649456,12.5337456 L3.6921744,12.5337456 C3.2849712,12.5337456 2.95488,12.8638368 2.95488,13.27104 C2.95488,13.6782432 3.2849712,14.0083344 3.6921744,14.0083344 L11.0649888,14.0083344 C11.472192,14.0083344 11.8022832,13.6782432 11.8022832,13.27104 C11.8022832,12.8638368 11.4721488,12.5337456 11.0649456,12.5337456 Z" id="Path" fill="#000000" fill-rule="nonzero"></path>
                        <path d="M11.0649456,15.48288 L3.6921744,15.48288 C3.2849712,15.48288 2.95488,15.8129712 2.95488,16.2201744 C2.95488,16.6273776 3.2849712,16.9574688 3.6921744,16.9574688 L11.0649888,16.9574688 C11.472192,16.9574688 11.8022832,16.6273776 11.8022832,16.2201744 C11.8022832,15.8129712 11.4721488,15.48288 11.0649456,15.48288 Z" id="Path" fill="#000000" fill-rule="nonzero"></path>
                    </g>
                </g>
            </g>
        </g>
    </g>
</svg>