<?xml version="1.0" encoding="UTF-8"?>
<svg width="55px" height="55px" viewBox="0 0 55 55" version="1.1" xmlns="http://www.w3.org/2000/svg" xmlns:xlink="http://www.w3.org/1999/xlink">
    <title>CC8ACD14-2D71-4458-88D8-26F5E77E5ABF</title>
    <defs>
        <filter id="filter-1">
            <feColorMatrix in="SourceGraphic" type="matrix" values="0 0 0 0 0.180392 0 0 0 0 0.356863 0 0 0 0 1.000000 0 0 0 1.000000 0"></feColorMatrix>
        </filter>
    </defs>
    <g id="Receiving-ticket-2" stroke="none" stroke-width="1" fill="none" fill-rule="evenodd">
        <g id="receiving-ticket_detail_parcela-empty" transform="translate(-1041.000000, -684.000000)">
            <g id="Group" transform="translate(780.000000, 594.000000)">
                <g id="Group-12" transform="translate(261.000000, 90.000000)" filter="url(#filter-1)">
                    <g transform="translate(0.000000, 1.000000)">
                        <g id="Group-3" transform="translate(25.000000, 41.500000)" fill="#000000">
                            <path d="M26.2888364,0.6972 C17.0139273,0.6972 7.91247273,4.1832 1.31792727,10.2612 C0.882654545,10.6632 0.885927273,11.3082 1.3212,11.7042 C1.5372,11.8992 1.81865455,12.0012 2.10338182,12.0012 C2.38810909,12.0012 2.67283636,11.8992 2.89210909,11.7012 C9.07429091,6.0012 17.6030182,2.7342 26.2888364,2.7342 C26.9008364,2.7342 27.4015636,2.2752 27.4015636,1.7142 C27.4015636,1.1532 26.9008364,0.6972 26.2888364,0.6972" id="Fill-1"></path>
                        </g>
                        <path d="M29.8301243,41.9408267 C29.5197208,41.4829208 28.8959576,41.3617974 28.4377429,41.6719917 C24.1482622,44.5671386 20.5268881,48.1890265 17.6711759,52.4401657 C17.3607724,52.8980716 17.4849338,53.5214145 17.9431485,53.8286546 C18.1146095,53.9438696 18.3097202,54 18.5018748,54 C18.8241032,54 19.1433754,53.8434257 19.3355299,53.5568653 C22.0463871,49.5213849 25.4844754,46.0826594 29.5581517,43.3322698 C30.0163664,43.0220755 30.1375716,42.3987326 29.8301243,41.9408267" id="Fill-4" fill="#000000"></path>
                        <g id="Group-8" transform="translate(38.500000, 35.000000)" fill="#000000">
                            <path d="M14.0981,0.503 C9.5471,0.503 5.0411,1.28 0.7121,2.816 C0.1811,3.002 -0.0949,3.581 0.0911,4.112 C0.2381,4.532 0.6311,4.793 1.0481,4.793 C1.1621,4.793 1.2791,4.772 1.3901,4.733 C5.5031,3.278 9.7811,2.54 14.0981,2.54 C14.6591,2.54 15.1181,2.081 15.1181,1.52 C15.1181,0.959 14.6591,0.503 14.0981,0.503" id="Fill-6"></path>
                        </g>
                        <g id="Group-11" fill="#000000">
                            <path d="M6.5142,12.0812 C5.9532,12.0812 5.4972,12.5372 5.4972,13.0982 L5.4972,19.8722 C4.0182,18.1172 3.2232,16.0592 3.2232,13.9112 C3.2232,11.3162 4.3872,8.8502 6.5142,6.8912 C8.6412,8.8502 9.8052,11.3162 9.8052,13.9112 C9.8052,16.0592 9.0102,18.1172 7.5312,19.8722 L7.5312,13.0982 C7.5312,12.5372 7.0752,12.0812 6.5142,12.0812 M23.3322,23.1752 C23.3322,21.0242 24.2952,18.9812 26.0592,17.3582 C27.8232,18.9812 28.7832,21.0242 28.7832,23.1752 C28.7832,24.9542 28.1262,26.6552 26.9022,28.1102 L26.9022,22.5002 C26.9022,22.0352 26.5242,21.6572 26.0592,21.6572 C25.5912,21.6572 25.2132,22.0352 25.2132,22.5002 L25.2132,28.1102 C23.9922,26.6552 23.3322,24.9542 23.3322,23.1752 M36.7902,12.9632 C36.7902,9.3452 38.4462,5.9192 41.4672,3.2342 C44.4942,5.9192 46.1502,9.3452 46.1502,12.9632 C46.1502,16.1522 44.8632,19.1942 42.4872,21.7082 L42.4872,13.9112 C42.4872,13.3502 42.0312,12.8942 41.4672,12.8942 C40.9062,12.8942 40.4532,13.3502 40.4532,13.9112 L40.4532,21.7082 C38.0772,19.1942 36.7902,16.1522 36.7902,12.9632 M41.6712,28.9502 L41.6772,28.9502 C44.7492,28.2962 47.9082,27.9572 51.0972,27.9572 C51.6612,27.9572 52.1172,27.5012 52.1172,26.9372 C52.1172,26.3762 51.6612,25.9202 51.0972,25.9202 C48.2022,25.9202 45.3222,26.1842 42.4872,26.7032 L42.4872,24.5072 C46.1652,21.3932 48.1872,17.3102 48.1872,12.9632 C48.1872,8.4692 46.0272,4.2602 42.1062,1.1072 C41.7342,0.8102 41.2032,0.8102 40.8282,1.1072 C36.9102,4.2602 34.7532,8.4692 34.7532,12.9632 C34.7532,17.3102 36.7722,21.3932 40.4532,24.5072 L40.4532,27.1202 C38.5182,27.5612 36.6102,28.1222 34.7442,28.7972 C34.3542,28.9352 32.7072,29.5862 32.7072,29.5862 C30.9642,30.3092 29.2602,31.1342 27.6102,32.0612 C27.3732,32.1932 27.1362,32.3312 26.9022,32.4692 L26.9022,30.4982 C29.2032,28.5152 30.4692,25.9292 30.4692,23.1752 C30.4692,20.2982 29.0892,17.6042 26.5872,15.5912 C26.2782,15.3422 25.8372,15.3422 25.5282,15.5912 C23.0262,17.6042 21.6462,20.2982 21.6462,23.1752 C21.6462,25.9292 22.9092,28.5152 25.2132,30.4982 L25.2132,32.4872 C24.5202,32.0792 23.8182,31.6922 23.1072,31.3232 C23.1072,31.3232 15.1332,27.6152 9.6702,26.7242 C8.9592,26.5922 8.2482,26.4782 7.5312,26.3822 L7.5312,22.7522 C10.3152,20.3582 11.8392,17.2382 11.8392,13.9112 C11.8392,10.4402 10.1772,7.1882 7.1532,4.7552 C6.7782,4.4552 6.2502,4.4552 5.8782,4.7552 C2.8542,7.1882 1.1892,10.4402 1.1892,13.9112 C1.1892,17.2382 2.7132,20.3582 5.4972,22.7522 L5.4972,26.1452 C4.0122,26.0102 2.5182,25.9382 1.0182,25.9382 C0.4542,25.9382 0.0012,26.3942 0.0012,26.9552 C0.0012,27.5162 0.4542,27.9722 1.0182,27.9722 C9.1572,27.9722 17.1192,30.1262 24.1362,34.2122 C22.4532,35.3552 20.8482,36.6032 19.3272,37.9472 C13.6422,35.0492 7.3242,33.5192 1.0182,33.5192 C0.4542,33.5192 0.0012,33.9752 0.0012,34.5362 C0.0012,35.1002 0.4542,35.5562 1.0182,35.5562 C6.7572,35.5562 12.5052,36.8912 17.7282,39.4232 C16.1802,40.9202 14.7342,42.5222 13.3992,44.2172 C9.4422,42.5552 5.2782,41.7152 1.0182,41.7152 C0.4542,41.7152 0.0012,42.1682 0.0012,42.7322 C0.0012,43.2932 0.4542,43.7522 1.0182,43.7522 C4.8342,43.7522 8.5662,44.4752 12.1332,45.8972 C11.4282,46.8782 10.7622,47.8802 10.1322,48.9092 L8.5812,51.4532 C8.2872,51.9302 8.4402,52.5572 8.9202,52.8512 C9.0852,52.9532 9.2682,53.0012 9.4482,53.0012 C9.7902,53.0012 10.1262,52.8272 10.3182,52.5122 L11.8692,49.9712 C12.6792,48.6452 13.5522,47.3702 14.4822,46.1462 C14.5182,46.1072 14.5542,46.0622 14.5842,46.0172 C21.2802,37.2842 30.9732,31.2212 41.6712,28.9502" id="Fill-9"></path>
                        </g>
                    </g>
                </g>
            </g>
        </g>
    </g>
</svg>