<svg xmlns="http://www.w3.org/2000/svg" id="icon_kanban" width="21.049" height="20.136" viewBox="0 0 21.049 20.136">
    <defs>
        <style>
            .cls-1{fill:#ffffff}
        </style>
    </defs>
    <g id="process" transform="translate(-10.152 -207.794)">
        <path id="Path_3773" d="M29.679 223.245H27.1a.115.115 0 0 1-.115-.115v-2.374a.111.111 0 0 1 .053-.1L31 218.194a.115.115 0 0 0 .043-.157.111.111 0 0 0-.043-.043l-3.952-2.471a.111.111 0 0 1-.055-.1v-2.838a.117.117 0 0 1 .115-.116h2.58a.115.115 0 0 0 .116-.114v-3.517a.116.116 0 0 0-.115-.115h-6.337a.115.115 0 0 0-.116.114v1.174a.115.115 0 0 1-.114.116h-3.981a.115.115 0 0 0-.115.115v.706a.114.114 0 0 0 .114.116h4a.1.1 0 0 1 .1.1v1.189a.114.114 0 0 0 .115.115h2.582a.118.118 0 0 1 .115.116v2.841a.113.113 0 0 1-.055.1l-3.952 2.468a.115.115 0 0 0-.046.155.117.117 0 0 0 .046.045L26 220.665a.113.113 0 0 1 .055.1v2.488h-2.7a1.522 1.522 0 0 0-1.522 1.52v1.644a1.522 1.522 0 0 0 1.522 1.513h6.327a1.521 1.521 0 0 0 1.522-1.52v-1.644a1.522 1.522 0 0 0-1.525-1.521z" class="cls-1"/>
        <path id="Path_3774" d="M19.081 223.572a.27.27 0 0 0-.381 0l-.267.269a.29.29 0 0 0 0 .409l.869.869H15.19a1.406 1.406 0 0 0-.851-.851v-9.66a.264.264 0 0 0-.263-.265h-.411a.262.262 0 0 0-.262.262v9.663a1.4 1.4 0 1 0 1.787 1.789h4.11l-.882.882a.27.27 0 0 0 0 .381l.272.273a.282.282 0 0 0 .4 0l1.76-1.761a.35.35 0 0 0 0-.494z" class="cls-1"/>
        <path id="Path_3775" d="M14.166 213.3l3.212-2.293a.51.51 0 0 0 .118-.71.528.528 0 0 0-.118-.118l-3.212-2.294a.5.5 0 0 0-.3-.094.509.509 0 0 0-.3.094l-3.21 2.294a.505.505 0 0 0-.213.384v.06a.505.505 0 0 0 .213.384l3.21 2.293a.509.509 0 0 0 .6 0z" class="cls-1"/>
    </g>
</svg>
