<svg xmlns="http://www.w3.org/2000/svg" xmlns:xlink="http://www.w3.org/1999/xlink" width="19" height="17" viewBox="0 0 19 17">
    <defs>
        <path id="prefix__b" d="M0 0.546L4.018 0.546 4.018 4.564 0 4.564z"/>
        <path id="prefix__d" d="M0.624 0.546L4.642 0.546 4.642 4.564 0.624 4.564z"/>
        <path id="prefix__f" d="M0.528 0.546L4.546 0.546 4.546 4.564 0.528 4.564z"/>
        <filter id="prefix__a">
            <feColorMatrix in="SourceGraphic" values="0 0 0 0 0.000000 0 0 0 0 0.407843 0 0 0 0 1.000000 0 0 0 1.000000 0"/>
        </filter>
    </defs>
    <g fill="none" fill-rule="evenodd" filter="url(#prefix__a)" transform="translate(-7 -8)">
        <g>
            <g transform="translate(7 8) translate(0 .174)">
                <mask id="prefix__c" fill="#fff">
                    <use xlink:href="#prefix__b"/>
                </mask>
                <path fill="#000" d="M2.009.546C.899.546 0 1.446 0 2.556 0 3.664.9 4.563 2.01 4.563c1.11 0 2.009-.9 2.009-2.009 0-1.11-.9-2.009-2.01-2.009" mask="url(#prefix__c)"/>
            </g>
            <g transform="translate(7 8) translate(6.48 .174)">
                <mask id="prefix__e" fill="#fff">
                    <use xlink:href="#prefix__d"/>
                </mask>
                <path fill="#000" d="M2.633.546c-1.11 0-2.009.9-2.009 2.01 0 1.109.9 2.008 2.009 2.008 1.11 0 2.009-.9 2.009-2.009 0-1.11-.9-2.009-2.01-2.009" mask="url(#prefix__e)"/>
            </g>
            <g transform="translate(7 8) translate(13.68 .174)">
                <mask id="prefix__g" fill="#fff">
                    <use xlink:href="#prefix__f"/>
                </mask>
                <path fill="#000" d="M2.537 4.564c1.11 0 2.01-.9 2.01-2.009 0-1.11-.9-2.009-2.01-2.009-1.11 0-2.009.9-2.009 2.01 0 1.108.9 2.008 2.01 2.008" mask="url(#prefix__g)"/>
            </g>
            <path fill="#000" d="M2.009 6.718C.899 6.718 0 7.618 0 8.727c0 1.11.9 2.009 2.009 2.009 1.11 0 2.009-.9 2.009-2.01 0-1.109-.9-2.008-2.01-2.008M9.113 6.718c-1.11 0-2.009.9-2.009 2.009 0 1.11.9 2.009 2.009 2.009 1.11 0 2.009-.9 2.009-2.01 0-1.109-.9-2.008-2.01-2.008M16.217 6.718c-1.11 0-2.009.9-2.009 2.009 0 1.11.9 2.009 2.01 2.009 1.109 0 2.008-.9 2.008-2.01 0-1.109-.9-2.008-2.009-2.008M2.009 12.716c-1.11 0-2.009.9-2.009 2.009 0 1.11.9 2.009 2.009 2.009 1.11 0 2.009-.9 2.009-2.01 0-1.109-.9-2.008-2.01-2.008M9.113 12.716c-1.11 0-2.009.9-2.009 2.009 0 1.11.9 2.009 2.009 2.009 1.11 0 2.009-.9 2.009-2.01 0-1.109-.9-2.008-2.01-2.008M16.217 12.716c-1.11 0-2.009.9-2.009 2.009 0 1.11.9 2.009 2.01 2.009 1.109 0 2.008-.9 2.008-2.01 0-1.109-.9-2.008-2.009-2.008" transform="translate(7 8)"/>
        </g>
    </g>
</svg>
