<?xml version="1.0" encoding="UTF-8"?>
<svg width="16px" height="16px" viewBox="0 0 16 16" version="1.1" xmlns="http://www.w3.org/2000/svg" xmlns:xlink="http://www.w3.org/1999/xlink">
    <!-- Generator: Sketch 61 (89581) - https://sketch.com -->
    <title>Icon/link</title>
    <desc>Created with Sketch.</desc>
    <g id="Icon/link" stroke="none" stroke-width="1" fill="none" fill-rule="evenodd">
        <g id="link" transform="translate(0.000000, 4.000000)" fill="#69707F">
            <path d="M1.52,4 C1.52,2.632 2.632,1.52 4,1.52 L7.2,1.52 L7.2,0 L4,0 C1.790861,0 7.10542736e-16,1.790861 7.10542736e-16,4 C7.10542736e-16,6.209139 1.790861,8 4,8 L7.2,8 L7.2,6.48 L4,6.48 C2.632,6.48 1.52,5.368 1.52,4 M4.8,4.8 L11.2,4.8 L11.2,3.2 L4.8,3.2 L4.8,4.8 M12,0 L8.8,0 L8.8,1.52 L12,1.52 C13.368,1.52 14.48,2.632 14.48,4 C14.48,5.368 13.368,6.48 12,6.48 L8.8,6.48 L8.8,8 L12,8 C14.209139,8 16,6.209139 16,4 C16,1.790861 14.209139,0 12,0 Z" id="Shape"></path>
        </g>
    </g>
</svg>