<svg xmlns="http://www.w3.org/2000/svg" width="28" height="18" viewBox="0 0 28 18">
    <defs>
        <filter id="prefix__a">
            <feColorMatrix in="SourceGraphic" values="0 0 0 0 0.470588 0 0 0 0 0.737255 0 0 0 0 0.937255 0 0 0 1.000000 0"/>
        </filter>
    </defs>
    <g fill="none" fill-rule="evenodd" filter="url(#prefix__a)" transform="translate(-4 -8)">
        <g fill="#000" fill-rule="nonzero">
            <path d="M26.04 7.512l-.725-2.9c.198-.042.347-.218.347-.429v-.468c0-1.015-.826-1.841-1.842-1.841h-3.302V.909c0-.5-.407-.906-.906-.906H2.777c-.5 0-.906.407-.906.906v7.95c0 .242.196.439.438.439s.438-.196.438-.439V.91c0-.016.013-.029.03-.029h16.835c.016 0 .029.013.029.03v7.95c0 .242.196.438.438.438s.439-.196.439-.439v-.497h5.173c.637.001 1.178.419 1.363.994h-1.363c-.242 0-.438.197-.438.439v.935c0 .757.616 1.374 1.373 1.374h.497v1.929h-1.146c-.377-1.088-1.41-1.87-2.624-1.87-1.214 0-2.248.782-2.624 1.87h-.211V10.73c0-.242-.197-.439-.439-.439s-.438.197-.438.439v3.303h-9.096c-.377-1.088-1.41-1.871-2.624-1.871-1.214 0-2.248.783-2.624 1.87h-2.52c-.017 0-.03-.013-.03-.029v-.964h1.9c.242 0 .439-.196.439-.439 0-.242-.197-.438-.439-.438H.438c-.242 0-.438.196-.438.438 0 .243.196.439.438.439h1.433v.964c0 .5.406.906.906.906h2.368v.03c0 1.53 1.245 2.776 2.776 2.776 1.53 0 2.776-1.245 2.776-2.776v-.03h9.88v.03c0 1.53 1.245 2.776 2.776 2.776 1.53 0 2.776-1.245 2.776-2.776v-.03h1.433c.242 0 .438-.196.438-.438V9.795c0-1.155-.852-2.114-1.96-2.283zm-5.522-4.761h3.302c.532 0 .965.433.965.964v.03h-4.267V2.75zm0 4.735V4.62h3.895l.717 2.865h-4.612zM7.92 16.838c-1.048 0-1.9-.852-1.9-1.9 0-1.047.852-1.9 1.9-1.9 1.047 0 1.9.853 1.9 1.9 0 1.048-.853 1.9-1.9 1.9zm15.432 0c-1.048 0-1.9-.852-1.9-1.9 0-1.047.852-1.9 1.9-1.9 1.047 0 1.9.853 1.9 1.9 0 1.048-.853 1.9-1.9 1.9zm3.77-5.611h-.497c-.274 0-.497-.223-.497-.497v-.497h.994v.994z" transform="translate(4 8)"/>
            <path d="M7.92 14.033c-.499 0-.905.406-.905.906s.406.906.906.906.906-.407.906-.906c0-.5-.407-.906-.906-.906zM23.353 14.033c-.5 0-.906.406-.906.906s.406.906.906.906.906-.407.906-.906c0-.5-.407-.906-.906-.906zM18.209 12.162h-6.547c-.242 0-.439.196-.439.439 0 .242.197.438.439.438h6.547c.242 0 .438-.196.438-.438 0-.243-.196-.439-.438-.439zM6.985 10.292H1.374c-.242 0-.439.196-.439.438s.197.438.439.438h5.611c.242 0 .439-.196.439-.438s-.197-.438-.439-.438z" transform="translate(4 8)"/>
        </g>
    </g>
</svg>
