<svg xmlns="http://www.w3.org/2000/svg" width="20" height="20" viewBox="0 0 20 20">
    <g fill="none">
        <path d="M0 0H20V20H0z"/>
        <path fill="#8798ad" d="M9.5 5.6c1.085 0 1.964.895 1.964 2 0 .53-.207 1.04-.575 1.414-.368.375-.868.586-1.389.586-1.085 0-1.964-.895-1.964-2 0-.53.207-1.04.575-1.414.368-.375.868-.586 1.389-.586m0-3.6C12.538 2 15 4.507 15 7.6 15 11.8 9.5 18 9.5 18S4 11.8 4 7.6C4 4.507 6.462 2 9.5 2m0 1.6c-2.17 0-3.929 1.79-3.929 4 0 .8 0 2.4 3.929 7.768C13.429 10 13.429 8.4 13.429 7.6c0-2.21-1.76-4-3.929-4z"/>
    </g>
</svg>
