<svg xmlns="http://www.w3.org/2000/svg" width="18" height="17" viewBox="0 0 18 17">
    <defs>
        <filter id="prefix__a">
            <feColorMatrix in="SourceGraphic" values="0 0 0 0 1.000000 0 0 0 0 1.000000 0 0 0 0 1.000000 0 0 0 1.000000 0"/>
        </filter>
    </defs>
    <g fill="none" fill-rule="evenodd" filter="url(#prefix__a)" transform="translate(-1240 -179)">
        <g fill="#000" fill-rule="nonzero">
            <path d="M9.877.128C9.75.023 9.58-.02 9.417.01L.457 1.69C.192 1.739 0 1.97 0 2.24v12.32c0 .268.192.5.457.55l8.96 1.68c.034.006.07.01.103.01.129 0 .256-.045.357-.13.13-.106.203-.265.203-.43V.56c0-.167-.074-.325-.203-.432zM8.96 15.564l-7.84-1.47V2.705l7.84-1.469v14.33z" transform="translate(1240 179)"/>
            <path d="M17.36 2.24H9.52c-.31 0-.56.25-.56.56 0 .309.25.56.56.56h7.28v10.08H9.52c-.31 0-.56.25-.56.56 0 .309.25.56.56.56h7.84c.31 0 .56-.251.56-.56V2.8c0-.31-.25-.56-.56-.56z" transform="translate(1240 179)"/>
            <path d="M11.76 4.48H9.52c-.31 0-.56.25-.56.56 0 .309.25.56.56.56h2.24c.31 0 .56-.251.56-.56 0-.31-.25-.56-.56-.56zM11.76 6.72H9.52c-.31 0-.56.25-.56.56 0 .309.25.56.56.56h2.24c.31 0 .56-.251.56-.56 0-.31-.25-.56-.56-.56zM11.76 8.96H9.52c-.31 0-.56.25-.56.56 0 .309.25.56.56.56h2.24c.31 0 .56-.251.56-.56 0-.31-.25-.56-.56-.56zM11.76 11.2H9.52c-.31 0-.56.25-.56.56 0 .309.25.56.56.56h2.24c.31 0 .56-.251.56-.56 0-.31-.25-.56-.56-.56zM15.12 4.48H14c-.31 0-.56.25-.56.56 0 .309.25.56.56.56h1.12c.31 0 .56-.251.56-.56 0-.31-.25-.56-.56-.56zM15.12 6.72H14c-.31 0-.56.25-.56.56 0 .309.25.56.56.56h1.12c.31 0 .56-.251.56-.56 0-.31-.25-.56-.56-.56zM15.12 8.96H14c-.31 0-.56.25-.56.56 0 .309.25.56.56.56h1.12c.31 0 .56-.251.56-.56 0-.31-.25-.56-.56-.56zM15.12 11.2H14c-.31 0-.56.25-.56.56 0 .309.25.56.56.56h1.12c.31 0 .56-.251.56-.56 0-.31-.25-.56-.56-.56zM7.702 10.271l-3.92-4.48c-.206-.234-.559-.256-.79-.052-.233.203-.257.557-.053.79l3.92 4.48c.11.126.265.19.421.19.131 0 .262-.045.37-.138.233-.204.256-.557.052-.79z" transform="translate(1240 179)"/>
            <path d="M7.624 5.158c-.244-.191-.596-.145-.786.098l-3.92 5.04c-.19.244-.146.597.098.786.103.08.224.118.344.118.166 0 .332-.074.441-.215l3.92-5.04c.19-.246.147-.597-.097-.787z" transform="translate(1240 179)"/>
        </g>
    </g>
</svg>
