<svg xmlns="http://www.w3.org/2000/svg" width="21" height="14" viewBox="0 0 21 14">
    <g fill="none">
        <path fill="#73AF00" d="M1.534.01C.687.01 0 .699 0 1.546v10.35c0 .847.687 1.534 1.534 1.534h5.293V.01H1.534z"/>
        <path fill="#F5F5F5" d="M6.827 0.011H13.654V13.428999999999998H6.827z"/>
        <path fill="#FF4B55" d="M18.946.01h-5.293V13.43h5.293c.847 0 1.534-.687 1.534-1.534V1.545c0-.847-.687-1.534-1.534-1.534z"/>
        <path fill="#FFD250" d="M10.849 7.036L10.24 7.34 10.24 7.645 10.545 7.645z"/>
        <g fill="#00C3A0">
            <path d="M1.68 1.526c-.084 0-.152-.068-.152-.152v-.61c0-.083.068-.151.152-.151.084 0 .152.068.152.152v.609c0 .084-.068.152-.152.152z" transform="translate(8.56 6.88)"/>
            <path d="M1.68.917C1.082.917.504.687.054.267-.008.21-.011.114.046.052.104-.009.2-.013.261.044c.394.367.898.569 1.42.569.52 0 1.024-.202 1.418-.569.061-.057.158-.054.215.008.057.062.054.158-.008.215-.45.42-1.028.65-1.626.65z" transform="translate(8.56 6.88)"/>
        </g>
        <path fill="#00AADC" d="M10.24 8.406c-.39 0-.768-.114-1.093-.33l.168-.254c.55.366 1.3.366 1.85 0l.168.254c-.325.216-.703.33-1.093.33z"/>
        <path fill="#732D37" d="M9.999 6.351L9.663 6.871 9.606 7.042 10.481 6.839z"/>
        <path fill="#AAD264" d="M9.308 7.21c-.402 0-.885-.34-1.014-1.094l.3-.05c.107.627.493.84.725.839.071-.002.145-.027.151-.077.007-.06.009-.074-.15-.128-.087-.03-.185-.063-.254-.141-.279-.318.099-.655.28-.817.032-.028.045-.053.042-.062-.01-.026-.07-.065-.138-.065-.193 0-.34-.11-.382-.285-.045-.182.039-.374.198-.456l.14.27c-.037.02-.052.075-.042.114.003.016.012.052.087.052.186 0 .363.11.421.262.025.064.062.232-.123.397-.2.179-.32.313-.254.39.015.016.08.038.122.052.137.047.392.133.356.452-.023.2-.202.34-.445.346h-.02z"/>
        <path fill="#874150" d="M10.545 5.513s.304-.609-.305-.913c0 0 2.132-.305 1.827 2.436-.2-.16-.497-.452-.603-.685l-.92-.533v-.305z"/>
        <path fill="#732D37" d="M10.24 6.122l1.523.914-.61.304-.913-.913v-.305z"/>
        <path fill="#783C46" d="M9.631 5.209c.168 0 .305.136.305.304-.182.182-.227.46-.113.69l.07.137c.028.058.066.11.111.155l.845.845v-.42c0-.525-.122-1.042-.356-1.51-.155-.31-.472-.506-.818-.506h-.044v.305z"/>
        <path fill="#FFD250" d="M9.631 4.904l-.305.305v.304s.363-.183.485-.242c.085-.04.07-.138.02-.184-.037-.036-.2-.183-.2-.183z"/>
        <path fill="#AAD264" d="M10.24 9.015c-1.427 0-2.588-1.161-2.588-2.588h.304c0 1.26 1.025 2.284 2.284 2.284 1.26 0 2.284-1.025 2.284-2.284h.304c0 1.427-1.16 2.588-2.588 2.588z"/>
        <g fill="#FFE15A" transform="translate(7.76 7.12)">
            <circle cx=".213" cy=".21" r="1"/>
            <circle cx=".67" cy=".94" r="1"/>
            <circle cx="1.412" cy="1.491" r="1"/>
            <circle cx="4.769" cy=".21" r="1"/>
            <circle cx="4.312" cy=".94" r="1"/>
            <circle cx="3.57" cy="1.491" r="1"/>
        </g>
        <path fill="#FFB478" d="M10.392 8.558h-.304c-.168 0-.305-.136-.305-.304 0-.168.137-.305.305-.305h.304c.168 0 .305.137.305.305 0 .168-.137.304-.305.304z"/>
        <path fill="#9B4B5A" d="M11.464 6.35c.102.299.318.572.603.686.305-2.74-1.827-2.436-1.827-2.436 1.523 0 1.224 1.75 1.224 1.75z"/>
    </g>
</svg>
