<svg xmlns="http://www.w3.org/2000/svg" width="19" height="23" viewBox="0 0 19 23">
    <defs>
        <filter id="prefix__a">
            <feColorMatrix in="SourceGraphic" values="0 0 0 0 1.000000 0 0 0 0 1.000000 0 0 0 0 1.000000 0 0 0 1.000000 0"/>
        </filter>
    </defs>
    <g fill="none" fill-rule="evenodd" filter="url(#prefix__a)" transform="translate(-1373 -30)">
        <g fill="#000" fill-rule="nonzero">
            <path d="M18.238 20.191c-.056-.083-.146-.138-.246-.149h-.046c-5.93.007-10.743-4.796-10.749-10.726C7.193 5.88 8.836 2.647 11.615.624c.156-.105.198-.316.093-.473-.063-.095-.17-.152-.285-.151l.002.002C5.115.002.001 5.116 0 11.425c0 6.31 5.114 11.425 11.423 11.425 2.415 0 4.769-.765 6.722-2.186.156-.105.198-.317.093-.473z" transform="translate(1373 30)"/>
            <path d="M17.182 10.033c-.041-.035-.09-.06-.141-.072l-.01-.005-.72-.172-.381-.62c-.098-.16-.307-.212-.468-.115-.048.029-.087.068-.116.115l-.376.632-.696.17c-.185.037-.304.217-.267.401.01.055.035.106.07.149l.48.559-.055.72c-.017.187.121.353.309.37.058.005.117-.005.17-.03l.677-.278.658.27c.172.076.373 0 .45-.172.024-.05.034-.107.03-.163l-.055-.72.48-.559c.122-.143.104-.358-.04-.48z" transform="translate(1373 30)"/>
        </g>
    </g>
</svg>
