<svg xmlns="http://www.w3.org/2000/svg" width="39" height="35" viewBox="0 0 39 35">
    <g fill="#0068D1">
        <path d="M31.012 9.659C29.715 3.158 23.388-1.061 16.88.234 12.12 1.182 8.4 4.897 7.448 9.65 2.834 10.183-.475 14.35.056 18.96c.49 4.242 4.086 7.443 8.36 7.44h6.008c.663 0 1.201-.537 1.201-1.2 0-.663-.538-1.2-1.201-1.2H8.417c-3.318-.02-5.991-2.723-5.972-6.037.02-3.315 2.725-5.986 6.043-5.966.612 0 1.126-.46 1.194-1.068.61-5.268 5.379-9.045 10.652-8.435 4.433.512 7.93 4.006 8.443 8.435.1.618.638 1.072 1.265 1.068 3.318 0 6.007 2.687 6.007 6.001 0 3.315-2.69 6.001-6.007 6.001h-6.007c-.663 0-1.201.538-1.201 1.2 0 .664.538 1.201 1.201 1.201h6.007c4.645-.029 8.387-3.814 8.358-8.454-.027-4.225-3.19-7.774-7.388-8.287z"/>
        <path d="M23.506 21.4c.467.467 1.238.48 1.722.029.484-.452.497-1.196.03-1.664l-.03-.029-5.166-4.99c-.475-.46-1.246-.461-1.722-.003l-.002.003-5.166 4.99c-.484.452-.497 1.196-.03 1.664.467.467 1.238.48 1.722.029l.03-.03 3.088-2.983v14.807c0 .65.545 1.177 1.218 1.177.673 0 1.218-.527 1.218-1.177V18.416l3.088 2.984z"/>
    </g>
</svg>
