<svg xmlns="http://www.w3.org/2000/svg" width="22" height="20" viewBox="0 0 22 20">
    <defs>
        <filter id="prefix__a">
            <feColorMatrix in="SourceGraphic" values="0 0 0 0 0.000000 0 0 0 0 0.643137 0 0 0 0 0.980392 0 0 0 1.000000 0"/>
        </filter>
    </defs>
    <g fill="none" fill-rule="evenodd" filter="url(#prefix__a)" transform="translate(-153 -347)">
        <g fill="#0068D1" fill-rule="nonzero">
            <path d="M17.367 5.409C16.64 1.769 13.097-.595 9.453.13c-2.665.53-4.75 2.611-5.282 5.274-2.584.297-4.437 2.631-4.14 5.212.274 2.376 2.289 4.169 4.682 4.167h3.364c.372 0 .673-.3.673-.672 0-.371-.301-.672-.673-.672H4.713c-1.858-.011-3.355-1.525-3.344-3.38.011-1.857 1.526-3.353 3.384-3.342.343 0 .631-.257.669-.598.341-2.95 3.012-5.065 5.965-4.724 2.483.287 4.441 2.244 4.728 4.724.057.347.357.6.709.598 1.858 0 3.364 1.505 3.364 3.361 0 1.856-1.506 3.36-3.364 3.36H13.46c-.372 0-.673.302-.673.673 0 .371.301.672.673.672h3.364c2.6-.016 4.696-2.136 4.68-4.734-.015-2.366-1.786-4.354-4.137-4.641z" transform="translate(153 347)"/>
            <path d="M13.163 11.984c.262.262.694.269.965.016.27-.253.278-.67.017-.931l-.017-.017-2.893-2.794c-.266-.258-.698-.259-.965-.002v.002l-2.894 2.794c-.27.253-.278.67-.017.932.262.262.694.269.965.016l.017-.016 1.729-1.671v8.292c0 .364.305.659.682.659.377 0 .682-.295.682-.659v-8.292l1.73 1.67z" transform="translate(153 347)"/>
        </g>
    </g>
</svg>
