<svg xmlns="http://www.w3.org/2000/svg" width="31" height="30" viewBox="0 0 31 30">
    <defs>
        <filter id="prefix__a">
            <feColorMatrix in="SourceGraphic" values="0 0 0 0 1.000000 0 0 0 0 1.000000 0 0 0 0 1.000000 0 0 0 1.000000 0"/>
        </filter>
    </defs>
    <g fill="none" fill-rule="evenodd" filter="url(#prefix__a)" transform="translate(.41)">
        <g fill="#000" fill-rule="nonzero">
            <path d="M20.356 0H3.546c-.489 0-.885.396-.885.885v2.654H.891c-.488 0-.884.396-.884.885v19.464c0 .489.396.885.885.885h15.925c.489 0 .885-.396.885-.885v-.885h2.654c.489 0 .885-.396.885-.885V.885c0-.489-.397-.885-.885-.885zm-4.424 23.003H1.776V5.308h9.732v3.54c0 .488.397.884.885.884h3.54v13.271zm-2.654-15.04V6.559l1.403 1.404h-1.403zm6.193 13.27h-1.77V8.848c0-.234-.094-.46-.26-.626l-4.423-4.424c-.167-.164-.39-.257-.625-.258H4.431v-1.77h15.04v19.465z" transform="translate(4.8 3.6)"/>
            <path d="M13.278 11.502H4.43c-.489 0-.885.396-.885.884 0 .489.396.885.885.885h8.847c.489 0 .885-.396.885-.885 0-.488-.396-.884-.885-.884zM13.278 15.04H4.43c-.489 0-.885.397-.885.885 0 .489.396.885.885.885h8.847c.489 0 .885-.396.885-.885 0-.488-.396-.885-.885-.885zM13.278 18.58H4.43c-.489 0-.885.396-.885.884 0 .489.396.885.885.885h8.847c.489 0 .885-.396.885-.885 0-.488-.396-.885-.885-.885z" transform="translate(4.8 3.6)"/>
        </g>
    </g>
</svg>
