<svg xmlns="http://www.w3.org/2000/svg" width="9" height="13" viewBox="0 0 9 13">
    <path fill="#0068FF" fill-rule="evenodd" d="M4.5 9.87c-.624 0-1.125-.514-1.125-1.143 0-.634.5-1.143 1.125-1.143.621 0 1.125.512 1.125 1.143S5.121 9.87 4.5 9.87m3.375 1.714V5.87h-6.75v5.714h6.75m0-6.857C8.496 4.727 9 5.24 9 5.87v5.714c0 .632-.504 1.143-1.125 1.143h-6.75C.501 12.727 0 12.213 0 11.584V5.87c0-.634.5-1.143 1.125-1.143h.563V3.584C1.688 2.006 2.946.727 4.5.727c.746 0 1.461.301 1.989.837.527.536.824 1.263.824 2.02v1.143h.562M4.5 1.87c-.932 0-1.688.768-1.688 1.714v1.143h3.376V3.584c0-.946-.756-1.714-1.688-1.714z"/>
</svg>
