<svg xmlns="http://www.w3.org/2000/svg" width="308.381" height="201.395" viewBox="0 0 308.381 201.395">
    <defs>
        <style>
            .cls-2{fill:#2f5bfd;opacity:.4}.cls-3{fill:#fff}.cls-4{fill:#a194ef}.cls-7,.cls-9{fill:none;stroke-miterlimit:10}.cls-7{stroke:#4147c8}.cls-6{fill:#4147c8}.cls-7{stroke-dasharray:8}.cls-8{fill:#dbdbf3}.cls-9{stroke:#3444bb}.cls-10{fill:#8cff01}.cls-14{fill:#5e6ec4}
        </style>
    </defs>
    <g id="order_empty" transform="translate(-6.344 -6.5)">
        <path id="Path_3683" fill="#2f5bfd" d="M62.511 205.324s-32.253 6.392-35.187-24.715 44.321-24.849 28.713-55.935S5.3 103.442 6.368 53.315 64.479 5.973 73.729 24.97s41.53 28.161 69.164 14.863S210.234-.035 241.936 7.978 283.456 30.377 281.768 54s-10.863 49.567 9.906 66.24 39.271 55.243.131 77.2c0 0-12.662 7.42-20.727 8.056z" opacity="0.1"/>
        <g id="Group_3425" transform="translate(262.569 132.577)">
            <g id="Group_3424">
                <rect id="Rectangle_285" width="29.728" height="56.527" class="cls-2" rx="14.864"/>
                <g id="Group_3422" transform="translate(14.465 7.214)">
                    <path id="Rectangle_286" d="M0 0H0.507V65.436H0z" class="cls-3"/>
                </g>
                <path id="Path_3684" d="M337.177 198.523l7.267 6.1 8.135-5.773-.271-.43-7.838 5.562-6.9-5.8z" class="cls-3" transform="translate(-329.884 -171.579)"/>
                <path id="Path_3685" d="M337.177 216.795l7.267 6.1 8.135-5.773-.271-.43-7.838 5.562-6.9-5.8z" class="cls-3" transform="translate(-329.884 -175.297)"/>
                <path id="Path_3686" d="M337.177 180.252l7.267 6.1 8.135-5.773-.271-.43-7.838 5.562-6.9-5.8z" class="cls-3" transform="translate(-329.884 -167.862)"/>
                <g id="Group_3423" transform="translate(10.885 72.127)">
                    <path id="Path_3687" d="M349.839 255.905h-7.868a.286.286 0 0 1 0-.571h7.868a.286.286 0 1 1 0 .571z" class="cls-4" transform="translate(-341.686 -255.334)"/>
                </g>
            </g>
        </g>
        <g id="Group_3429" transform="translate(43.45 147.215)">
            <g id="Group_3428">
                <rect id="Rectangle_287" width="24.161" height="45.942" class="cls-2" rx="12.081"/>
                <g id="Group_3426" transform="translate(11.756 5.863)">
                    <path id="Rectangle_288" d="M0 0H0.412V53.182H0z" class="cls-3"/>
                </g>
                <path id="Path_3688" d="M60.371 210.583l5.906 4.961 6.611-4.692-.22-.35-6.37 4.521-5.61-4.712z" class="cls-3" transform="translate(-54.443 -188.684)"/>
                <path id="Path_3689" d="M60.371 225.433l5.906 4.961 6.611-4.692-.22-.35-6.37 4.521-5.61-4.712z" class="cls-3" transform="translate(-54.443 -191.706)"/>
                <path id="Path_3690" d="M60.371 195.733l5.906 4.961L72.888 196l-.22-.35-6.37 4.521-5.61-4.712z" class="cls-3" transform="translate(-54.443 -185.663)"/>
                <g id="Group_3427" transform="translate(8.846 58.621)">
                    <path id="Path_3691" d="M70.661 257.219h-6.394a.232.232 0 0 1 0-.464h6.395a.232.232 0 1 1 0 .464z" class="cls-4" transform="translate(-64.035 -256.755)"/>
                </g>
            </g>
        </g>
        <g id="Group_3430" transform="translate(30.065 11.334)">
            <path id="Path_3692" fill="none" stroke="#4147c8" stroke-miterlimit="10" d="M37.92 26.752L83 32.19 134.012 14" transform="translate(-36.49 -12.86)"/>
            <circle id="Ellipse_8" cx=".844" cy=".844" r=".844" class="cls-6" transform="translate(0 13.048)"/>
            <circle id="Ellipse_9" cx=".844" cy=".844" r=".844" class="cls-6" transform="translate(97.147)"/>
        </g>
        <path id="Path_3693" d="M331.369 140.651s17.847-3.036 26.344-15.936 6.708-25.62-4.473-33.68-13.417-12.739-11.628-17.8" class="cls-7" transform="translate(-66.133 -13.579)"/>
        <path id="Path_3694" d="M47.237 82.4s-14.758-3.578-27.28 4.919-17.441 28.622 0 46.957 24.6 23.256 27.28 31.752" class="cls-7" transform="translate(-.468 -15.292)"/>
        <circle id="Ellipse_10" cx="9.232" cy="9.232" r="9.232" class="cls-8" transform="rotate(-45 99.53 -32.984)"/>
        <circle id="Ellipse_11" cx="9.232" cy="9.232" r="9.232" class="cls-9" transform="rotate(-45 102.029 -39.019)"/>
        <circle id="Ellipse_12" cx="11.622" cy="11.622" r="11.622" class="cls-8" transform="rotate(-45 181.215 -288.175)"/>
        <circle id="Ellipse_13" cx="11.622" cy="11.622" r="11.622" class="cls-9" transform="rotate(-45 178.069 -280.578)"/>
        <g id="Group_3431" transform="translate(15.644 90.081)">
            <path id="Path_3695" d="M28.282 131.954a10.262 10.262 0 1 1 10.262-10.262 10.274 10.274 0 0 1-10.262 10.262zm0-18.464a8.2 8.2 0 1 0 8.2 8.2 8.212 8.212 0 0 0-8.2-8.2z" class="cls-10" transform="translate(-18.02 -111.431)"/>
        </g>
        <g id="Group_3432" transform="translate(66.661 11.77)">
            <path id="Path_3696" d="M91.181 27.393a2.438 2.438 0 0 1-1.855-.236L83.3 23.71a2.446 2.446 0 0 1-.907-3.335l3.447-6.027a2.445 2.445 0 0 1 3.336-.908l6.024 3.448a2.447 2.447 0 0 1 .908 3.335l-3.448 6.026a2.437 2.437 0 0 1-1.479 1.144zm-3.41-12.525a.714.714 0 0 0-.436.336l-3.447 6.027a.719.719 0 0 0 .268.981l6.027 3.447a.719.719 0 0 0 .981-.267l3.447-6.027a.72.72 0 0 0-.267-.981l-6.027-3.447a.71.71 0 0 0-.546-.069z" class="cls-10" transform="translate(-82.069 -13.117)"/>
        </g>
        <g id="Group_3433" transform="translate(231.033 22.499)">
            <path id="Path_3697" d="M300.312 42.826a2.909 2.909 0 0 1-2.23.078L290.322 40a2.921 2.921 0 0 1-1.708-3.756l2.908-7.759a2.917 2.917 0 0 1 3.756-1.709l7.759 2.908a2.921 2.921 0 0 1 1.709 3.755l-2.908 7.76a2.9 2.9 0 0 1-1.526 1.627zm-6.414-14.1a.852.852 0 0 0-.448.48l-2.907 7.759a.858.858 0 0 0 .5 1.106l7.76 2.907a.859.859 0 0 0 1.1-.5l2.907-7.759a.86.86 0 0 0-.5-1.106l-7.755-2.913a.855.855 0 0 0-.655.023z" class="cls-10" transform="translate(-288.429 -26.585)"/>
        </g>
        <g id="Group_3435" transform="translate(97.503 37.451)">
            <path id="Path_3698" fill="#2f5bfd" d="M142.925 62.989h76.406l23.51 23.51v111.67h17.632V45.357H142.925z" opacity="0.08" transform="translate(-125.293 -45.357)"/>
            <path id="Path_3699" d="M187.2 218.437h82.283V144.97c-.002 40.606-36.803 73.467-82.283 73.467z" class="cls-2" transform="translate(-134.301 -65.625)"/>
            <path id="Path_3700" fill="#b2c1ea" d="M238.337 91v129.3H120.789V67.493h94.038V91z" transform="translate(-120.789 -49.861)"/>
            <path id="Path_3701" fill="#2f5bfd" d="M150.3 89.629h47.019v41.142H150.3z" opacity="0.22" transform="translate(-126.794 -54.365)"/>
            <path id="Path_3702" d="M262.359 91l-23.51-23.51V91z" class="cls-14" transform="translate(-144.811 -49.861)"/>
            <path id="Path_3703" d="M178.318 104.323l5.878 2.938V89.629H172.44v17.632z" class="cls-14" transform="translate(-131.298 -54.365)"/>
            <path id="Path_3704" d="M194.385 89.629v23.51a11.755 11.755 0 0 1-11.755 11.755H150.3v5.877h47.019V89.629z" class="cls-2" transform="translate(-126.794 -54.365)"/>
            <circle id="Ellipse_14" cx="14.693" cy="14.693" r="14.693" class="cls-14" transform="translate(55.835 61.712)"/>
            <path id="Path_3705" fill="#8391cc" d="M165.062 240.573h82.283v-73.467c0 40.606-36.801 73.467-82.283 73.467z" transform="translate(-129.797 -70.129)"/>
            <path id="Path_3706" fill="#ccd7f2" d="M210.561 134.772l-6.738 6.738-2.078-2.077a2.939 2.939 0 1 0-4.227 4.083l.072.072 4.155 4.155a2.938 2.938 0 0 0 4.156 0l8.816-8.816a2.939 2.939 0 0 0-4.156-4.155z" transform="translate(-136.233 -63.382)"/>
            <g id="Group_3434" transform="translate(14.694 108.731)">
                <path id="Path_3707" d="M148.052 187.741h-5.878a2.939 2.939 0 0 1 0-5.878h5.878a2.939 2.939 0 1 1 0 5.878z" class="cls-14" transform="translate(-139.236 -181.863)"/>
                <path id="Path_3708" d="M228.962 187.741h-64.651a2.939 2.939 0 1 1 0-5.878h64.651a2.939 2.939 0 0 1 0 5.878z" class="cls-14" transform="translate(-143.74 -181.863)"/>
                <path id="Path_3709" d="M224.458 202.5h-82.284a2.938 2.938 0 1 1 0-5.877h82.284a2.938 2.938 0 1 1 0 5.877z" class="cls-14" transform="translate(-139.236 -184.866)"/>
                <path id="Path_3710" d="M224.458 217.256h-82.284a2.939 2.939 0 0 1 0-5.878h82.284a2.939 2.939 0 0 1 0 5.878z" class="cls-14" transform="translate(-139.236 -187.868)"/>
                <path id="Path_3711" d="M243.976 232.013H238.1a2.938 2.938 0 0 1 0-5.877h5.878a2.938 2.938 0 1 1 0 5.877z" class="cls-14" transform="translate(-158.754 -190.871)"/>
                <path id="Path_3712" d="M206.826 232.013h-64.652a2.938 2.938 0 0 1 0-5.877h64.651a2.938 2.938 0 1 1 0 5.877z" class="cls-14" transform="translate(-139.236 -190.871)"/>
            </g>
        </g>
    </g>
</svg>
