<svg xmlns="http://www.w3.org/2000/svg" xmlns:xlink="http://www.w3.org/1999/xlink" width="153" height="154" viewBox="0 0 153 154">
    <defs>
        <path id="prefix__a" d="M0 0.084L152.916 0.084 152.916 153.267 0 153.267z"/>
    </defs>
    <g fill="none" fill-rule="evenodd">
        <mask id="prefix__b" fill="#fff">
            <use xlink:href="#prefix__a"/>
        </mask>
        <path fill="#E3EAFF" d="M152.916 76.675c0 42.3-34.231 76.592-76.458 76.592S0 118.976 0 76.675C0 34.375 34.231.085 76.458.085s76.458 34.29 76.458 76.59" mask="url(#prefix__b)"/>
        <g fill="#A8C1FF" fill-rule="nonzero">
            <path d="M36.947 45.714c1.592 0 2.842 1.257 2.842 2.857 0 1.6-1.25 2.858-2.842 2.858-1.591 0-2.842-1.258-2.842-2.858s1.25-2.857 2.842-2.857m0-8.571c-7.759 0-14.38 4.743-17.052 11.428C22.566 55.257 29.188 60 36.947 60c7.76 0 14.381-4.743 17.053-11.429-2.672-6.685-9.294-11.428-17.053-11.428m0 18.571c-3.924 0-7.105-3.198-7.105-7.143 0-3.944 3.181-7.142 7.105-7.142 3.924 0 7.106 3.198 7.106 7.142 0 3.945-3.182 7.143-7.106 7.143m-21.97-4.285H5.685V5.714H25.58V20h14.21v11.629c1.99.228 3.866.714 5.685 1.4V17.143L28.42 0H5.684C2.544 0 0 2.558 0 5.714V51.43c0 3.155 2.545 5.714 5.684 5.714h12.79c-1.421-1.686-2.587-3.629-3.496-5.714z" transform="translate(54 47)"/>
        </g>
    </g>
</svg>
