<svg xmlns="http://www.w3.org/2000/svg" xmlns:xlink="http://www.w3.org/1999/xlink" width="31" height="31" viewBox="0 0 31 31">
    <defs>
        <filter id="prefix__a">
            <feColorMatrix in="SourceGraphic" values="0 0 0 0 1.000000 0 0 0 0 1.000000 0 0 0 0 1.000000 0 0 0 1.000000 0"/>
        </filter>
        <path id="prefix__b" d="M0 0.051L7.682 0.051 7.682 5.774 0 5.774z"/>
    </defs>
    <g fill="none" fill-rule="evenodd" filter="url(#prefix__a)" transform="translate(.821 .85)">
        <g>
            <path fill="#000" d="M21.432 19.964c0 .508-.416.923-.924.923h-6.33c-.507 0-.922-.415-.922-.923v-1.22c0-.508.415-.923.923-.923h6.33c.507 0 .923.415.923.923v1.22zm-3.87-10.602l2.346 1.467c.258.161.258.537 0 .698l-2.346 1.467c-.134.084-.303.084-.437 0l-2.346-1.467c-.258-.16-.258-.537 0-.698l2.346-1.467c.134-.084.303-.084.437 0zM15.2 1.98h4.286c.228 0 .413.185.413.412v1.22c0 .228-.185.412-.413.412H15.2c-.227 0-.412-.184-.412-.412v-1.22c0-.227.185-.412.412-.412zM16.833.958h-2.654c-.228 0-.413.185-.413.412v.71c0 .227-.184.411-.411.411H9.58c-.228 0-.412.185-.412.412V3.1c0 .228.184.412.412.412h3.775c.227 0 .411.184.411.412v.71c0 .227.185.411.413.411h2.242c.227 0 .412.185.412.412v2.654c0 .142-.074.274-.194.35l-3.789 2.367c-.258.161-.258.537 0 .698l3.789 2.368c.12.076.194.208.194.35v2.142c0 .228-.185.412-.412.412h-2.242c-1.075 0-1.945.871-1.945 1.945v1.22c0 1.074.87 1.945 1.945 1.945h6.33c1.074 0 1.945-.87 1.945-1.945v-1.22c0-1.074-.871-1.945-1.946-1.945h-2.242c-.227 0-.411-.184-.411-.412v-2.142c0-.142.073-.274.193-.35l3.789-2.368c.258-.16.258-.537 0-.698L18.048 8.46c-.12-.075-.193-.207-.193-.35V5.459c0-.227.184-.412.411-.412h2.242c.228 0 .413-.184.413-.412V1.37c0-.227-.185-.412-.413-.412h-3.675zM3.647 19.856c-.36.068-.67-.243-.602-.602.039-.2.2-.363.401-.401.36-.07.67.242.602.601-.038.201-.2.363-.401.402m4.76-2.073l1.06 1.06H4.985c-.154-.433-.495-.774-.928-.928V7.288c0-.11-.088-.198-.197-.198h-.65c-.096 0-.175.078-.175.174v10.65c-.638.229-1.085.862-1.014 1.592.07.721.652 1.303 1.373 1.374.731.071 1.364-.377 1.591-1.015h4.482l-1.06 1.06c-.062.062-.062.162 0 .224l.496.496c.063.063.166.063.23 0l2.137-2.138c.085-.084.085-.221 0-.305L9.13 17.06c-.062-.061-.162-.061-.223 0l-.5.5c-.062.061-.062.162 0 .223" transform="translate(3.6 3.6)"/>
            <g transform="translate(3.6 3.6) translate(0 .31)">
                <mask id="prefix__c" fill="#fff">
                    <use xlink:href="#prefix__b"/>
                </mask>
                <path fill="#000" d="M4.081 1.294l1.795 1.282c.23.165.23.508 0 .673L4.08 4.53c-.143.103-.337.103-.48 0L1.807 3.25c-.231-.165-.231-.508 0-.673L3.6 1.294c.143-.102.337-.102.48 0M7.51 2.576L4.081.128c-.143-.103-.337-.103-.48 0L.173 2.576c-.23.165-.23.508 0 .673l3.428 2.448c.143.103.337.103.48 0L7.51 3.249c.231-.165.231-.508 0-.673" mask="url(#prefix__c)"/>
            </g>
        </g>
    </g>
</svg>
