<?xml version="1.0" encoding="UTF-8"?>
<svg width="23px" height="13px" viewBox="0 0 23 13" version="1.1" xmlns="http://www.w3.org/2000/svg" xmlns:xlink="http://www.w3.org/1999/xlink">
    <!-- Generator: Sketch 61 (89581) - https://sketch.com -->
    <title>Group 2</title>
    <desc>Created with Sketch.</desc>
    <g id="Symbols" stroke="none" stroke-width="1" fill="none" fill-rule="evenodd">
        <g id="Element/Status/receive" transform="translate(-13.000000, -5.000000)">
            <g id="Group" transform="translate(9.000000, 0.000000)">
                <g id="Group-2" transform="translate(0.000000, 5.000000)">
                    <path d="M8.17544818,6.15519 C8.17544818,4.48929 8.99444818,3.50559 10.3606482,3.50559 L12.5458482,3.50559 L12.5458482,9.97839 L12.1363482,9.97839 C11.7817482,9.08829 10.7737482,8.65359 9.88364818,9.00819 C9.44084818,9.18369 9.08984818,9.53559 8.91344818,9.97839 L8.17634818,9.97839 L8.17544818,6.15519 Z M10.5244482,11.31669 C10.1320482,11.31669 9.81434818,10.99989 9.81434818,10.60749 C9.81434818,10.21509 10.1320482,9.89739 10.5244482,9.89739 C10.9168482,9.89739 11.2345482,10.21509 11.2345482,10.60749 C11.2291482,10.99719 10.9141482,11.31129 10.5244482,11.31669 L10.5244482,11.31669 Z M20.1661482,11.31669 C19.7746482,11.31669 19.4560482,10.99989 19.4560482,10.60749 C19.4560482,10.21509 19.7746482,9.89739 20.1661482,9.89739 C20.5585482,9.89739 20.8762482,10.21509 20.8762482,10.60749 C20.8708482,10.99719 20.5558482,11.31129 20.1661482,11.31669 L20.1661482,11.31669 Z M8.06654818,3.42459 C7.42664818,4.18599 7.09544818,5.16069 7.13774818,6.15519 L7.13774818,10.47069 C7.14854818,10.75239 7.37444818,10.97919 7.65704818,10.98999 L8.82704818,10.98999 C9.00614818,11.78289 9.70814818,12.34899 10.5208482,12.355375 C11.3398482,12.36339 12.0499482,11.79189 12.2146482,10.98999 L18.4696482,10.98999 C18.6478482,11.78379 19.3498482,12.34899 20.1634482,12.355375 C20.9815482,12.36339 21.6925482,11.79189 21.8572482,10.98999 L23.4691482,10.98999 C23.7517482,10.97919 23.9785482,10.75239 23.9884482,10.47069 L23.9884482,8.67069 L26.0107482,8.67069 C26.2978482,8.68239 26.5390482,8.46009 26.5516482,8.17299 C26.5633482,7.88679 26.3410482,7.64469 26.0539482,7.63299 L26.0107482,7.63299 L23.4709482,7.63299 C23.1892482,7.64289 22.9624482,7.86969 22.9516482,8.15229 L22.9516482,9.98199 L21.8077482,9.98199 C21.4720482,9.08919 20.4766482,8.63739 19.5838482,8.97309 C19.1266482,9.14409 18.7648482,9.50139 18.5848482,9.95499 L13.6105482,9.95499 L13.6105482,1.78569 L22.9246482,1.78569 L22.9246482,3.61539 C22.9345482,3.89799 23.1613482,4.12389 23.4439482,4.13469 L25.9837482,4.13469 C26.2699482,4.12299 26.4931482,3.88089 26.4814482,3.59379 C26.4697482,3.32379 26.2537482,3.10779 25.9837482,3.09699 L23.9623482,3.09699 L23.9623482,1.29699 C23.9515482,1.01439 23.7247482,0.78849 23.4430482,0.77769 L13.0642482,0.77769 C12.7816482,0.78849 12.5557482,1.01439 12.5449482,1.29699 L12.5449482,2.46699 L10.3606482,2.46699 C9.49214818,2.43279 8.65334818,2.78199 8.06654818,3.42279 L8.06654818,3.42459 Z" id="Fill-1" fill="#23A718" transform="translate(16.843116, 6.566574) scale(-1, 1) translate(-16.843116, -6.566574) "></path>
                    <g id="Group-6" transform="translate(10.500000, 6.500000) scale(-1, 1) translate(-10.500000, -6.500000) ">
                        <g id="Group-3" transform="translate(0.000000, 0.777690)"></g>
                        <path d="M5.6924,5.63715 C5.6888,5.64165 5.6861,5.64615 5.6825,5.65065 C5.678,5.65605 5.6744,5.66055 5.6708,5.66685 C5.6672,5.67225 5.6645,5.67675 5.6609,5.68305 C5.6573,5.68755 5.6546,5.69295 5.6519,5.69745 C5.6492,5.70285 5.6465,5.70915 5.6438,5.71455 C5.6411,5.71995 5.6384,5.72535 5.6366,5.73075 C5.6348,5.73615 5.6321,5.74155 5.6303,5.74695 C5.6285,5.75325 5.6258,5.75865 5.624,5.76495 C5.6222,5.77035 5.6213,5.77575 5.6195,5.78205 C5.6177,5.78745 5.6168,5.79375 5.6159,5.80005 C5.6141,5.80635 5.6132,5.81265 5.6123,5.81985 C5.6114,5.82525 5.6105,5.83065 5.6105,5.83605 C5.6087,5.84775 5.6078,5.86035 5.6078,5.87205 L5.6078,5.87295 C5.6078,5.88465 5.6087,5.89725 5.6105,5.90895 C5.6105,5.91525 5.6114,5.91975 5.6123,5.92515 C5.6132,5.93235 5.6141,5.93865 5.6159,5.94495 C5.6168,5.95125 5.6177,5.95755 5.6195,5.96385 C5.6213,5.96925 5.6222,5.97465 5.624,5.98005 C5.6258,5.98635 5.6285,5.99265 5.6303,5.99805 C5.6321,6.00345 5.6348,6.00975 5.6366,6.01425 C5.6384,6.02055 5.6411,6.02505 5.6438,6.03045 C5.6465,6.03585 5.6492,6.04215 5.6519,6.04755 C5.6546,6.05295 5.6582,6.05745 5.6609,6.06285 C5.6645,6.06825 5.6672,6.07365 5.6708,6.07905 C5.6744,6.08445 5.678,6.08895 5.6825,6.09435 C5.6861,6.09885 5.6888,6.10425 5.6924,6.10785 C5.7005,6.11775 5.7086,6.12585 5.7167,6.13485 L7.2917,7.70985 C7.4366,7.85475 7.6715,7.85475 7.8164,7.70985 C7.9613,7.56495 7.9613,7.33005 7.8164,7.18515 L6.8759,6.24375 L16.6292,6.24375 C16.8344,6.24375 17,6.07725 17,5.87295 C17,5.66775 16.8344,5.50125 16.6292,5.50125 L6.8759,5.50125 L7.8164,4.55985 C7.9613,4.41495 7.9613,4.18005 7.8164,4.03515 C7.6715,3.89025 7.4366,3.89025 7.2917,4.03515 L5.7167,5.61015 C5.7167,5.61015 5.7167,5.61015 5.7167,5.61015 C5.7086,5.61915 5.6996,5.62815 5.6924,5.63715" id="Fill-4" fill="#23A718"></path>
                    </g>
                </g>
            </g>
        </g>
    </g>
</svg>