<svg xmlns="http://www.w3.org/2000/svg" width="21" height="20" viewBox="0 0 21 20">
    <path fill="#FFF" fill-rule="evenodd" d="M11.7 1.25l5.4 5.4v10.8c0 .994-.806 1.8-1.8 1.8H4.5c-.994 0-1.8-.806-1.8-1.8V3.05c0-.994.806-1.8 1.8-1.8h7.2m3.6 16.2v-9.9h-4.5v-4.5H4.5v14.4h10.8m-6.372-6.921c-.216-.693-.693-2.907.567-2.943 1.26-.036.432 2.808.432 2.808.351 1.341 1.818 2.304 1.818 2.304.45-.135 3.015-.432 2.655.9-.387 1.332-3.15.081-3.15.081-1.755.126-3.069.594-3.069.594C7.164 16.172 5.976 17 5.49 16.199c-.603-.999 1.917-2.286 1.917-2.286 1.305-2.115 1.503-3.348 1.521-3.384m.585.756c-.36 1.17-1.08 2.421-1.08 2.421.765-.306 2.439-.657 2.439-.657-1.026-.9-1.341-1.755-1.359-1.764m2.826 1.953s1.575.585 1.611.351c.063-.243-1.197-.459-1.611-.351m-5.094 1.341c-.693.27-1.359 1.422-1.197 1.422.162.009.819-.54 1.197-1.422m2.268-4.995c0-.045.387-1.512 0-1.557-.27-.027-.009 1.521 0 1.557z"/>
</svg>
