<svg xmlns="http://www.w3.org/2000/svg" width="20" height="17.003" viewBox="0 0 20 17.003">
    <defs>
        <style>
            .cls-1{fill:#fff}
        </style>
    </defs>
    <g id="bascula_icon" transform="translate(0 -41.5)">
        <path id="Path_3675" d="M21.258 45.907c.079 0-.019.006 1.042.006v1.294h-.7v4.439h9.443v-4.439h-.7v-1.294h.813a4.705 4.705 0 0 0 4.476-3.673.593.593 0 0 0-.568-.74H17.579a.593.593 0 0 0-.568.74 4.72 4.72 0 0 0 4.247 3.667zm3.147 4.173a.586.586 0 1 1-.468-.641.594.594 0 0 1 .468.641zm2.5 0a.585.585 0 1 1-.468-.641.594.594 0 0 1 .463.641zm2.5 0a.586.586 0 1 1-.468-.641.594.594 0 0 1 .463.641zm-.231-2.872h-5.7v-1.295h5.7z" class="cls-1" transform="translate(-16.32)"/>
        <path id="Path_3676" d="M18.906 185.5H15.9v4.558a1.064 1.064 0 0 1-1.055 1.07H5.156a1.064 1.064 0 0 1-1.055-1.07V185.5H1.055A1.064 1.064 0 0 0 0 186.57v6.54h20v-6.54a1.1 1.1 0 0 0-1.094-1.07z" class="cls-1" transform="translate(0 -138.293)"/>
        <path id="Path_3677" d="M321 409.057a1 1 0 0 0 1.07.94h2.854a1 1 0 0 0 1.07-.94V407.5H321z" class="cls-1" transform="translate(-308.57 -351.494)"/>
        <path id="Path_3678" d="M65 409.057a1 1 0 0 0 1.07.94h2.854a1 1 0 0 0 1.07-.94V407.5H65z" class="cls-1" transform="translate(-62.424 -351.494)"/>
    </g>
</svg>
