<svg xmlns="http://www.w3.org/2000/svg" width="24" height="24" viewBox="0 0 24 24">
    <defs>
        <style>
            .cls-2{fill:#bae543}
        </style>
    </defs>
    <g id="Group_3551" transform="translate(-751.502 -1139.761)">
        <ellipse id="Ellipse_2" cx="9.949" cy="9.958" fill="#fff" rx="9.949" ry="9.958" transform="translate(754.154 1142.734)"/>
        <g id="Group_3550" transform="translate(751.502 1139.761)">
            <path id="Path_3828" d="M763.7 1145.293a1.5 1.5 0 0 1 .011.626 1.532 1.532 0 1 1-2.666-1.286.128.128 0 0 0-.106-.215 4.422 4.422 0 0 0-3.952 4.4 4.423 4.423 0 1 0 6.911-3.66.129.129 0 0 0-.198.135z" class="cls-2" transform="translate(-748.697 -1137.372)"/>
            <g id="Group_3549">
                <path id="Path_3829" d="M775.491 1141.069a1.309 1.309 0 0 0-1.309-1.308h-10.734a11.619 11.619 0 0 0-9.571 4.867 12 12 0 1 0 19.984 13.238c1.425-2.3 1.64-4.126 1.64-10.866zm-5.67 14.1a6.854 6.854 0 0 1-9.56 1.636l-1.759 1.8c-.017.018-.033.035-.051.051a1.436 1.436 0 1 1-1.977-2.082l1.845-1.878a6.86 6.86 0 1 1 11.5.475z" class="cls-2" transform="translate(-751.502 -1139.761)"/>
            </g>
        </g>
    </g>
</svg>
