<?xml version="1.0" encoding="utf-8"?>
<!-- Generator: Adobe Illustrator 24.1.2, SVG Export Plug-In . SVG Version: 6.00 Build 0)  -->
<svg version="1.1" id="Layer_1" xmlns="http://www.w3.org/2000/svg" xmlns:xlink="http://www.w3.org/1999/xlink" x="0px" y="0px"
	 viewBox="0 0 25 25" style="enable-background:new 0 0 25 25;" xml:space="preserve">
<style type="text/css">
	.st0{fill:#FFFFFF;}
</style>
<g>
	<path class="st0" d="M15.1,11l-3,2.8l-1.4-1.5c-0.2-0.2-0.4-0.2-0.6,0c-0.2,0.2-0.2,0.4,0,0.6l1.7,1.8c0.2,0.2,0.4,0.2,0.6,0
		l3.3-3.1c0.1-0.1,0.1-0.2,0.1-0.3c0-0.1,0-0.2-0.1-0.3C15.5,10.9,15.2,10.9,15.1,11L15.1,11z"/>
	<path class="st0" d="M12.9,6.7c-3.4,0-6.1,2.8-6.1,6.1S9.5,19,12.9,19s6.1-2.8,6.1-6.1C19,9.5,16.2,6.7,12.9,6.7z M12.9,18.2
		c-2.9,0-5.3-2.4-5.3-5.3s2.4-5.3,5.3-5.3c2.9,0,5.3,2.4,5.3,5.3S15.8,18.2,12.9,18.2z"/>
	<path class="st0" d="M21.3,10.6l0.1-2.4c0-0.2-0.1-0.3-0.2-0.4L19,6.7L18,4.5c-0.1-0.1-0.2-0.2-0.4-0.2l-2.4,0.1l-2-1.3
		C13,3,12.8,3,12.6,3.1l-2,1.3L8.2,4.3C8,4.3,7.9,4.4,7.8,4.5L6.7,6.7L4.5,7.8C4.4,7.8,4.3,8,4.3,8.2l0.1,2.4l-1.3,2
		c-0.1,0.1-0.1,0.3,0,0.5l1.3,2l-0.1,2.4c0,0.2,0.1,0.3,0.2,0.4L6.7,19l1.1,2.2c0.1,0.1,0.2,0.2,0.4,0.2l2.4-0.1l2,1.3
		c0.1,0.1,0.3,0.1,0.5,0l2-1.3l2.4,0.1c0.2,0,0.3-0.1,0.4-0.2L19,19l2.2-1.1c0.1-0.1,0.2-0.2,0.2-0.4l-0.1-2.4l1.3-2
		c0.1-0.1,0.1-0.3,0-0.5C22.6,12.6,21.3,10.6,21.3,10.6z M20.5,14.8c0,0.1-0.1,0.2-0.1,0.2l0.1,2.3l-2,1c-0.1,0-0.1,0.1-0.2,0.2
		l-1,2L15,20.5c-0.1,0-0.2,0-0.2,0.1l-1.9,1.3l-1.9-1.3c-0.1,0-0.1-0.1-0.2-0.1h0l-2.3,0.1l-1-2c0-0.1-0.1-0.1-0.2-0.2l-2.1-1
		L5.3,15c0-0.1,0-0.2-0.1-0.2l-1.3-1.9l1.3-1.9c0-0.1,0.1-0.2,0.1-0.2L5.1,8.4l2-1c0.1,0,0.1-0.1,0.2-0.2l1-2l2.3,0.1
		c0.1,0,0.2,0,0.2-0.1l1.9-1.3l1.9,1.3c0.1,0.1,0.2,0.1,0.2,0.1l2.3-0.1l1,2c0,0.1,0.1,0.1,0.2,0.2l2,1l-0.1,2.3
		c0,0.1,0,0.2,0.1,0.2l1.3,1.9L20.5,14.8z"/>
</g>
</svg>
