<svg xmlns="http://www.w3.org/2000/svg" xmlns:xlink="http://www.w3.org/1999/xlink" width="22" height="22" viewBox="0 0 22 22">
    <defs>
        <filter id="n3nei497za">
            <feColorMatrix in="SourceGraphic" values="0 0 0 0 0.180392 0 0 0 0 0.219608 0 0 0 0 0.301961 0 0 0 1.000000 0"/>
        </filter>
        <path id="5mnke86b5b" d="M0 0L21.096 0 21.096 19.448 0 19.448z"/>
    </defs>
    <g fill="none" fill-rule="evenodd">
        <g>
            <g>
                <g filter="url(#n3nei497za)" transform="translate(-447 -315) translate(397 310) translate(50 5)">
                    <g transform="translate(0 1)">
                        <mask id="lbeeco9nlc" fill="#fff">
                            <use xlink:href="#5mnke86b5b"/>
                        </mask>
                        <path fill="#000" d="M16.82 4.116c-.374-.328-.591-.8-.591-1.308s.217-.979.592-1.307c.375.328.592.8.592 1.307 0 .508-.217.98-.592 1.308zm1.084 3.374c.495-.495 1.175-.732 1.862-.658.072.685-.164 1.366-.66 1.861-.495.495-1.175.732-1.861.659-.007-.07-.01-.14-.012-.21v-.08c.01-.585.245-1.146.67-1.572zm-1.495 4.762c-.002.09-.007.18-.018.268-.778.093-1.553-.17-2.116-.732-.561-.562-.825-1.338-.733-2.117.779-.093 1.554.172 2.116.733.483.484.746 1.124.75 1.79v.058zM11.824 9.59H8.138l-.801-.9c-.151-.17-.412-.186-.582-.034-.17.15-.185.41-.034.581l.281.317v1.895H4.517V7.461c0-.841.685-1.526 1.525-1.526.487 0 .948.234 1.234.629l1.358 1.864c.077.107.201.17.332.17h2.858c.274 0 .496.222.496.496 0 .273-.222.496-.496.496zM9.81 12.273c.776 0 1.407.63 1.407 1.407v4.47c0 .26-.213.474-.475.474-.26 0-.473-.213-.473-.474v-4.01c0-.227-.184-.41-.412-.41h-3.56c-.87 0-1.597-.63-1.75-1.457H9.81zm-2.697 4.945c0 .775-.63 1.406-1.405 1.406H1.298c-.261 0-.474-.213-.474-.474 0-.262.213-.474.474-.474h4.114c.227 0 .412-.184.412-.412v-2.756c.154.03.313.045.474.045h.816v2.665zM5.17 1.835v-.66c0-.193.158-.35.352-.35H7.47c.193 0 .35.157.35.35v.66H5.17zm2.537 1.81c0 .643-.522 1.165-1.165 1.165-.644 0-1.166-.522-1.166-1.166V2.66h2.331v.984zm7.149 3.312c-.413-.413-.615-.976-.566-1.547.57-.048 1.134.154 1.547.566.412.412.614.976.565 1.547-.57.048-1.134-.155-1.546-.566zm6.12 11.787L18.33 16.1c-.31-.311-.695-.505-1.097-.583v-5.338c.086.008.173.011.258.011.817 0 1.606-.32 2.199-.913.76-.761 1.072-1.843.835-2.893-.035-.155-.155-.277-.31-.312-1.052-.237-2.133.076-2.894.836-.03.03-.06.06-.088.093V4.843c.633-.483 1.004-1.228 1.004-2.035 0-.884-.447-1.694-1.196-2.168-.135-.084-.306-.084-.44 0-.75.474-1.196 1.284-1.196 2.168 0 .807.37 1.552 1.004 2.035v.54c-.678-.67-1.638-.946-2.57-.735-.155.035-.277.156-.311.312-.211.937.067 1.901.745 2.579.53.529 1.232.815 1.96.815.059 0 .117-.002.176-.006v1.655c-.054-.062-.11-.123-.168-.181-.819-.818-1.98-1.16-3.11-.916-.093-.64-.644-1.132-1.307-1.132H9.176L7.942 6.078c-.174-.24-.39-.44-.636-.596.719-.3 1.226-1.011 1.226-1.838V2.66h.635c.227 0 .412-.185.412-.412 0-.228-.185-.413-.412-.413h-.522v-.66C8.645.529 8.118 0 7.47 0H5.522c-.648 0-1.176.528-1.176 1.176v.659h-.522c-.227 0-.412.185-.412.413 0 .227.185.412.412.412h.728v.984c0 .642.305 1.214.778 1.578-.948.302-1.637 1.191-1.637 2.24v4.485c0 .965.526 1.808 1.307 2.257v2.648H1.298C.582 16.852 0 17.434 0 18.15c0 .716.582 1.298 1.298 1.298h4.41c1.23 0 2.23-1 2.23-2.23v-2.665h1.508v3.597c0 .716.582 1.298 1.297 1.298.716 0 1.299-.582 1.299-1.298v-4.47c0-1.23-1.001-2.23-2.23-2.23H7.825v-1.056c.041.013.084.02.127.02h3.87c.337 0 .645-.127.878-.335.025.853.37 1.67.992 2.29.645.646 1.501.995 2.39.995.108 0 .217-.006.326-.017v2.17c-.4.079-.781.273-1.09.582l-2.633 2.633c-.162.161-.162.422 0 .583.16.16.421.16.582 0l2.634-2.634c.508-.509 1.336-.509 1.845 0l2.646 2.647c.08.08.185.12.29.12.106 0 .211-.04.292-.12.16-.162.16-.423 0-.584z" mask="url(#lbeeco9nlc)"/>
                    </g>
                </g>
            </g>
        </g>
    </g>
</svg>
