<svg xmlns="http://www.w3.org/2000/svg" width="17" height="18" viewBox="0 0 17 18">
    <path fill="#00A4FA" fill-rule="evenodd" d="M16.49 5.669l-1.6-2.771c-.129-.224-.401-.322-.645-.235l-2.103.77c-.407-.305-.851-.56-1.33-.764L10.425.458C10.38.203 10.159.017 9.9.017H6.7c-.26 0-.48.186-.525.44L5.787 2.67c-.478.203-.922.459-1.329.763l-2.103-.769c-.244-.09-.516.01-.645.235l-1.6 2.77c-.13.225-.079.51.12.676l1.72 1.44c-.033.267-.05.52-.05.766s.017.499.05.765l-1.72 1.44c-.199.167-.25.452-.12.676l1.6 2.771c.13.225.402.322.645.234l2.103-.768c.406.304.851.56 1.33.763l.387 2.211c.045.255.266.441.525.441h3.2c.26 0 .48-.186.525-.44l.387-2.212c.479-.204.924-.46 1.33-.763l2.103.768c.241.086.515-.01.645-.234l1.6-2.77c.13-.225.079-.51-.12-.676l-1.72-1.44c.033-.267.05-.52.05-.766 0-.247-.017-.499-.05-.765l1.72-1.44c.199-.167.25-.452.12-.676zm-2.755 1.49c-.144.121-.214.31-.183.498.055.322.081.614.081.893s-.026.57-.08.893c-.032.187.038.377.182.498l1.607 1.345-1.151 1.995-1.963-.717c-.179-.067-.379-.032-.525.09-.452.378-.974.677-1.55.891-.178.067-.307.222-.34.408l-.36 2.064H7.147l-.362-2.064c-.032-.186-.161-.341-.34-.408-.575-.214-1.097-.513-1.55-.89-.147-.123-.347-.158-.524-.091l-1.963.717-1.15-1.995 1.606-1.345c.144-.121.214-.31.183-.498-.055-.322-.081-.614-.081-.893 0-.28.026-.571.08-.893.032-.187-.038-.377-.182-.498L1.258 5.814 2.41 3.82l1.963.717c.177.066.377.03.525-.09.453-.378.975-.678 1.55-.891.178-.066.307-.222.34-.408l.36-2.064h2.305l.361 2.064c.033.186.162.342.34.408.575.213 1.097.513 1.55.89.146.122.346.157.525.091l1.963-.717 1.15 1.995-1.606 1.345zM8.3 5.35c-1.765 0-3.2 1.435-3.2 3.2 0 1.765 1.435 3.2 3.2 3.2 1.765 0 3.2-1.435 3.2-3.2 0-1.765-1.435-3.2-3.2-3.2zm0 5.333c-1.176 0-2.133-.956-2.133-2.133S7.124 6.417 8.3 6.417c1.176 0 2.133.956 2.133 2.133s-.957 2.133-2.133 2.133z"/>
</svg>
