<?xml version="1.0" encoding="UTF-8"?>
<svg width="23px" height="13px" viewBox="0 0 23 13" version="1.1" xmlns="http://www.w3.org/2000/svg" xmlns:xlink="http://www.w3.org/1999/xlink">
    <!-- Generator: Sketch 61 (89581) - https://sketch.com -->
    <title>Group 6</title>
    <desc>Created with Sketch.</desc>
    <g id="Symbols" stroke="none" stroke-width="1" fill="none" fill-rule="evenodd">
        <g id="Element/Status/shipping" transform="translate(-12.000000, -5.000000)" fill="#0068D1">
            <g id="Group" transform="translate(12.000000, 1.000000)">
                <g id="Group-6" transform="translate(11.500000, 10.500000) scale(-1, 1) translate(-11.500000, -10.500000) translate(0.000000, 4.000000)">
                    <g id="Group-3" transform="translate(12.500000, 6.777690) scale(-1, 1) translate(-12.500000, -6.777690) translate(2.000000, 0.777690)">
                        <path d="M1.76526,5.49981 C1.76526,3.83391 2.58426,2.85021 3.95046,2.85021 L6.13566,2.85021 L6.13566,9.32301 L5.72616,9.32301 C5.37156,8.43291 4.36356,7.99821 3.47346,8.35281 C3.03066,8.52831 2.67966,8.88021 2.50326,9.32301 L1.76616,9.32301 L1.76526,5.49981 Z M4.11426,10.66131 C3.72186,10.66131 3.40416,10.34451 3.40416,9.95211 C3.40416,9.55971 3.72186,9.24201 4.11426,9.24201 C4.50666,9.24201 4.82436,9.55971 4.82436,9.95211 C4.81896,10.34181 4.50396,10.65591 4.11426,10.66131 L4.11426,10.66131 Z M13.75596,10.66131 C13.36446,10.66131 13.04586,10.34451 13.04586,9.95211 C13.04586,9.55971 13.36446,9.24201 13.75596,9.24201 C14.14836,9.24201 14.46606,9.55971 14.46606,9.95211 C14.46066,10.34181 14.14566,10.65591 13.75596,10.66131 L13.75596,10.66131 Z M1.65636,2.76921 C1.01646,3.53061 0.68526,4.50531 0.72756,5.49981 L0.72756,9.81531 C0.73836,10.09701 0.96426,10.32381 1.24686,10.33461 L2.41686,10.33461 C2.59596,11.12751 3.29796,11.69361 4.11066,11.699995 C4.92966,11.70801 5.63976,11.13651 5.80446,10.33461 L12.05946,10.33461 C12.23766,11.12841 12.93966,11.69361 13.75326,11.699995 C14.57136,11.70801 15.28236,11.13651 15.44706,10.33461 L17.05896,10.33461 C17.34156,10.32381 17.56836,10.09701 17.57826,9.81531 L17.57826,8.01531 L19.60056,8.01531 C19.88766,8.02701 20.12886,7.80471 20.14146,7.51761 C20.15316,7.23141 19.93086,6.98931 19.64376,6.97761 L19.60056,6.97761 L17.06076,6.97761 C16.77906,6.98751 16.55226,7.21431 16.54146,7.49691 L16.54146,9.32661 L15.39756,9.32661 C15.06186,8.43381 14.06646,7.98201 13.17366,8.31771 C12.71646,8.48871 12.35466,8.84601 12.17466,9.29961 L7.20036,9.29961 L7.20036,1.13031 L16.51446,1.13031 L16.51446,2.96001 C16.52436,3.24261 16.75116,3.46851 17.03376,3.47931 L19.57356,3.47931 C19.85976,3.46761 20.08296,3.22551 20.07126,2.93841 C20.05956,2.66841 19.84356,2.45241 19.57356,2.44161 L17.55216,2.44161 L17.55216,0.64161 C17.54136,0.35901 17.31456,0.13311 17.03286,0.12231 L6.65406,0.12231 C6.37146,0.13311 6.14556,0.35901 6.13476,0.64161 L6.13476,1.81161 L3.95046,1.81161 C3.08196,1.77741 2.24316,2.12661 1.65636,2.76741 L1.65636,2.76921 Z" id="Fill-1"></path>
                    </g>
                    <path d="M0.6924,5.63715 C0.6888,5.64165 0.6861,5.64615 0.6825,5.65065 C0.678,5.65605 0.6744,5.66055 0.6708,5.66685 C0.6672,5.67225 0.6645,5.67675 0.6609,5.68305 C0.6573,5.68755 0.6546,5.69295 0.6519,5.69745 C0.6492,5.70285 0.6465,5.70915 0.6438,5.71455 C0.6411,5.71995 0.6384,5.72535 0.6366,5.73075 C0.6348,5.73615 0.6321,5.74155 0.6303,5.74695 C0.6285,5.75325 0.6258,5.75865 0.624,5.76495 C0.6222,5.77035 0.6213,5.77575 0.6195,5.78205 C0.6177,5.78745 0.6168,5.79375 0.6159,5.80005 C0.6141,5.80635 0.6132,5.81265 0.6123,5.81985 C0.6114,5.82525 0.6105,5.83065 0.6105,5.83605 C0.6087,5.84775 0.6078,5.86035 0.6078,5.87205 L0.6078,5.87295 C0.6078,5.88465 0.6087,5.89725 0.6105,5.90895 C0.6105,5.91525 0.6114,5.91975 0.6123,5.92515 C0.6132,5.93235 0.6141,5.93865 0.6159,5.94495 C0.6168,5.95125 0.6177,5.95755 0.6195,5.96385 C0.6213,5.96925 0.6222,5.97465 0.624,5.98005 C0.6258,5.98635 0.6285,5.99265 0.6303,5.99805 C0.6321,6.00345 0.6348,6.00975 0.6366,6.01425 C0.6384,6.02055 0.6411,6.02505 0.6438,6.03045 C0.6465,6.03585 0.6492,6.04215 0.6519,6.04755 C0.6546,6.05295 0.6582,6.05745 0.6609,6.06285 C0.6645,6.06825 0.6672,6.07365 0.6708,6.07905 C0.6744,6.08445 0.678,6.08895 0.6825,6.09435 C0.6861,6.09885 0.6888,6.10425 0.6924,6.10785 C0.7005,6.11775 0.7086,6.12585 0.7167,6.13485 L2.2917,7.70985 C2.4366,7.85475 2.6715,7.85475 2.8164,7.70985 C2.9613,7.56495 2.9613,7.33005 2.8164,7.18515 L1.8759,6.24375 L11.6292,6.24375 C11.8344,6.24375 12,6.07725 12,5.87295 C12,5.66775 11.8344,5.50125 11.6292,5.50125 L1.8759,5.50125 L2.8164,4.55985 C2.9613,4.41495 2.9613,4.18005 2.8164,4.03515 C2.6715,3.89025 2.4366,3.89025 2.2917,4.03515 L0.7167,5.61015 C0.7167,5.61015 0.7167,5.61015 0.7167,5.61015 C0.7086,5.61915 0.6996,5.62815 0.6924,5.63715" id="Fill-4" transform="translate(6.303900, 5.872500) scale(-1, 1) translate(-6.303900, -5.872500) "></path>
                </g>
            </g>
        </g>
    </g>
</svg>