<svg xmlns="http://www.w3.org/2000/svg" width="24" height="24" viewBox="0 0 24 24">
    <defs>
        <style>
            .cls-5{fill:#fff}
        </style>
    </defs>
    <g id="Group_3559" transform="translate(-820.283 -1161.383)">
        <g id="Group_3556" transform="translate(825.337 1165.937)">
            <g id="Group_3553" transform="translate(7.049 3.135)">
                <g id="Group_3552">
                    <path id="Trazado_29-4" fill="#4d4d4d" d="M831.837 1166.509h3.2a.158.158 0 0 1 .155.163.151.151 0 0 1-.029.087l-3.167 3.951a.14.14 0 0 0 0 .188l3.167 3.967a.153.153 0 0 1-.126.25h-3.2a.145.145 0 0 1-.126-.063l-3.324-4.155a.143.143 0 0 1 0-.187l3.324-4.154a.179.179 0 0 1 .126-.047z" transform="translate(-828.352 -1166.509)"/>
                </g>
            </g>
            <g id="Group_3555">
                <g id="Group_3554">
                    <path id="Trazado_30-4" fill="#01d668" d="M827.022 1179.311h-3.2a.16.16 0 0 1-.155-.163.154.154 0 0 1 .03-.087l5.674-7.084a.145.145 0 0 0 0-.189l-5.692-7.117a.16.16 0 0 1 .037-.222.157.157 0 0 1 .089-.029h3.213a.141.141 0 0 1 .126.063l5.83 7.288a.142.142 0 0 1 0 .189l-5.83 7.288a.164.164 0 0 1-.122.063z" transform="translate(-823.653 -1164.419)"/>
                </g>
            </g>
        </g>
        <rect id="Rectángulo_14-2" width="24" height="24" fill="#0068ff" rx="3.519" transform="translate(820.283 1161.383)"/>
        <g id="Group_3557" transform="translate(826.406 1165.682)">
            <path id="Path_3830" fill="#0c56af" d="M824.365 1176.489a11.859 11.859 0 0 0 .412 3.162c.656-.307 1.424-.663 2.3-1.053a23.681 23.681 0 0 0 5.459-3.211 9.837 9.837 0 0 0 2.7-3.565 12.99 12.99 0 0 0 .559-7.572c-.817.4-1.781.843-2.875 1.345q-4.817 2.158-6.687 4.642a10.142 10.142 0 0 0-1.868 6.252z" transform="translate(-824.365 -1164.249)"/>
        </g>
        <g id="Group_3558" transform="translate(824.69 1165.439)">
            <path id="Path_3831" d="M834.984 1168.044a11.426 11.426 0 0 0-2.062-.179 7.74 7.74 0 0 0-2.554.376 2.185 2.185 0 0 1 .262 1.035 2.9 2.9 0 0 1-.349 1.513 2.983 2.983 0 0 1-1.035 1.076 4.9 4.9 0 0 1-.9.45 2.281 2.281 0 0 0 .509.564 4.016 4.016 0 0 0 .978.549 12.127 12.127 0 0 0 1.294.432q.655.184 1.07.327a3.472 3.472 0 0 1 .652.288.876.876 0 0 1 .321.294.724.724 0 0 1 .084.355.929.929 0 0 1-.51.844 3.311 3.311 0 0 1-1.6.294 5.64 5.64 0 0 1-1.98-.34 4.881 4.881 0 0 1-1.6-.963h-.277l-.51 2.364a8.859 8.859 0 0 0 1.711.543 10.529 10.529 0 0 0 2.256.219 9.446 9.446 0 0 0 2.04-.2 5.26 5.26 0 0 0 1.609-.629 3 3 0 0 0 1.061-1.053 2.9 2.9 0 0 0 .384-1.5 2.007 2.007 0 0 0-.71-1.617 6.34 6.34 0 0 0-2.364-1.039q-.616-.164-1.074-.321a3.437 3.437 0 0 1-.669-.288.68.68 0 0 1-.4-.682.865.865 0 0 1 .537-.783 3.3 3.3 0 0 1 1.516-.283 5.184 5.184 0 0 1 1.845.32 4.157 4.157 0 0 1 1.36.794h.271l.484-2.273a7.287 7.287 0 0 0-1.65-.487z" class="cls-5" transform="translate(-821.445 -1162.198)"/>
            <path id="Path_3832" d="M827.189 1174.308a10.523 10.523 0 0 1-2.255-.219 8.886 8.886 0 0 1-1.713-.543l.51-2.365h.279a4.851 4.851 0 0 0 1.6.964 5.651 5.651 0 0 0 1.981.341 3.308 3.308 0 0 0 1.6-.294.926.926 0 0 0 .51-.844.726.726 0 0 0-.082-.355.889.889 0 0 0-.321-.294 3.35 3.35 0 0 0-.652-.288q-.414-.142-1.07-.328a11.828 11.828 0 0 1-1.3-.43 4.007 4.007 0 0 1-.976-.549 2.213 2.213 0 0 1-.614-.749 2.3 2.3 0 0 1-.208-1.014 2.732 2.732 0 0 1 1.308-2.369 6.322 6.322 0 0 1 3.581-.883 11.3 11.3 0 0 1 2.064.178 7.188 7.188 0 0 1 1.646.483l-.483 2.272h-.271a4.167 4.167 0 0 0-1.362-.793 5.167 5.167 0 0 0-1.845-.32 3.305 3.305 0 0 0-1.517.283.866.866 0 0 0-.535.783.675.675 0 0 0 .4.683 3.39 3.39 0 0 0 .669.288c.3.1.663.211 1.073.321a6.335 6.335 0 0 1 2.365 1.041 2 2 0 0 1 .708 1.615 2.9 2.9 0 0 1-.384 1.5 3 3 0 0 1-1.059 1.053 5.252 5.252 0 0 1-1.609.628 9.437 9.437 0 0 1-2.038.204z" class="cls-5" transform="translate(-823.221 -1164.087)"/>
        </g>
    </g>
</svg>
