<svg xmlns="http://www.w3.org/2000/svg" width="22" height="22" viewBox="0 0 22 22">
    <defs>
        <filter id="prefix__a">
            <feColorMatrix in="SourceGraphic" values="0 0 0 0 0.525490 0 0 0 0 0.603922 0 0 0 0 0.674510 0 0 0 1.000000 0"/>
        </filter>
    </defs>
    <g filter="url(#prefix__a)">
        <path d="M21.152 11.355L16.584 9.15c-.087-.042-.188-.042-.274 0l-2.257 1.09V8.898c.001-.48-.246-.927-.654-1.182l-2.119-1.33v-.905c0-.156-.115-.288-.27-.31V1.934C11.01.867 10.144.001 9.076 0H4.977C3.909.001 3.043.867 3.042 1.935v1.254c-.155.022-.27.154-.27.31v.906L.654 5.735C.246 5.99-.002 6.438 0 6.918v14.098c0 .174.141.315.315.315h20.7c.174 0 .315-.141.315-.315v-9.376c0-.121-.07-.231-.178-.284zM13.065 8.25c.223.14.359.384.358.648v.583H6.888v-.583c-.001-.263.134-.509.358-.648l.41-.257h.001l1.856-1.165c.092-.058.148-.159.148-.267v-.765h.99v.765c0 .108.055.21.147.267l2.267 1.422zm-8.402 3.12v.99h-1.53v-.99h1.53zm-1.53-.63v-.99h1.53v.99h-1.53zm1.53 2.25v.99h-1.53v-.99h1.53zm0 1.62v.99h-1.53v-.99h1.53zm0 1.62v.99h-1.53v-.99h1.53zm0 1.62v.99h-1.53v-.99h1.53zm0-8.73h-1.53v-.99h1.53v.99zm-1.53 10.35h1.53v1.23h-1.53v-1.23zm2.16-.032c.11-.052.18-.162.18-.283 0-.122-.07-.232-.18-.284v-1.053c.11-.052.18-.162.18-.283 0-.122-.07-.232-.18-.284v-1.053c.11-.052.18-.162.18-.283 0-.122-.07-.232-.18-.284v-1.053c.11-.052.18-.162.18-.283 0-.122-.07-.232-.18-.284v-1.053c.11-.052.18-.162.18-.283 0-.122-.07-.232-.18-.284v-1.053c.11-.052.18-.162.18-.283 0-.122-.07-.232-.18-.284V9.718c.11-.052.18-.162.18-.283 0-.122-.07-.232-.18-.284V8.129H6.49c-.152.228-.233.495-.233.77V20.7h-.965v-1.262zm1.85-13.702L5.022 4.404V3.5c0-.156-.115-.288-.27-.31V1.935c.002-.124.101-.223.225-.225h4.099c.123.002.223.101.225.225V5.17c-.155.022-.27.155-.27.31v.907l-1.235.774v-.244c.002-.48-.245-.927-.653-1.18zM4.977.63h4.099c.72 0 1.304.585 1.305 1.305v3.23h-.45v-3.23c-.001-.472-.383-.854-.855-.855H4.977c-.472 0-.854.383-.855.855v1.25h-.45v-1.25c0-.72.585-1.304 1.305-1.305zM.988 6.27l2.267-1.424c.091-.058.147-.158.147-.267v-.765h.99v.765c0 .109.056.21.147.267L6.81 6.27c.223.14.358.384.357.647V7.5H5.293V6.75c0-.174-.141-.315-.315-.315-.174 0-.315.141-.315.315v.749h-1.53V6.75c0-.174-.141-.315-.315-.315-.174 0-.315.141-.315.315v.749H.63v-.582c-.001-.263.134-.508.358-.647zM.63 8.129h1.872V9.15c-.11.052-.18.162-.18.284 0 .12.07.231.18.283v1.053c-.11.052-.18.162-.18.284 0 .12.07.231.18.283v1.053c-.11.052-.18.162-.18.284 0 .12.07.231.18.283v1.053c-.11.052-.18.162-.18.284 0 .12.07.231.18.283v1.053c-.11.052-.18.162-.18.284 0 .12.07.231.18.283v1.053c-.11.052-.18.162-.18.284 0 .12.07.231.18.283v1.053c-.11.052-.18.162-.18.284 0 .12.07.231.18.283V20.7H.63V8.129zM6.888 20.7V10.11h6.535V20.7H6.888zm8.165 0v-3.69h2.79v3.69h-2.79zm5.647 0h-2.227v-4.005c0-.174-.142-.315-.316-.315h-3.42c-.173 0-.314.141-.315.315V20.7h-.369v-9.76l2.394-1.156 4.253 2.053V20.7z"/>
        <path d="M15.322 12.903c0 .621.504 1.125 1.126 1.125.62 0 1.125-.504 1.125-1.125s-.504-1.125-1.125-1.125c-.622 0-1.125.504-1.126 1.125zm1.126-.495c.273 0 .494.222.494.495s-.221.495-.494.495c-.274 0-.495-.222-.495-.495s.221-.495.495-.495zM12.658 15.78c-.174 0-.315.141-.315.315v1.23c0 .174.141.315.315.315.174 0 .315-.141.315-.315v-1.23c0-.174-.141-.315-.315-.315z"/>
    </g>
</svg>
