<?xml version="1.0" encoding="UTF-8"?>
<svg width="15px" height="15px" viewBox="0 0 15 15" version="1.1" xmlns="http://www.w3.org/2000/svg" xmlns:xlink="http://www.w3.org/1999/xlink">
    <!-- Generator: Sketch 59.1 (86144) - https://sketch.com -->
    <title>cancel</title>
    <desc>Created with Sketch.</desc>
    <g id="Symbols" stroke="none" stroke-width="1" fill="none" fill-rule="evenodd">
        <g id="Element/Status/done-Copy-2" transform="translate(-16.000000, -4.000000)" fill="#D63649">
            <g id="cancel" transform="translate(16.000000, 4.000000)">
                <path d="M7.29,-3.23741034e-16 C9.22342821,-3.23741034e-16 11.0776682,0.768051366 12.4448084,2.13519157 C13.8119486,3.50233176 14.58,5.35657179 14.58,7.29 C14.58,11.3161558 11.3161558,14.58 7.29,14.58 C5.35657179,14.58 3.50233176,13.8119486 2.13519157,12.4448084 C0.768051366,11.0776682 -3.23741034e-16,9.22342821 -3.23741034e-16,7.29 C-3.23741034e-16,5.35657179 0.768051366,3.50233176 2.13519157,2.13519157 C3.50233176,0.768051366 5.35657179,-3.23741034e-16 7.29,-3.23741034e-16 M7.29,1.458 C4.06907534,1.458 1.458,4.06907534 1.458,7.29 C1.458,8.63865 1.91727,9.87795 2.68272,10.86939 L10.86939,2.68272 C9.87795,1.91727 8.63865,1.458 7.29,1.458 M7.29,13.122 C10.5109247,13.122 13.122,10.5109247 13.122,7.29 C13.122,5.94135 12.66273,4.70205 11.89728,3.71061 L3.71061,11.89728 C4.70205,12.66273 5.94135,13.122 7.29,13.122 Z" id="Shape"></path>
            </g>
        </g>
    </g>
</svg>