<?xml version="1.0" encoding="UTF-8"?>
<svg width="16px" height="16px" viewBox="0 0 16 16" version="1.1" xmlns="http://www.w3.org/2000/svg" xmlns:xlink="http://www.w3.org/1999/xlink">
    <!-- Generator: Sketch 59.1 (86144) - https://sketch.com -->
    <title>file-document-box-check-outline</title>
    <desc>Created with Sketch.</desc>
    <defs>
        <polygon id="path-1" points="0 0.04 15.2099875 0.04 15.2099875 15.249975 0 15.249975"></polygon>
    </defs>
    <g id="Symbols" stroke="none" stroke-width="1" fill="none" fill-rule="evenodd">
        <g id="Element/Status/cmodiity" transform="translate(-15.000000, -4.000000)">
            <g id="Base">
                <g id="file-document-box-check-outline" transform="translate(15.000000, 4.000000)">
                    <g id="Group-6">
                        <g id="Group-3" transform="translate(0.000000, 0.085000)">
                            <mask id="mask-2" fill="white">
                                <use xlink:href="#path-1"></use>
                            </mask>
                            <g id="Clip-2"></g>
                            <path d="M15.2099875,7.644975 C15.2099875,11.845225 11.8051125,15.249975 7.6049875,15.249975 C3.4048625,15.249975 -1.25e-05,11.845225 -1.25e-05,7.644975 C-1.25e-05,3.44485 3.4048625,0.039975 7.6049875,0.039975 C11.8051125,0.039975 15.2099875,3.44485 15.2099875,7.644975" id="Fill-1" fill="#DC9E27" mask="url(#mask-2)"></path>
                        </g>
                        <path d="M8.313075,5.5148875 C8.669575,5.5148875 8.992075,5.5595125 9.2807,5.6485125 C9.39995,5.6855125 9.526075,5.7292625 9.658825,5.7795125 C9.998825,5.9085125 10.37995,5.7428875 10.514325,5.4050125 L10.8462,4.5707625 C10.468575,4.3087625 10.03045,4.1093875 9.53245,3.9728875 C9.276325,3.9028875 9.04345,3.8511375 8.833075,3.8170125 L8.833075,2.8670125 L7.588825,2.8670125 C7.189325,2.8670125 6.86545,3.1908875 6.86545,3.5903875 L6.86545,3.9693875 C6.288075,4.1488875 5.799825,4.4482625 5.4022,4.8697625 C4.70995,5.6041375 4.363825,6.5797625 4.363825,7.7962625 C4.363825,9.0131375 4.70995,9.9833875 5.4022,10.7070125 C5.79995,11.1227625 6.287825,11.4185125 6.86545,11.5953875 L6.86545,12.5930125 L8.833075,12.5930125 L8.833075,11.7483875 C9.04695,11.7168875 9.285075,11.6688875 9.5482,11.6040125 C10.056825,11.4780125 10.48945,11.2788875 10.8462,11.0060125 L10.51295,10.1593875 C10.37945,9.8201375 9.997575,9.6533875 9.6567,9.7826375 C9.5247,9.8325125 9.399325,9.8760125 9.2807,9.9126375 C8.992075,10.0017625 8.669575,10.0462625 8.313075,10.0462625 C7.736075,10.0462625 7.28495,9.8365125 6.95995,9.4168875 C6.6347,8.9973875 6.4722,8.4571375 6.4722,7.7962625 C6.4722,7.1461375 6.6347,6.6031375 6.95995,6.1678875 C7.28495,5.7326375 7.736075,5.5148875 8.313075,5.5148875" id="Fill-4" fill="#FFFFFF"></path>
                    </g>
                </g>
            </g>
        </g>
    </g>
</svg>