<?xml version="1.0" encoding="UTF-8"?>
<svg width="12px" height="12px" viewBox="0 0 12 12" version="1.1" xmlns="http://www.w3.org/2000/svg" xmlns:xlink="http://www.w3.org/1999/xlink">
    <!-- Generator: Sketch 59.1 (86144) - https://sketch.com -->
    <title>file-document-box-check-outline</title>
    <desc>Created with Sketch.</desc>
    <g id="Symbols" stroke="none" stroke-width="1" fill="none" fill-rule="evenodd">
        <g id="Element/Status/approved" transform="translate(-17.000000, -6.000000)" fill="#0068D1" fill-rule="nonzero">
            <g id="Base">
                <g id="file-document-box-check-outline" transform="translate(17.000000, 6.000000)">
                    <path d="M8.96,11.52 L7.2,9.6 L7.9424,8.8576 L8.96,9.8752 L11.2576,7.5776 L12,8.48 M6.272,11.52 L1.28,11.52 C0.5696,11.52 0,10.9504 0,10.24 L0,1.28 C0,0.5696 0.5696,0 1.28,0 L10.24,0 C10.9504,0 11.52,0.5696 11.52,1.28 L11.52,6.272 C11.1296,6.048 10.7008,5.888 10.24,5.8112 L10.24,1.28 L1.28,1.28 L1.28,10.24 L5.8112,10.24 C5.888,10.7008 6.048,11.1296 6.272,11.52 M5.76,8.96 L2.56,8.96 L2.56,7.68 L5.76,7.68 M7.4752,6.4 L2.56,6.4 L2.56,5.12 L8.96,5.12 L8.96,5.8112 C8.416,5.9008 7.9168,6.1056 7.4752,6.4 M8.96,3.84 L2.56,3.84 L2.56,2.56 L8.96,2.56" id="Shape"></path>
                </g>
            </g>
        </g>
    </g>
</svg>