<?xml version="1.0" encoding="UTF-8"?>
<svg width="12px" height="14px" viewBox="0 0 12 14" version="1.1" xmlns="http://www.w3.org/2000/svg" xmlns:xlink="http://www.w3.org/1999/xlink">
    <!-- Generator: Sketch 59.1 (86144) - https://sketch.com -->
    <title>Shape</title>
    <desc>Created with Sketch.</desc>
    <g id="Symbols" stroke="none" stroke-width="1" fill="none" fill-rule="evenodd">
        <g id="Element/Status/sent" transform="translate(-18.000000, -4.000000)" fill="#23A718">
            <path d="M25,4 L19.4,4 C18.623,4 18,4.63 18,5.4 L18,16.6 C18,17.377 18.623,18 19.4,18 L27.8,18 C28.577,18 29.2,17.377 29.2,16.6 L29.2,8.2 L25,4 M27.8,16.6 L19.4,16.6 L19.4,5.4 L24.3,5.4 L24.3,8.9 L27.8,8.9 L27.8,16.6 M23.978,15.55 L23.978,14.15 L21.178,14.15 L21.178,12.75 L23.978,12.75 L23.978,11.35 L26.078,13.45 L23.978,15.55 Z" id="Shape"></path>
        </g>
    </g>
</svg>