<?xml version="1.0" encoding="utf-8"?>
<!-- Generator: Adobe Illustrator 25.4.1, SVG Export Plug-In . SVG Version: 6.00 Build 0)  -->
<svg version="1.1" id="Layer_1" xmlns="http://www.w3.org/2000/svg" xmlns:xlink="http://www.w3.org/1999/xlink" x="0px" y="0px"
	 viewBox="0 0 164 158" style="enable-background:new 0 0 164 158;" xml:space="preserve">
<style type="text/css">
	.st0{fill:#ECEDED;}
	.st1{fill:#CED5DB;}
	.st2{fill:#7D848E;}
	.st3{fill:#AFB6BF;}
	.st4{fill:#E8ECEF;}
	.st5{fill:#505660;}
</style>
<path id="Rectángulo_14-2_00000102536861515446929220000000026294721095381943_" class="st0" d="M47.6,16.9h69.5
	c15.1,0,27.3,12.2,27.3,27.3v69.5c0,15.1-12.2,27.3-27.3,27.3H47.6c-15.1,0-27.3-12.2-27.3-27.3V44.2C20.3,29.1,32.6,16.9,47.6,16.9
	z"/>
<g>
	<g>
		<path class="st1" d="M90.4,43H55V32.7c0-0.9,0.7-1.6,1.6-1.6h32.2c0.9,0,1.6,0.7,1.6,1.6V43z"/>
		<g>
			<g>
				<g>
					<path class="st2" d="M79.5,36.7H54.3c-1.5,0-2.8,1.2-2.8,2.8v85.5h30.7V39.4C82.3,37.9,81.1,36.7,79.5,36.7L79.5,36.7z"/>
					<path class="st2" d="M91,36.7H78.9c1.5,0,2.8,1.2,2.8,2.8v85.5h12.1V39.4C93.8,37.9,92.6,36.7,91,36.7L91,36.7z"/>
					<g>
						<path class="st3" d="M86.5,49.6H58.9c-0.6,0-1-0.5-1-1v-3.2c0-0.6,0.5-1,1-1h27.6c0.6,0,1,0.5,1,1v3.2
							C87.5,49.1,87.1,49.6,86.5,49.6z"/>
						<path class="st3" d="M86.5,62.2H58.9c-0.6,0-1-0.5-1-1V58c0-0.6,0.5-1,1-1h27.6c0.6,0,1,0.5,1,1v3.2
							C87.5,61.8,87.1,62.2,86.5,62.2z"/>
						<path class="st3" d="M86.5,49.6c0.6,0,1-0.5,1-1v-3.2c0-0.6-0.5-1-1-1h-4.8v5.2L86.5,49.6L86.5,49.6z"/>
						<path class="st3" d="M86.5,62.2c0.6,0,1-0.5,1-1V58c0-0.6-0.5-1-1-1h-4.8v5.2L86.5,62.2L86.5,62.2z"/>
						<g>
							<g>
								<path class="st3" d="M86.5,74.9H58.9c-0.6,0-1-0.5-1-1v-3.2c0-0.6,0.5-1,1-1h27.6c0.6,0,1,0.5,1,1v3.2
									C87.5,74.4,87.1,74.9,86.5,74.9z"/>
								<path class="st3" d="M86.5,87.6H58.9c-0.6,0-1-0.5-1-1v-3.2c0-0.6,0.5-1,1-1h27.6c0.6,0,1,0.5,1,1v3.2
									C87.5,87.1,87.1,87.6,86.5,87.6z"/>
								<path class="st3" d="M86.5,100.2H58.9c-0.6,0-1-0.5-1-1V96c0-0.6,0.5-1,1-1h27.6c0.6,0,1,0.5,1,1v3.2
									C87.5,99.8,87.1,100.2,86.5,100.2z"/>
								<path class="st3" d="M86.5,112.9H58.9c-0.6,0-1-0.5-1-1v-3.2c0-0.6,0.5-1,1-1h27.6c0.6,0,1,0.5,1,1v3.2
									C87.5,112.4,87.1,112.9,86.5,112.9L86.5,112.9z"/>
							</g>
						</g>
					</g>
					<path class="st1" d="M103.9,67.4H78c-1.5,0-2.8,1.2-2.8,2.8v54.8h31.4V70.2C106.7,68.6,105.4,67.4,103.9,67.4z"/>
					<path class="st1" d="M115.5,67.4h-12.2c1.5,0,2.8,1.2,2.8,2.8v54.8h12.2V70.2C118.3,68.6,117.1,67.4,115.5,67.4L115.5,67.4z"/>
					<g>
						<g>
							<path class="st4" d="M86.5,81.3h-4c-0.5,0-0.9-0.4-0.9-0.9v-3.3c0-0.5,0.4-0.9,0.9-0.9h4c0.5,0,0.9,0.4,0.9,0.9v3.3
								C87.4,80.9,87,81.3,86.5,81.3z"/>
							<path class="st4" d="M98.8,81.3h-4c-0.5,0-0.9-0.4-0.9-0.9v-3.3c0-0.5,0.4-0.9,0.9-0.9h4c0.5,0,0.9,0.4,0.9,0.9v3.3
								C99.7,80.9,99.3,81.3,98.8,81.3z"/>
							<path class="st4" d="M111.1,81.3h-4c-0.5,0-0.9-0.4-0.9-0.9v-3.3c0-0.5,0.4-0.9,0.9-0.9h4c0.5,0,0.9,0.4,0.9,0.9v3.3
								C112,80.9,111.6,81.3,111.1,81.3z"/>
						</g>
						<g>
							<g>
								<path class="st4" d="M86.5,95.4h-4c-0.5,0-0.9-0.4-0.9-0.9v-3.3c0-0.5,0.4-0.9,0.9-0.9h4c0.5,0,0.9,0.4,0.9,0.9v3.3
									C87.4,94.9,87,95.4,86.5,95.4z"/>
								<path class="st4" d="M98.8,95.4h-4c-0.5,0-0.9-0.4-0.9-0.9v-3.3c0-0.5,0.4-0.9,0.9-0.9h4c0.5,0,0.9,0.4,0.9,0.9v3.3
									C99.7,94.9,99.3,95.4,98.8,95.4z"/>
								<path class="st4" d="M111.1,95.4h-4c-0.5,0-0.9-0.4-0.9-0.9v-3.3c0-0.5,0.4-0.9,0.9-0.9h4c0.5,0,0.9,0.4,0.9,0.9v3.3
									C112,94.9,111.6,95.4,111.1,95.4z"/>
							</g>
						</g>
						<path class="st4" d="M91.6,104.2h-9.1c-0.5,0-0.9,0.4-0.9,0.9v3.3c0,0.5,0.4,0.9,0.9,0.9h9.1c0.5,0,0.9-0.4,0.9-0.9v-3.3
							C92.5,104.7,92.1,104.2,91.6,104.2z"/>
					</g>
				</g>
				<path class="st4" d="M111.6,124.9H98.4v-19.4c0-0.7,0.6-1.3,1.3-1.3h10.7c0.7,0,1.3,0.6,1.3,1.3L111.6,124.9z"/>
				<path class="st4" d="M111.6,105.5c0-0.7-0.6-1.3-1.3-1.3h-4.2v20.7h5.5V105.5z"/>
				<path class="st5" d="M50.9,119.9c-1.6,0-2.9,1.5-2.9,3.4s1.3,3.4,2.9,3.4h67c1.6,0,2.9-1.5,2.9-3.4v-2.8l-0.3-0.6H50.9z"/>
			</g>
		</g>
	</g>
</g>
</svg>
