<svg xmlns="http://www.w3.org/2000/svg" width="25" height="25" viewBox="0 0 25 25">
    <g>
        <path d="M20.832 6.01l-.58-2.32c.158-.034.277-.175.277-.344v-.374c0-.812-.66-1.473-1.473-1.473h-2.642V.728c0-.4-.325-.725-.725-.725H2.221c-.4 0-.725.325-.725.725v6.36c0 .193.157.35.351.35.194 0 .35-.157.35-.35V.728c0-.013.011-.024.024-.024H15.69c.013 0 .024.01.024.024v6.36c0 .193.157.35.35.35.194 0 .351-.157.351-.35V6.69h4.139c.51 0 .942.335 1.09.795h-1.09c-.194 0-.351.157-.351.35v.749c0 .606.493 1.099 1.099 1.099h.397v1.543h-.917c-.3-.87-1.128-1.496-2.099-1.496-.97 0-1.798.626-2.099 1.496h-.169V8.584c0-.194-.157-.35-.35-.35-.194 0-.351.156-.351.35v2.642H8.436c-.302-.87-1.128-1.496-2.1-1.496-.97 0-1.797.626-2.099 1.496H2.221c-.013 0-.023-.01-.023-.023v-.772h1.52c.193 0 .35-.157.35-.35 0-.194-.157-.351-.35-.351H.35c-.194 0-.351.157-.351.35 0 .194.157.351.35.351h1.146v.772c0 .4.326.725.725.725h1.895v.023c0 1.225.996 2.221 2.22 2.221 1.225 0 2.222-.996 2.222-2.221v-.023h7.904l-.001.023c0 1.225.996 2.221 2.221 2.221s2.221-.996 2.221-2.221v-.023h1.146c.194 0 .351-.158.351-.351V7.836c0-.924-.681-1.691-1.568-1.826zM16.414 2.2h2.642c.426 0 .772.347.772.772v.024h-3.414V2.2zm0 3.789V3.697h3.117l.573 2.292h-3.69zM6.337 13.47c-.838 0-1.52-.682-1.52-1.52s.681-1.52 1.52-1.52c.838 0 1.52.682 1.52 1.52s-.682 1.52-1.52 1.52zm12.345 0c-.838 0-1.52-.682-1.52-1.52s.682-1.52 1.52-1.52 1.52.682 1.52 1.52-.682 1.52-1.52 1.52zM21.7 8.98H21.3c-.22 0-.397-.178-.397-.397v-.398h.795v.795z" transform="translate(0 5)"/>
        <path d="M6.337 11.226c-.4 0-.725.325-.725.725 0 .4.325.725.725.725.4 0 .724-.325.724-.725 0-.4-.325-.725-.724-.725zM18.682 11.226c-.4 0-.725.325-.725.725 0 .4.326.725.725.725.4 0 .725-.325.725-.725 0-.4-.325-.725-.725-.725zM14.567 9.73H9.329c-.193 0-.35.157-.35.35 0 .194.157.351.35.351h5.238c.194 0 .35-.157.35-.35 0-.194-.156-.351-.35-.351zM5.588 8.233H1.1c-.194 0-.35.157-.35.351 0 .194.156.35.35.35h4.49c.193 0 .35-.156.35-.35 0-.194-.157-.35-.35-.35z" transform="translate(0 5)"/>
    </g>
</svg>
