<?xml version="1.0" encoding="utf-8"?>
<!-- Generator: Adobe Illustrator 24.1.2, SVG Export Plug-In . SVG Version: 6.00 Build 0)  -->
<svg version="1.1" id="Capa_1" xmlns="http://www.w3.org/2000/svg" xmlns:xlink="http://www.w3.org/1999/xlink" x="0px" y="0px"
	 viewBox="0 0 56.4 56.4" style="enable-background:new 0 0 56.4 56.4;" xml:space="preserve">
<style type="text/css">
	.st0{fill:#FFFFFF;}
</style>
<g>
	<g>
		<g>
			<path class="st0" d="M41.5,4.7c-1-0.6-2.1-1.1-3.2-1.6L37,6.3c1,0.4,1.9,0.8,2.8,1.4L41.5,4.7z"/>
			<path class="st0" d="M44.5,6.7l-2,2.7c8.7,6.6,11.7,18.2,7.4,28.2l3.1,1.3C57.9,27.6,54.4,14.3,44.5,6.7z"/>
			<path class="st0" d="M14.9,51.7c1,0.6,2.1,1.1,3.2,1.6l1.3-3.1c-1-0.4-1.9-0.8-2.8-1.4L14.9,51.7z"/>
			<path class="st0" d="M4.6,28.2c0-3.2,0.7-6.5,2-9.4l-3.1-1.3c-5,11.4-1.5,24.7,8.4,32.3l2-2.7C8,42.6,4.6,35.6,4.6,28.2z"/>
			<path class="st0" d="M16.4,11.4h-4.7C16.1,7,22,4.6,28.2,4.6c2,0,3.9,0.2,5.8,0.7l0.8-3.3c-9-2.3-18.5,0.2-25.2,6.6V4.6H6.3v10.1
				h10.1L16.4,11.4L16.4,11.4z"/>
			<path class="st0" d="M40,45.1h4.7c-4.4,4.3-10.3,6.8-16.5,6.7c-2,0-3.9-0.2-5.8-0.7l-0.8,3.3c2.2,0.6,4.4,0.8,6.7,0.8
				c6.9,0,13.6-2.6,18.5-7.4v4.1h3.4V41.7H40V45.1z"/>
		</g>
	</g>
</g>
<path class="st0" d="M25,42.1c0.6,0,1.2,0,1.8-0.1c3.5-0.5,7-2.3,9.9-5.1c2.8-2.8,4.6-6.3,5.1-9.9c0.5-3.7-0.5-7-2.9-9.4
	s-5.7-3.3-9.4-2.9c-3.5,0.5-7,2.3-9.9,5.1c-2.8,2.8-4.6,6.3-5.1,9.9c-0.5,3.7,0.5,7,2.9,9.4C19.4,41.1,22.1,42.1,25,42.1L25,42.1z
	 M38.4,26.6c-0.4,2.8-1.8,5.6-4.1,7.9c-2.3,2.3-5.1,3.7-7.9,4.1c-2.4,0.3-4.6-0.2-6.1-1.5c0.7-0.4,1.3-0.5,2-0.7
	c1.3-0.3,3-0.7,4.9-2.7c1.9-1.9,2.3-3.6,2.7-4.9c0.3-1.2,0.5-2.1,1.8-3.3c1.3-1.3,2.2-1.5,3.3-1.8c0.9-0.2,1.9-0.5,3.1-1.2
	C38.5,23.7,38.6,25.1,38.4,26.6z M18,30.2c0.4-2.8,1.8-5.6,4.1-7.9c2.3-2.3,5.1-3.7,7.9-4.1c0.5-0.1,0.9-0.1,1.3-0.1
	c1.9,0,3.5,0.6,4.8,1.6c-0.7,0.4-1.3,0.5-2,0.7c-1.3,0.3-3,0.7-4.9,2.7c-1.9,1.9-2.3,3.6-2.7,4.9c-0.3,1.2-0.5,2.1-1.8,3.3
	c-1.3,1.3-2.2,1.5-3.3,1.8c-0.9,0.2-1.9,0.5-3.1,1.2C17.9,33.1,17.8,31.7,18,30.2L18,30.2z"/>
</svg>
