<svg xmlns="http://www.w3.org/2000/svg" xmlns:xlink="http://www.w3.org/1999/xlink" width="29" height="27" viewBox="0 0 29 27">
    <defs>
        <path id="prefix__b" d="M0.118 0.277L6.471 0.277 6.471 16.409 0.118 16.409z"/>
        <path id="prefix__d" d="M0 0.122L6.355 0.122 6.355 16.255 0 16.255z"/>
        <filter id="prefix__a">
            <feColorMatrix in="SourceGraphic" values="0 0 0 0 0.470588 0 0 0 0 0.737255 0 0 0 0 0.937255 0 0 0 1.000000 0"/>
        </filter>
    </defs>
    <g fill="none" fill-rule="evenodd" filter="url(#prefix__a)" transform="translate(-3.5 -4)">
        <g>
            <path fill="#000" d="M20.144 1.756c-.521-.297-1.061-.558-1.617-.782l-.63 1.564c.486.195.958.423 1.412.683l.835-1.465z" transform="translate(4 4)"/>
            <g transform="translate(4 4) translate(20.5 2.468)">
                <mask id="prefix__c" fill="#fff">
                    <use xlink:href="#prefix__b"/>
                </mask>
                <path fill="#000" d="M1.139.277L.119 1.618c4.337 3.293 5.859 9.125 3.683 14.117l1.544.674C7.833 10.705 6.095 4.04 1.139.277" mask="url(#prefix__c)"/>
            </g>
            <path fill="#000" d="M6.828 25.213c.521.296 1.061.557 1.617.78l.631-1.562c-.486-.196-.958-.424-1.414-.683l-.834 1.465z" transform="translate(4 4)"/>
            <g transform="translate(4 4) translate(0 7.968)">
                <mask id="prefix__e" fill="#fff">
                    <use xlink:href="#prefix__d"/>
                </mask>
                <path fill="#000" d="M1.688 5.516c-.001-1.624.333-3.23.983-4.72L1.125.123c-2.488 5.705-.749 12.37 4.21 16.133l1.02-1.342c-2.95-2.222-4.68-5.704-4.667-9.397" mask="url(#prefix__e)"/>
            </g>
            <path fill="#000" d="M7.587 5.057H5.25c2.19-2.171 5.152-3.384 8.236-3.371.983 0 1.962.122 2.915.363l.415-1.633c-4.49-1.144-9.253.108-12.6 3.313V1.686H2.53v5.056h5.057V5.057zM19.386 21.912h2.333c-2.19 2.168-5.151 3.38-8.233 3.37-.982 0-1.961-.121-2.914-.362l-.415 1.633c1.089.276 2.207.415 3.33.415 3.455.01 6.78-1.324 9.27-3.72v2.034h1.685v-5.056h-5.056v1.686zM8.376 14.494c.186-1.405.917-2.807 2.058-3.949 1.141-1.14 2.544-1.872 3.95-2.058.228-.03.452-.045.67-.045.936 0 1.761.277 2.39.804-.327.185-.634.26-.987.348-.67.164-1.505.37-2.466 1.331-.962.962-1.167 1.796-1.332 2.467-.143.584-.257 1.044-.883 1.67-.627.627-1.087.74-1.67.884-.448.11-.967.238-1.548.595-.216-.605-.28-1.3-.182-2.047m10.216-1.798c-.186 1.405-.917 2.808-2.059 3.949-1.14 1.14-2.543 1.872-3.948 2.058-1.212.16-2.286-.11-3.06-.76.326-.184.633-.26.986-.347.67-.165 1.505-.37 2.467-1.332.961-.961 1.166-1.796 1.331-2.466.144-.584.257-1.045.884-1.671.626-.626 1.087-.74 1.67-.883.446-.11.966-.238 1.547-.595.216.605.28 1.3.182 2.047m-6.686 7.752c.294 0 .595-.02.902-.06 1.773-.236 3.523-1.138 4.927-2.542 1.404-1.404 2.307-3.154 2.541-4.927.246-1.857-.26-3.523-1.427-4.689s-2.832-1.673-4.69-1.427c-1.772.234-3.522 1.137-4.926 2.54-1.404 1.405-2.307 3.155-2.541 4.928-.246 1.858.26 3.523 1.427 4.69.974.973 2.296 1.487 3.787 1.487" transform="translate(4 4)"/>
        </g>
    </g>
</svg>
