<svg xmlns="http://www.w3.org/2000/svg" width="25" height="25" viewBox="0 0 25 25">
    <path fill="#FFF" fill-rule="evenodd" d="M16.259 5.188H11.91c.458-.549.734-1.255.734-2.024C12.645 1.42 11.226 0 9.481 0 7.737 0 6.317 1.42 6.317 3.164c0 .77.277 1.475.735 2.024H2.704L0 19.456h18.963L16.259 5.188zM9.48 1.14c1.116 0 2.024.908 2.024 2.024s-.908 2.024-2.024 2.024-2.024-.908-2.024-2.024.908-2.024 2.024-2.024zM3.648 6.328h11.667l2.271 11.988H1.376L3.648 6.328zm5.856 3.726H8.211L6.4 11.861v-1.807h-.93v4.556h.93v-1.557l.47-.457 1.417 2.014h1.2l-1.954-2.653 1.97-1.903zm1.84 2.917h1.229v.5c-.1.072-.234.143-.401.21-.205.083-.417.125-.631.125-.245 0-.48-.055-.697-.163-.21-.104-.366-.26-.477-.476-.114-.223-.171-.508-.171-.849 0-.276.049-.535.145-.768.054-.13.131-.25.23-.36.093-.104.22-.19.378-.256.16-.067.357-.1.583-.1.185 0 .354.031.503.094.141.06.25.138.323.233.078.103.147.251.202.44l.053.178.856-.235-.047-.18c-.078-.305-.196-.559-.35-.754-.16-.2-.379-.357-.653-.466-.265-.107-.564-.16-.89-.16-.445 0-.846.093-1.192.278-.353.19-.627.482-.814.87-.182.376-.274.787-.274 1.22 0 .44.093.843.277 1.201.189.366.471.65.84.843.361.19.767.286 1.206.286.326 0 .648-.06.956-.177.306-.115.606-.29.892-.517l.071-.057v-1.83l-2.147.003v.867z"/>
</svg>
