<svg xmlns="http://www.w3.org/2000/svg" width="18" height="18" viewBox="0 0 18 18">
    <path fill="#8798AD" fill-rule="evenodd" d="M13.866 5.895h-3.13c.33-.395.529-.903.529-1.457 0-1.256-1.022-2.278-2.278-2.278-1.257 0-2.279 1.022-2.279 2.278 0 .554.2 1.062.53 1.457H4.106L2.16 16.168h13.653L13.866 5.895zm-4.88-2.914c.804 0 1.458.654 1.458 1.457 0 .804-.654 1.457-1.457 1.457-.804 0-1.458-.653-1.458-1.457 0-.803.654-1.457 1.458-1.457zm-4.2 3.735h8.4l1.636 8.632H3.151l1.636-8.632zM9.004 9.4h-.931l-1.303 1.3V9.4H6.1v3.28h.67v-1.12l.338-.33 1.02 1.45h.864l-1.406-1.91L9.003 9.4zm1.325 2.1h.884v.36c-.07.052-.168.103-.288.152-.148.06-.3.09-.454.09-.177 0-.346-.04-.503-.118-.15-.075-.263-.187-.342-.343-.083-.16-.124-.366-.124-.611 0-.199.035-.385.104-.553.04-.094.095-.18.166-.26.067-.074.16-.136.273-.183.115-.049.256-.073.42-.073.132 0 .254.023.361.068.102.043.18.1.233.168.056.074.105.18.145.317l.038.128.616-.17-.033-.128c-.056-.22-.141-.403-.253-.543-.114-.144-.272-.258-.47-.337-.19-.076-.406-.115-.64-.115-.32 0-.61.068-.858.2-.255.137-.452.348-.587.627-.13.271-.197.567-.197.879 0 .316.067.607.2.864.136.264.339.468.605.607.26.137.552.206.868.206.234 0 .466-.043.688-.127.22-.083.437-.209.642-.373l.052-.04v-1.318l-1.546.002v.624z"/>
</svg>
