<svg xmlns="http://www.w3.org/2000/svg" width="22.162" height="14.52">
    <defs>
        <style>
            .cls-1{fill:#f5f5f5}.cls-2{fill:#ff4b55}
        </style>
    </defs>
    <g id="flag_icon" transform="translate(-299.919 -236)">
        <g id="USA_flag" data-name="USA flag" transform="translate(254.902 -172.445)">
            <path id="Path_15016" data-name="Path 15016" class="cls-1" d="M65.52 408.445H46.677a1.66 1.66 0 0 0-1.66 1.659v11.2a1.66 1.66 0 0 0 1.66 1.66H65.52a1.66 1.66 0 0 0 1.659-1.66V410.1a1.659 1.659 0 0 0-1.659-1.655z"/>
            <g id="Group_44789" data-name="Group 44789">
                <path id="Path_15017" data-name="Path 15017" class="cls-2" d="M45.108 409.562h21.98a1.66 1.66 0 0 0-1.568-1.117H46.677a1.66 1.66 0 0 0-1.569 1.117z"/>
                <path id="Rectangle_9158" data-name="Rectangle 9158" class="cls-2" transform="translate(45.017 412.912)" d="M0 0h22.162v1.117H0z"/>
                <path id="Rectangle_9159" data-name="Rectangle 9159" class="cls-2" transform="translate(45.017 410.678)" d="M0 0h22.162v1.117H0z"/>
                <path id="Path_15018" data-name="Path 15018" class="cls-2" d="M45.017 415.881a.382.382 0 0 0 .382.382h21.78v-1.117H45.017z"/>
                <path id="Rectangle_9160" data-name="Rectangle 9160" class="cls-2" transform="translate(45.017 419.614)" d="M0 0h22.162v1.117H0z"/>
                <path id="Path_15019" data-name="Path 15019" class="cls-2" d="M67.088 421.848h-21.98a1.66 1.66 0 0 0 1.569 1.117H65.52a1.66 1.66 0 0 0 1.568-1.117z"/>
                <path id="Rectangle_9161" data-name="Rectangle 9161" class="cls-2" transform="translate(45.017 417.38)" d="M0 0h22.162v1.117H0z"/>
            </g>
            <path id="Path_15020" data-name="Path 15020" d="M45.4 416.263h9.553a.382.382 0 0 0 .382-.382v-7.054a.382.382 0 0 0-.382-.382h-8.276a1.66 1.66 0 0 0-1.66 1.659v5.777a.382.382 0 0 0 .383.382z" style="fill:#41479b"/>
            <g id="Group_44790" data-name="Group 44790">
                <path id="Path_15021" data-name="Path 15021" class="cls-1" d="m46.09 409.322.085.253h.267a.036.036 0 0 1 .021.065l-.215.159.081.255a.036.036 0 0 1-.056.04l-.217-.155-.218.155a.036.036 0 0 1-.055-.04l.081-.255-.215-.159a.036.036 0 0 1 .021-.065h.267l.085-.253a.036.036 0 0 1 .068 0z"/>
                <path id="Path_15022" data-name="Path 15022" class="cls-1" d="m46.09 410.649.085.253h.267a.036.036 0 0 1 .021.065l-.215.159.081.255a.036.036 0 0 1-.056.04l-.217-.155-.218.155a.036.036 0 0 1-.055-.04l.081-.255-.215-.159a.036.036 0 0 1 .021-.065h.267l.085-.253a.036.036 0 0 1 .068 0z"/>
                <path id="Path_15023" data-name="Path 15023" class="cls-1" d="m46.09 411.976.085.253h.267a.036.036 0 0 1 .021.065l-.215.159.081.255a.036.036 0 0 1-.056.04l-.217-.155-.218.155a.036.036 0 0 1-.055-.04l.081-.255-.215-.159a.036.036 0 0 1 .021-.065h.267l.085-.253a.036.036 0 0 1 .068 0z"/>
                <path id="Path_15024" data-name="Path 15024" class="cls-1" d="m46.09 413.3.085.254h.267a.036.036 0 0 1 .021.065l-.215.159.081.255a.036.036 0 0 1-.056.04l-.217-.155-.218.155a.036.036 0 0 1-.055-.04l.081-.255-.215-.159a.036.036 0 0 1 .021-.065h.267l.085-.254a.036.036 0 0 1 .068 0z"/>
                <path id="Path_15025" data-name="Path 15025" class="cls-1" d="m46.09 414.629.085.254h.267a.036.036 0 0 1 .021.065l-.215.159.081.255a.036.036 0 0 1-.056.04l-.217-.156-.218.156a.036.036 0 0 1-.055-.04l.081-.255-.215-.159a.036.036 0 0 1 .021-.065h.267l.085-.254a.036.036 0 0 1 .068 0z"/>
                <path id="Path_15026" data-name="Path 15026" class="cls-1" d="m47.12 409.972.085.254h.267a.036.036 0 0 1 .021.065l-.215.159.081.255a.036.036 0 0 1-.056.04l-.217-.156-.218.156a.036.036 0 0 1-.055-.04l.081-.255-.215-.159a.036.036 0 0 1 .021-.065h.267l.085-.254a.036.036 0 0 1 .068 0z"/>
                <path id="Path_15027" data-name="Path 15027" class="cls-1" d="m47.12 411.3.085.254h.267a.036.036 0 0 1 .021.065l-.215.159.081.255a.036.036 0 0 1-.056.04l-.217-.156-.218.156a.036.036 0 0 1-.055-.04l.081-.255-.215-.159a.036.036 0 0 1 .021-.065h.267l.085-.254a.036.036 0 0 1 .068 0z"/>
                <path id="Path_15028" data-name="Path 15028" class="cls-1" d="m47.12 412.626.085.254h.267a.036.036 0 0 1 .021.065l-.215.159.081.255a.036.036 0 0 1-.056.04l-.217-.156-.218.156a.036.036 0 0 1-.055-.04l.081-.255-.215-.159a.036.036 0 0 1 .021-.065h.267l.085-.254a.036.036 0 0 1 .068 0z"/>
                <path id="Path_15029" data-name="Path 15029" class="cls-1" d="m47.12 413.953.085.254h.267a.036.036 0 0 1 .021.065l-.215.158.081.255a.037.037 0 0 1-.056.041l-.217-.156-.218.156a.036.036 0 0 1-.055-.041l.081-.255-.215-.158a.036.036 0 0 1 .021-.065h.267l.085-.254a.036.036 0 0 1 .068 0z"/>
                <path id="Path_15030" data-name="Path 15030" class="cls-1" d="m48.15 409.322.084.253h.268a.036.036 0 0 1 .021.065l-.215.159.081.255a.036.036 0 0 1-.056.04l-.217-.155-.218.155a.036.036 0 0 1-.055-.04l.081-.255-.216-.159a.036.036 0 0 1 .022-.065h.267l.085-.253a.036.036 0 0 1 .068 0z"/>
                <path id="Path_15031" data-name="Path 15031" class="cls-1" d="m48.15 410.649.084.253h.268a.036.036 0 0 1 .021.065l-.215.159.081.255a.036.036 0 0 1-.056.04l-.217-.155-.218.155a.036.036 0 0 1-.055-.04l.081-.255-.216-.159a.036.036 0 0 1 .022-.065h.267l.085-.253a.036.036 0 0 1 .068 0z"/>
                <path id="Path_15032" data-name="Path 15032" class="cls-1" d="m48.15 411.976.084.253h.268a.036.036 0 0 1 .021.065l-.215.159.081.255a.036.036 0 0 1-.056.04l-.217-.155-.218.155a.036.036 0 0 1-.055-.04l.081-.255-.216-.159a.036.036 0 0 1 .022-.065h.267l.085-.253a.036.036 0 0 1 .068 0z"/>
                <path id="Path_15033" data-name="Path 15033" class="cls-1" d="m48.15 413.3.084.254h.268a.036.036 0 0 1 .021.065l-.215.159.081.255a.036.036 0 0 1-.056.04l-.217-.155-.218.155a.036.036 0 0 1-.055-.04l.081-.255-.216-.159a.036.036 0 0 1 .022-.065h.267l.085-.254a.036.036 0 0 1 .068 0z"/>
                <path id="Path_15034" data-name="Path 15034" class="cls-1" d="m48.15 414.629.084.254h.268a.036.036 0 0 1 .021.065l-.215.159.081.255a.036.036 0 0 1-.056.04l-.217-.156-.218.156a.036.036 0 0 1-.055-.04l.081-.255-.216-.159a.036.036 0 0 1 .022-.065h.267l.085-.254a.036.036 0 0 1 .068 0z"/>
                <path id="Path_15035" data-name="Path 15035" class="cls-1" d="m49.18 409.972.084.254h.268a.036.036 0 0 1 .021.065l-.215.159.08.255a.036.036 0 0 1-.055.04l-.217-.156-.218.156a.036.036 0 0 1-.055-.04l.08-.255-.215-.159a.036.036 0 0 1 .022-.065h.267l.084-.254a.036.036 0 0 1 .069 0z"/>
                <path id="Path_15036" data-name="Path 15036" class="cls-1" d="m49.18 411.3.084.254h.268a.036.036 0 0 1 .021.065l-.215.159.08.255a.036.036 0 0 1-.055.04l-.217-.156-.218.156a.036.036 0 0 1-.055-.04l.08-.255-.215-.159a.036.036 0 0 1 .022-.065h.267l.084-.254a.036.036 0 0 1 .069 0z"/>
                <path id="Path_15037" data-name="Path 15037" class="cls-1" d="m49.18 412.626.084.254h.268a.036.036 0 0 1 .021.065l-.215.159.08.255a.036.036 0 0 1-.055.04l-.217-.156-.218.156a.036.036 0 0 1-.055-.04l.08-.255-.215-.159a.036.036 0 0 1 .022-.065h.267l.084-.254a.036.036 0 0 1 .069 0z"/>
                <path id="Path_15038" data-name="Path 15038" class="cls-1" d="m49.18 413.953.084.254h.268a.036.036 0 0 1 .021.065l-.215.158.08.255a.036.036 0 0 1-.055.041l-.217-.156-.218.156a.036.036 0 0 1-.055-.041l.08-.255-.215-.158a.036.036 0 0 1 .022-.065h.267l.084-.254a.036.036 0 0 1 .069 0z"/>
                <path id="Path_15039" data-name="Path 15039" class="cls-1" d="m50.21 409.322.084.253h.268a.036.036 0 0 1 .021.065l-.215.159.08.255a.036.036 0 0 1-.055.04l-.218-.155-.217.155a.036.036 0 0 1-.055-.04l.08-.255-.215-.159a.036.036 0 0 1 .021-.065h.268l.084-.253a.036.036 0 0 1 .069 0z"/>
                <path id="Path_15040" data-name="Path 15040" class="cls-1" d="m50.21 410.649.084.253h.268a.036.036 0 0 1 .021.065l-.215.159.08.255a.036.036 0 0 1-.055.04l-.218-.155-.217.155a.036.036 0 0 1-.055-.04l.08-.255-.215-.159a.036.036 0 0 1 .021-.065h.268l.084-.253a.036.036 0 0 1 .069 0z"/>
                <path id="Path_15041" data-name="Path 15041" class="cls-1" d="m50.21 411.976.084.253h.268a.036.036 0 0 1 .021.065l-.215.159.08.255a.036.036 0 0 1-.055.04l-.218-.155-.217.155a.036.036 0 0 1-.055-.04l.08-.255-.215-.159a.036.036 0 0 1 .021-.065h.268l.084-.254a.037.037 0 0 1 .069.001z"/>
                <path id="Path_15042" data-name="Path 15042" class="cls-1" d="m50.21 413.3.084.254h.268a.036.036 0 0 1 .021.065l-.215.159.08.255a.036.036 0 0 1-.055.04l-.218-.155-.217.155a.036.036 0 0 1-.055-.04l.08-.255-.215-.159a.036.036 0 0 1 .021-.065h.268l.084-.254a.037.037 0 0 1 .069 0z"/>
                <path id="Path_15043" data-name="Path 15043" class="cls-1" d="m50.21 414.629.084.254h.268a.036.036 0 0 1 .021.065l-.215.159.08.255a.036.036 0 0 1-.055.04l-.218-.156-.217.156a.036.036 0 0 1-.055-.04l.08-.255-.215-.159a.036.036 0 0 1 .021-.065h.268l.084-.254a.036.036 0 0 1 .069 0z"/>
                <path id="Path_15044" data-name="Path 15044" class="cls-1" d="m51.24 409.972.084.254h.268a.036.036 0 0 1 .021.065l-.215.159.08.255a.036.036 0 0 1-.055.04l-.218-.156-.217.156a.036.036 0 0 1-.055-.04l.08-.255-.215-.159a.036.036 0 0 1 .021-.065h.268l.084-.254a.036.036 0 0 1 .069 0z"/>
                <path id="Path_15045" data-name="Path 15045" class="cls-1" d="m51.24 411.3.084.254h.268a.036.036 0 0 1 .021.065l-.215.159.08.255a.036.036 0 0 1-.055.04l-.218-.156-.217.156a.036.036 0 0 1-.055-.04l.08-.255-.215-.159a.036.036 0 0 1 .021-.065h.268l.084-.254a.036.036 0 0 1 .069 0z"/>
                <path id="Path_15046" data-name="Path 15046" class="cls-1" d="m51.24 412.626.084.254h.268a.036.036 0 0 1 .021.065l-.215.159.08.255a.036.036 0 0 1-.055.04l-.218-.156-.217.156a.036.036 0 0 1-.055-.04l.08-.255-.215-.159a.036.036 0 0 1 .021-.065h.268l.084-.254a.036.036 0 0 1 .069 0z"/>
                <path id="Path_15047" data-name="Path 15047" class="cls-1" d="m51.24 413.953.084.254h.268a.036.036 0 0 1 .021.065l-.215.158.08.255a.036.036 0 0 1-.055.041l-.218-.156-.217.156a.036.036 0 0 1-.055-.041l.08-.255-.215-.158a.036.036 0 0 1 .021-.065h.268l.084-.254a.036.036 0 0 1 .069 0z"/>
                <path id="Path_15048" data-name="Path 15048" class="cls-1" d="m52.27 409.322.084.253h.267a.036.036 0 0 1 .022.065l-.215.159.08.255a.036.036 0 0 1-.055.04l-.218-.155-.217.155a.036.036 0 0 1-.055-.04l.08-.255-.215-.159a.036.036 0 0 1 .021-.065h.268l.084-.253a.036.036 0 0 1 .069 0z"/>
                <path id="Path_15049" data-name="Path 15049" class="cls-1" d="m52.27 410.649.084.253h.267a.036.036 0 0 1 .022.065l-.215.159.08.255a.036.036 0 0 1-.055.04l-.218-.155-.217.155a.036.036 0 0 1-.055-.04l.08-.255-.215-.159a.036.036 0 0 1 .021-.065h.268l.084-.253a.036.036 0 0 1 .069 0z"/>
                <path id="Path_15050" data-name="Path 15050" class="cls-1" d="m52.27 411.976.084.253h.267a.036.036 0 0 1 .022.065l-.215.159.08.255a.036.036 0 0 1-.055.04l-.218-.155-.217.155a.036.036 0 0 1-.055-.04l.08-.255-.215-.159a.036.036 0 0 1 .021-.065h.268l.084-.253a.036.036 0 0 1 .069 0z"/>
                <path id="Path_15051" data-name="Path 15051" class="cls-1" d="m52.27 413.3.084.254h.267a.036.036 0 0 1 .022.065l-.215.159.08.255a.036.036 0 0 1-.055.04l-.218-.155-.217.155a.036.036 0 0 1-.055-.04l.08-.255-.215-.159a.036.036 0 0 1 .021-.065h.268l.084-.254a.037.037 0 0 1 .069 0z"/>
                <path id="Path_15052" data-name="Path 15052" class="cls-1" d="m52.27 414.629.084.254h.267a.036.036 0 0 1 .022.065l-.215.159.08.255a.036.036 0 0 1-.055.04l-.218-.156-.217.156a.036.036 0 0 1-.055-.04l.08-.255-.215-.159a.036.036 0 0 1 .021-.065h.268l.084-.254a.036.036 0 0 1 .069 0z"/>
                <path id="Path_15053" data-name="Path 15053" class="cls-1" d="m53.3 409.972.085.254h.267a.036.036 0 0 1 .021.065l-.215.159.081.255a.036.036 0 0 1-.055.04l-.218-.156-.217.156a.036.036 0 0 1-.056-.04l.081-.255-.215-.159a.036.036 0 0 1 .021-.065h.268l.084-.254a.036.036 0 0 1 .068 0z"/>
                <path id="Path_15054" data-name="Path 15054" class="cls-1" d="m53.3 411.3.085.254h.267a.036.036 0 0 1 .021.065l-.215.159.081.255a.036.036 0 0 1-.055.04l-.218-.156-.217.156a.036.036 0 0 1-.056-.04l.081-.255-.215-.159a.036.036 0 0 1 .021-.065h.268l.084-.254a.036.036 0 0 1 .068 0z"/>
                <path id="Path_15055" data-name="Path 15055" class="cls-1" d="m53.3 412.626.085.254h.267a.036.036 0 0 1 .021.065l-.215.159.081.255a.036.036 0 0 1-.055.04l-.218-.156-.217.156a.036.036 0 0 1-.056-.04l.081-.255-.215-.159a.036.036 0 0 1 .021-.065h.268l.084-.254a.036.036 0 0 1 .068 0z"/>
                <path id="Path_15056" data-name="Path 15056" class="cls-1" d="m53.3 413.953.085.254h.267a.036.036 0 0 1 .021.065l-.215.158.081.255a.036.036 0 0 1-.055.041l-.218-.156-.217.156a.037.037 0 0 1-.056-.041l.081-.255-.215-.158a.036.036 0 0 1 .021-.065h.268l.084-.254a.036.036 0 0 1 .068 0z"/>
                <path id="Path_15057" data-name="Path 15057" class="cls-1" d="m54.329 409.322.085.253h.267a.036.036 0 0 1 .021.065l-.215.159.081.255a.036.036 0 0 1-.055.04l-.218-.155-.217.155a.036.036 0 0 1-.056-.04l.081-.255-.215-.159a.036.036 0 0 1 .021-.065h.267l.085-.253a.036.036 0 0 1 .068 0z"/>
                <path id="Path_15058" data-name="Path 15058" class="cls-1" d="m54.329 410.649.085.253h.267a.036.036 0 0 1 .021.065l-.215.159.081.255a.036.036 0 0 1-.055.04l-.218-.155-.217.155a.036.036 0 0 1-.056-.04l.081-.255-.215-.159a.036.036 0 0 1 .021-.065h.267l.085-.253a.036.036 0 0 1 .068 0z"/>
                <path id="Path_15059" data-name="Path 15059" class="cls-1" d="m54.329 411.976.085.253h.267a.036.036 0 0 1 .021.065l-.215.159.081.255a.036.036 0 0 1-.055.04l-.218-.155-.217.155a.036.036 0 0 1-.056-.04l.081-.255-.215-.159a.036.036 0 0 1 .021-.065h.267l.085-.253a.036.036 0 0 1 .068 0z"/>
                <path id="Path_15060" data-name="Path 15060" class="cls-1" d="m54.329 413.3.085.254h.267a.036.036 0 0 1 .021.065l-.215.159.081.255a.036.036 0 0 1-.055.04l-.218-.155-.217.155a.036.036 0 0 1-.056-.04l.081-.255-.215-.159a.036.036 0 0 1 .021-.065h.267l.085-.254a.036.036 0 0 1 .068 0z"/>
                <path id="Path_15061" data-name="Path 15061" class="cls-1" d="m54.329 414.629.085.254h.267a.036.036 0 0 1 .021.065l-.215.159.081.255a.036.036 0 0 1-.055.04l-.218-.156-.217.156a.036.036 0 0 1-.056-.04l.081-.255-.215-.159a.036.036 0 0 1 .021-.065h.267l.085-.254a.036.036 0 0 1 .068 0z"/>
            </g>
        </g>
    </g>
</svg>
