<?xml version="1.0" encoding="UTF-8"?>
<svg width="92px" height="124px" viewBox="0 0 92 124" version="1.1" xmlns="http://www.w3.org/2000/svg" xmlns:xlink="http://www.w3.org/1999/xlink">
    <title>B155E242-06EB-4727-9D9D-17B4871CF3D7</title>
    <defs>
        <filter id="filter-1">
            <feColorMatrix in="SourceGraphic" type="matrix" values="0 0 0 0 0.525490 0 0 0 0 0.603922 0 0 0 0 0.674510 0 0 0 1.000000 0"></feColorMatrix>
        </filter>
        <polygon id="path-2" points="0.000238839458 0.103384615 17.1409506 0.103384615 17.1409506 41.6927538 0.000238839458 41.6927538"></polygon>
        <polygon id="path-4" points="0.0699854167 0.1485575 6.895875 0.1485575 6.895875 4.54982937 0.0699854167 4.54982937"></polygon>
        <filter id="filter-6">
            <feColorMatrix in="SourceGraphic" type="matrix" values="0 0 0 0 0.000000 0 0 0 0 0.407843 0 0 0 0 1.000000 0 0 0 1.000000 0"></feColorMatrix>
        </filter>
    </defs>
    <g id="Receiving-ticket-2" stroke="none" stroke-width="1" fill="none" fill-rule="evenodd">
        <g id="receiving-ticket_detail_transportista-empty" transform="translate(-1171.000000, -408.000000)">
            <g id="Group" transform="translate(1081.000000, 388.000000)">
                <g id="vehiculo_empty" transform="translate(90.000000, 20.000000)">
                    <g filter="url(#filter-1)" id="Group-9">
                        <g transform="translate(46.000000, 49.000000) rotate(-202.000000) translate(-46.000000, -49.000000) translate(13.000000, 10.000000)">
                            <g id="Group-3" transform="translate(0.062710, 0.240908)">
                                <mask id="mask-3" fill="white">
                                    <use xlink:href="#path-2"></use>
                                </mask>
                                <g id="Clip-2"></g>
                                <path d="M12.058447,1.42929231 C12.494727,0.982638462 12.9349878,0.540830769 13.3768408,0.103061538 L13.9381135,0.687023077 C13.499445,1.12156154 13.0623688,1.56013846 12.6292733,2.00356154 L12.058447,1.42929231 Z M9.50047636,4.16736923 C9.91526089,3.70052308 10.3372106,3.23771538 10.7639371,2.78217692 L11.3467054,3.34352308 C10.9247557,3.79502308 10.5083789,4.25136923 10.097575,4.71256154 L9.50047636,4.16736923 Z M7.09297462,7.04921538 C7.47671002,6.55571538 7.87159126,6.06786923 8.27363768,5.58729231 L8.88665896,6.11552308 C8.49018545,6.58963846 8.10167327,7.0686 7.72351079,7.55483077 L7.09297462,7.04921538 Z M4.90042839,10.1111769 C5.24276495,9.58536923 5.59863574,9.06683077 5.96565238,8.55556154 L6.61529571,9.03613846 C6.25624039,9.53690769 5.90673865,10.0457538 5.57077114,10.5618692 L4.90042839,10.1111769 Z M2.99847017,13.3758692 C3.28507752,12.8153308 3.58919977,12.2628692 3.90765238,11.7176769 L4.59949068,12.1328308 C4.28899938,12.6651 3.99204232,13.2046385 3.71180402,13.7530615 L2.99847017,13.3758692 Z M1.47467443,16.8481385 C1.68883381,16.2625615 1.92608101,15.6705231 2.18323149,15.0873692 L2.91806089,15.4193308 C2.66727946,15.9863308 2.43640132,16.5630231 2.22781485,17.1308308 L1.47467443,16.8481385 Z M0.441295706,20.5142538 C0.563899961,19.8907154 0.713572689,19.2663692 0.885537099,18.6589846 L1.65858081,18.8835231 C1.49298545,19.4699077 1.34808952,20.0724462 1.22946592,20.6741769 L0.441295706,20.5142538 Z M0.000238839458,24.3015231 C0.0233266538,23.6666769 0.0726868085,23.0269846 0.145930909,22.3994077 L0.944450832,22.4955231 C0.873595126,23.1012923 0.826623366,23.7199846 0.80273942,24.3322154 L0.000238839458,24.3015231 Z M0.00660789168,26.2109077 L0.809904603,26.1745615 C0.836973075,26.7884077 0.890313888,27.4062923 0.966742515,28.0080231 L0.169814855,28.1138308 C0.0894055706,27.4894846 0.0344724952,26.8489846 0.00660789168,26.2109077 L0.00660789168,26.2109077 Z M0.498617176,29.9965615 L1.28360286,29.8180615 C1.41655683,30.4206 1.57817153,31.0158692 1.76367017,31.5885231 L0.999383907,31.8429462 C0.805923946,31.2452538 0.637144062,30.6241385 0.498617176,29.9965615 L0.498617176,29.9965615 Z M8.92487327,31.5336 C9.53311776,31.2694846 10.1684307,31.0950231 10.8148895,31.0158692 L10.9128137,31.8259846 C10.3411913,31.8962538 9.77991853,32.0505231 9.24252975,32.2839462 L8.92487327,31.5336 Z M12.6268849,31.8825231 L12.7813344,31.0821 C13.4469003,31.2145615 14.0662907,31.4592923 14.6689622,31.8405231 L14.2000408,32.5028308 C13.7263425,32.2047923 13.196915,31.9964077 12.6268849,31.8825231 L12.6268849,31.8825231 Z M5.9584872,34.0713692 C6.05481911,33.9179077 6.15752008,33.7660615 6.26738623,33.6190615 C6.54921679,33.2386385 6.88120364,32.8848692 7.25379319,32.5706769 L7.76889029,33.1966385 C7.44406863,33.4720615 7.15507288,33.7789846 6.90906824,34.1101385 C6.81353246,34.2385615 6.72277346,34.3710231 6.63838352,34.5067154 L5.9584872,34.0713692 Z M15.4213065,33.6804462 L16.0765228,33.2087538 C16.4554814,33.7507154 16.7412926,34.3597154 16.9244029,35.0196 L16.1521553,35.2417154 C15.9921328,34.6714846 15.7469243,34.1464846 15.4213065,33.6804462 L15.4213065,33.6804462 Z M1.68166863,33.6311769 L2.41490576,33.2967923 C2.6632988,33.8581385 2.94274097,34.4049462 3.24447482,34.9218692 L2.55263652,35.3370231 C2.23498004,34.7950615 1.94279977,34.2207923 1.68166863,33.6311769 L1.68166863,33.6311769 Z M3.61467598,36.9306 L4.2515812,36.4338692 C4.45539087,36.7036385 4.66955025,36.9661385 4.89087482,37.2197538 C4.94262337,36.7609846 5.0317901,36.3119077 5.15757888,35.8797923 L5.9282342,36.1107923 C5.7666195,36.6681 5.67267598,37.2561 5.6479959,37.8586385 L5.39323381,37.8481385 L4.86380634,38.3812154 C4.42195335,37.9297154 4.0015959,37.4426769 3.61467598,36.9306 L3.61467598,36.9306 Z M15.9196849,38.6106 C16.1601166,38.1138692 16.3010319,37.5581769 16.3376539,36.9621 L17.1409506,37.0121769 C17.0971634,37.7181 16.9291797,38.3763692 16.6401839,38.9716385 L15.9196849,38.6106 Z M6.2944547,39.6597923 L6.77770654,39.0079846 C7.24503574,39.3657923 7.75296766,39.6824077 8.28717191,39.9513692 L7.92970886,40.6823308 C7.35092124,40.3907538 6.80079435,40.0474846 6.2944547,39.6597923 L6.2944547,39.6597923 Z M13.3752485,40.6863692 C13.9341328,40.5256385 14.4380841,40.2663692 14.8719758,39.9158308 L15.3727425,40.5539077 C14.855257,40.9731 14.2565661,41.2816385 13.5941847,41.4706385 L13.3752485,40.6863692 Z M9.72578159,41.3826 L9.93914484,40.5959077 C10.5298744,40.7614846 11.1126427,40.8551769 11.6699348,40.8777923 L11.6396818,41.6927538 C11.0194953,41.6685231 10.376221,41.5643308 9.72578159,41.3826 L9.72578159,41.3826 Z" id="Fill-1" fill="#000000" mask="url(#mask-3)"></path>
                            </g>
                            <g id="Group-6" transform="translate(58.290840, 72.618969)">
                                <mask id="mask-5" fill="white">
                                    <use xlink:href="#path-4"></use>
                                </mask>
                                <g id="Clip-5"></g>
                                <polygon id="Fill-4" fill="#000000" mask="url(#mask-5)" points="0.0699854167 0.790960625 0.675728472 0.19803875 3.50363125 3.284645 6.28029792 0.1485575 6.89595764 0.73038875 3.51437431 4.54982937"></polygon>
                            </g>
                            <path d="M54.3318098,58.2517265 L54.8815802,57.6471963 C55.3529275,58.0774987 55.8089135,58.5329222 56.2366026,59.0013115 L55.6342806,59.5539785 C55.2235697,59.1042275 54.7853704,58.6658216 54.3318098,58.2517265 L54.3318098,58.2517265 Z M57.8551914,62.4891102 C57.53018,61.9656163 57.1792972,61.4542777 56.813053,60.9696812 L57.4638842,60.4753603 C57.8454896,60.9794055 58.2109252,61.5118134 58.5488723,62.0571872 L57.8551914,62.4891102 Z M51.4042823,56.0175581 L51.8400562,55.3263191 C52.3768908,55.6658609 52.9056406,56.0337653 53.4109443,56.4186873 L52.9169594,57.0710289 C52.4302509,56.6990726 51.9217133,56.3449444 51.4042823,56.0175581 L51.4042823,56.0175581 Z M59.5085451,65.782422 C59.2829775,65.2103063 59.0291129,64.6438632 58.7558447,64.0984894 L59.4842905,63.730585 C59.769686,64.2970282 60.032444,64.8861614 60.2685218,65.4801569 L59.5085451,65.782422 Z M48.1339568,54.3239012 L48.4444154,53.5678333 C49.0313761,53.8101316 49.6159114,54.0807925 50.1802346,54.3733333 L49.8050971,55.0994177 C49.2617946,54.8190324 48.6990884,54.5572855 48.1339568,54.3239012 L48.1339568,54.3239012 Z M60.5652362,69.3172217 C60.4407293,68.7167433 60.288734,68.1138339 60.1132925,67.5263213 L60.8959069,67.2921267 C61.0778162,67.9023294 61.235471,68.527929 61.3640203,69.1510974 L60.5652362,69.3172217 Z M44.6210855,53.2250501 L44.7949099,52.426033 C45.4134017,52.5605531 46.0351273,52.7250566 46.6447257,52.9154917 L46.4013715,53.6966809 C45.8152192,53.5127287 45.2161311,53.354708 44.6210855,53.2250501 L44.6210855,53.2250501 Z M60.9969676,72.9800586 C60.979181,72.3674248 60.9322888,71.7483081 60.8603335,71.1389158 L61.6712449,71.0424827 C61.7464341,71.6753755 61.7933263,72.3188031 61.8127299,72.9557477 L60.9969676,72.9800586 Z M40.9715801,52.7744887 L40.9998771,51.9568333 C41.2804217,51.9665577 41.5617748,51.9811442 41.8439364,52.0014032 C42.1980532,52.0257141 42.553787,52.0605597 42.9070953,52.1043192 L42.8076516,52.9163021 C42.467279,52.8741633 42.1260979,52.8417488 41.7849169,52.8174379 C41.5140741,52.7987996 41.2432313,52.7842131 40.9715801,52.7744887 L40.9715801,52.7744887 Z M60.7786765,76.6599131 C60.8692269,76.0570037 60.9339057,75.4403181 60.9702876,74.8252532 L61.7852414,74.873875 C61.7480511,75.5132507 61.6801382,76.1558679 61.5855454,76.7814675 L60.7786765,76.6599131 Z M37.2687146,52.8992845 L37.1991848,52.0840602 C37.8298038,52.0297659 38.4612313,51.9876271 39.0926588,51.9641266 L39.1225728,52.7825924 C38.504081,52.8044721 37.8863978,52.8458006 37.2687146,52.8992845 L37.2687146,52.8992845 Z M33.5496794,53.3101381 L33.4510441,52.4973449 L33.7178444,52.4657408 C34.2514451,52.4001014 34.7850458,52.3352724 35.3186465,52.2744953 L35.4124309,53.0872885 C34.8796387,53.1480657 34.3484635,53.2128947 33.8156712,53.2777236 L33.5496794,53.3101381 Z M29.7950708,53.7047845 L29.7344343,52.8887498 C30.354543,52.8417488 30.9722263,52.7825924 31.5915265,52.7153323 L31.678843,53.5289359 C31.0522664,53.5970063 30.4240728,53.6577835 29.7950708,53.7047845 L29.7950708,53.7047845 Z M25.9887191,53.7647513 L26.0348028,52.9479062 C26.3460699,52.9657342 26.6581454,52.9754585 26.9694125,52.9811311 C27.2725947,52.9851829 27.5773939,52.9843725 27.8813846,52.9778896 L27.8975543,53.7963554 C27.5846703,53.8028383 27.2701693,53.8036487 26.9572852,53.7987865 C26.6338909,53.7939243 26.311305,53.7825793 25.9887191,53.7647513 L25.9887191,53.7647513 Z M22.208239,53.2501713 L22.379638,52.4503439 C22.983577,52.5808122 23.5947923,52.6885903 24.1987313,52.7704369 L24.0879687,53.5816094 C23.4638176,53.4965214 22.8315816,53.3846914 22.208239,53.2501713 L22.208239,53.2501713 Z M18.5514572,52.1659068 L18.8408951,51.4001145 C19.4157286,51.6181019 20.0043064,51.817451 20.5912671,51.9916789 L20.3592317,52.7761095 C19.7528673,52.5962091 19.1456943,52.3911874 18.5514572,52.1659068 L18.5514572,52.1659068 Z M15.0943714,50.5589586 L15.489721,49.8417881 C16.0281727,50.1408117 16.582794,50.4236281 17.1374153,50.6821337 L16.7930003,51.4244254 C16.2214008,51.1578162 15.6489928,50.8668962 15.0943714,50.5589586 L15.0943714,50.5589586 Z M11.902469,48.4706554 L12.394837,47.8183138 C12.8855879,48.1910804 13.3941255,48.5500708 13.9075141,48.8855608 L13.4604214,49.5711272 C12.9316716,49.2251025 12.4077727,48.854767 11.902469,48.4706554 L11.902469,48.4706554 Z M5.52998307,41.4245564 C5.25994877,40.9788573 5.00365874,40.5226234 4.76272993,40.0582859 L5.4879418,39.6814675 C5.71997726,40.1295977 5.96737394,40.5696244 6.22770641,40.9999267 L5.52998307,41.4245564 Z M9.0404289,45.9439462 L9.62334725,45.3702098 C10.0534618,45.8102364 10.5054054,46.2397283 10.9646254,46.6457198 L10.4253653,47.2599743 C9.94997555,46.8402067 9.48428767,46.397749 9.0404289,45.9439462 L9.0404289,45.9439462 Z M7.75736176,44.5290538 C7.34988486,44.0452676 6.95453524,43.5371706 6.58263172,43.0201595 L7.24559017,42.5420459 C7.60536641,43.0412289 7.98778024,43.5331188 8.38151288,44.0015081 L7.75736176,44.5290538 Z" id="Fill-7" fill="#000000"></path>
                        </g>
                    </g>
                    <g filter="url(#filter-6)" id="load-carriage">
                        <g transform="translate(14.000000, 81.000000)">
                            <path d="M62.4957375,18.0288938 L60.7554938,11.06805 C61.231275,10.9669875 61.588275,10.5448875 61.588275,10.0391813 L61.588275,8.9168625 C61.588275,6.480075 59.6057438,4.497675 57.1690875,4.497675 L49.2426375,4.497675 L49.2426375,2.1826875 C49.2426375,0.9835875 48.2671875,0.0081375 47.0680875,0.0081375 L6.663825,0.0081375 C5.464725,0.0081375 4.489275,0.9835875 4.489275,2.1826875 L4.489275,21.2625 C4.489275,21.8435438 4.96033125,22.3147313 5.54150625,22.3147313 C6.12255,22.3147313 6.5937375,21.843675 6.5937375,21.2625 L6.5937375,2.1826875 C6.5937375,2.14396875 6.62510625,2.1126 6.663825,2.1126 L47.0679563,2.1126 C47.106675,2.1126 47.1380438,2.14396875 47.1380438,2.1826875 L47.1380438,21.2627625 C47.1380438,21.8438063 47.6091,22.3149937 48.190275,22.3149937 C48.7713188,22.3149937 49.2425063,21.8439375 49.2425063,21.2627625 L49.2425063,20.0699625 L61.6546875,20.0699625 C61.6557375,20.0699625 61.656525,20.070225 61.6574438,20.070225 C61.6584938,20.070225 61.6594125,20.0700938 61.6603313,20.0700938 C63.1876875,20.0711438 64.4845688,21.0736313 64.9300312,22.4550375 L61.6582313,22.4550375 C61.0771875,22.4550375 60.606,22.9260938 60.606,23.5072688 L60.606,25.7519063 C60.606,27.56985 62.084925,29.048775 63.9028688,29.048775 L65.0954063,29.048775 L65.0954063,33.6783563 L62.3441438,33.6783563 C61.4403563,31.0687125 58.9596,29.18895 56.0465063,29.18895 C53.1334125,29.18895 50.652525,31.0687125 49.7488688,33.6783563 L49.2422438,33.6783563 L49.2422438,25.751775 C49.2422438,25.1707312 48.7711875,24.6995437 48.1900125,24.6995437 C47.6089688,24.6995437 47.1377813,25.1706 47.1377813,25.751775 L47.1377813,33.6780938 L25.3072313,33.6780938 C24.4034438,31.06845 21.9226875,29.1886875 19.0095938,29.1886875 C16.0965,29.1886875 13.6156125,31.06845 12.7119563,33.6780938 L6.663825,33.6780938 C6.62510625,33.6780938 6.5937375,33.646725 6.5937375,33.6080063 L6.5937375,31.29315 L11.1532313,31.29315 C11.734275,31.29315 12.2054625,30.8220938 12.2054625,30.2409188 C12.2054625,29.6597438 11.7344063,29.1886875 11.1532313,29.1886875 L1.05223125,29.1886875 C0.4711875,29.1886875 0,29.6597438 0,30.2409188 C0,30.8220938 0.47105625,31.29315 1.05223125,31.29315 L4.48940625,31.29315 L4.48940625,33.6080063 C4.48940625,34.8071063 5.46485625,35.7825562 6.66395625,35.7825562 L12.3476063,35.7825562 C12.3473438,35.8059188 12.3457687,35.82915 12.3457687,35.8526438 C12.3457687,39.5271187 15.33525,42.5164688 19.0095938,42.5164688 C22.6839375,42.5164688 25.6734187,39.5271187 25.6734187,35.8526438 C25.6734187,35.8290188 25.6718438,35.8059188 25.6715813,35.7825562 L49.3845187,35.7825562 C49.3842562,35.8059188 49.3826812,35.82915 49.3826812,35.8526438 C49.3826812,39.5271187 52.3721625,42.5164688 56.0465063,42.5164688 C59.72085,42.5164688 62.7103313,39.5271187 62.7103313,35.8526438 C62.7103313,35.8290188 62.7087563,35.8059188 62.7084937,35.7825562 L66.1476375,35.7825562 C66.7286812,35.7825562 67.1998687,35.3115 67.1998687,34.730325 L67.1998687,23.5070063 C67.1998687,20.7360563 65.1555188,18.4338 62.4957375,18.0288938 Z M49.2426375,6.60200625 L57.1690875,6.60200625 C58.4454938,6.60200625 59.4839438,7.64045625 59.4839438,8.9168625 L59.4839438,8.98695 L49.2426375,8.98695 L49.2426375,6.60200625 Z M49.2426375,17.9656313 L49.2426375,11.0912813 L58.5922313,11.0912813 L60.3108188,17.9656313 L49.2426375,17.9656313 Z M19.0095938,40.4124 C16.4955,40.4124 14.4501,38.3671312 14.4501,35.8529062 C14.4501,33.3386813 16.4955,31.2934125 19.0095938,31.2934125 C21.5236875,31.2934125 23.5690875,33.3386813 23.5690875,35.8529062 C23.5690875,38.3671312 21.5236875,40.4124 19.0095938,40.4124 Z M56.0467688,40.4124 C53.532675,40.4124 51.487275,38.3671312 51.487275,35.8529062 C51.487275,33.3386813 53.532675,31.2934125 56.0467688,31.2934125 C58.5608625,31.2934125 60.6062625,33.3386813 60.6062625,35.8529062 C60.6062625,38.3671312 58.5608625,40.4124 56.0467688,40.4124 Z M65.0956688,26.9443125 L63.9031313,26.9443125 C63.2455688,26.9443125 62.7105938,26.4093375 62.7105938,25.751775 L62.7105938,24.5592375 L65.0955375,24.5592375 L65.0955375,26.9443125 L65.0956688,26.9443125 Z" id="Shape" fill="#000000" fill-rule="nonzero"></path>
                            <path d="M19.0095938,33.6783563 C17.8104938,33.6783563 16.8350438,34.6538063 16.8350438,35.8529063 C16.8350438,37.0520063 17.8104937,38.0274563 19.0095938,38.0274563 C20.2086937,38.0274563 21.1841438,37.0520062 21.1841438,35.8529063 C21.1841438,34.6538063 20.2086937,33.6783563 19.0095938,33.6783563 Z" id="Path" fill="#000000" fill-rule="nonzero"></path>
                            <path d="M56.0467687,33.6783563 C54.8476687,33.6783563 53.8722188,34.6538063 53.8722188,35.8529063 C53.8722188,37.0520063 54.8476688,38.0274563 56.0467687,38.0274563 C57.2458687,38.0274563 58.2213187,37.0520062 58.2213187,35.8529063 C58.2213187,34.6538063 57.2458687,33.6783563 56.0467687,33.6783563 Z" id="Path" fill="#000000" fill-rule="nonzero"></path>
                            <path d="M43.701,29.1890813 L27.988275,29.1890813 C27.4072312,29.1890813 26.9360437,29.6601375 26.9360437,30.2413125 C26.9360437,30.8224875 27.4071,31.2935437 27.988275,31.2935437 L43.701,31.2935437 C44.2820438,31.2935437 44.7532313,30.8224875 44.7532313,30.2413125 C44.7532313,29.6601375 44.282175,29.1890813 43.701,29.1890813 Z" id="Path" fill="#000000" fill-rule="nonzero"></path>
                            <path d="M16.7649563,24.699675 L3.29686875,24.699675 C2.715825,24.699675 2.2446375,25.1707312 2.2446375,25.7519062 C2.2446375,26.3330812 2.71569375,26.8041375 3.29686875,26.8041375 L16.7649563,26.8041375 C17.346,26.8041375 17.8171875,26.3330812 17.8171875,25.7519062 C17.8171875,25.1707312 17.346,24.699675 16.7649563,24.699675 Z" id="Path" fill="#000000" fill-rule="nonzero"></path>
                        </g>
                    </g>
                </g>
            </g>
        </g>
    </g>
</svg>