<svg xmlns="http://www.w3.org/2000/svg" width="21" height="14" viewBox="0 0 21 14">
    <g fill="none">
        <path fill="#F5F5F5" d="M18.946.011H1.534C.687.011 0 .698 0 1.545v10.35c0 .847.687 1.534 1.534 1.534h17.412c.847 0 1.534-.687 1.534-1.534V1.545c0-.847-.687-1.534-1.534-1.534z"/>
        <g fill="#FF4B55">
            <path d="M.084 1.043h20.312c-.208-.6-.778-1.032-1.45-1.032H1.534C.862.011.292.443.084 1.043zM0 4.14H20.48V5.172H0zM0 2.075H20.48V3.107H0zM0 6.883c0 .195.158.353.353.353H20.48V6.204H0v.679zM0 10.333H20.48V11.365H0zM20.396 12.397H.084c.208.6.778 1.032 1.45 1.032h17.412c.672 0 1.242-.432 1.45-1.032zM0 8.268H20.48V9.3H0z"/>
        </g>
        <path fill="#41479B" d="M.353 7.236h8.828c.195 0 .353-.158.353-.353V.364c0-.195-.158-.353-.353-.353H1.534C.687.011 0 .698 0 1.545v5.338c0 .195.158.353.353.353z"/>
        <g fill="#F5F5F5">
            <path d="M.432.061L.51.296l.247.002c.032 0 .045.04.02.06l-.2.147.075.235C.662.77.627.796.601.777L.4.634.199.777C.173.796.139.771.148.74L.222.505.024.358C-.002.338.01.298.044.298L.29.296.368.062c.01-.03.053-.03.064 0zM.432 1.288l.078.234.247.002c.032 0 .045.041.02.06l-.2.147.075.235c.01.03-.025.056-.051.037L.4 1.86l-.201.144c-.026.018-.06-.007-.051-.038l.074-.235-.198-.147c-.026-.019-.013-.06.02-.06l.246-.002.078-.234c.01-.03.053-.03.064 0zM.432 2.514l.078.234.247.002c.032 0 .045.041.02.06l-.2.147.075.236c.01.03-.025.055-.051.037L.4 3.086l-.201.144c-.026.018-.06-.007-.051-.037l.074-.236-.198-.147c-.026-.019-.013-.06.02-.06l.246-.002.078-.234c.01-.03.053-.03.064 0zM.432 3.74l.078.234.247.002c.032 0 .045.041.02.06l-.2.147.075.236c.01.03-.025.055-.051.037L.4 4.312l-.201.144c-.026.018-.06-.007-.051-.037l.074-.236-.198-.147c-.026-.019-.013-.06.02-.06l.246-.002.078-.234c.01-.03.053-.03.064 0zM.432 4.966l.078.235.247.001c.032 0 .045.041.02.06l-.2.147.075.236c.01.03-.025.056-.051.037L.4 5.538l-.201.144c-.026.019-.06-.007-.051-.037l.074-.236-.198-.146c-.026-.02-.013-.06.02-.06L.29 5.2l.078-.235c.01-.03.053-.03.064 0zM1.383.663l.078.234.248.002c.032 0 .045.041.019.06l-.199.147.075.235c.01.03-.025.056-.051.037l-.201-.143-.201.143c-.026.02-.061-.006-.051-.037l.074-.235L.975.959C.95.94.963.899.995.899l.247-.002.078-.234c.01-.03.053-.03.063 0zM1.383 1.889l.078.234.248.002c.032 0 .045.041.019.06l-.199.147.075.236c.01.03-.025.055-.051.037l-.201-.144-.201.144c-.026.018-.061-.007-.051-.037l.074-.236-.199-.147c-.025-.019-.012-.06.02-.06l.247-.002.078-.234c.01-.03.053-.03.063 0zM1.383 3.115l.078.234.248.002c.032 0 .045.041.019.06l-.199.147.075.236c.01.03-.025.055-.051.037l-.201-.144-.201.144c-.026.018-.061-.007-.051-.037l.074-.236-.199-.147c-.025-.019-.012-.06.02-.06l.247-.002.078-.234c.01-.03.053-.03.063 0zM1.383 4.341l.078.235.248.001c.032 0 .045.041.019.06l-.199.147.075.236c.01.03-.025.056-.051.037l-.201-.144-.201.144c-.026.019-.061-.007-.051-.037l.074-.236-.199-.146c-.025-.02-.012-.06.02-.06l.247-.002.078-.235c.01-.03.053-.03.063 0zM2.335.061l.078.235.247.002c.032 0 .045.04.02.06L2.48.505l.075.235c.01.03-.026.056-.052.037l-.2-.143-.202.143c-.026.019-.06-.006-.05-.037l.074-.235-.199-.147c-.026-.02-.012-.06.02-.06l.247-.002.078-.235c.01-.03.053-.03.063 0zM2.335 1.288l.078.234.247.002c.032 0 .045.041.02.06l-.199.147.075.235c.01.03-.026.056-.052.037l-.2-.143-.202.143c-.026.02-.06-.006-.05-.037l.074-.235-.199-.147c-.026-.019-.012-.06.02-.06l.247-.002.078-.234c.01-.03.053-.03.063 0zM2.335 2.514l.078.234.247.002c.032 0 .045.041.02.06l-.199.147.075.236c.01.03-.026.055-.052.037l-.2-.144-.202.144c-.026.018-.06-.007-.05-.037l.074-.236-.199-.147c-.026-.019-.012-.06.02-.06l.247-.002.078-.234c.01-.03.053-.03.063 0zM2.335 3.74l.078.234.247.002c.032 0 .045.041.02.06l-.199.147.075.236c.01.03-.026.055-.052.037l-.2-.144-.202.144c-.026.018-.06-.007-.05-.037l.074-.236-.199-.147c-.026-.019-.012-.06.02-.06l.247-.002.078-.234c.01-.03.053-.03.063 0zM2.335 4.966l.078.235.247.001c.032 0 .045.041.02.06l-.199.147.075.236c.01.03-.026.056-.052.037l-.2-.144-.202.144c-.026.019-.06-.007-.05-.037l.074-.236-.199-.146c-.026-.02-.012-.06.02-.06l.247-.002.078-.235c.01-.03.053-.03.063 0zM3.287.663l.078.234.247.002c.032 0 .045.041.02.06l-.2.147.075.235c.01.03-.025.056-.05.037l-.202-.143-.2.143c-.027.02-.062-.006-.052-.037l.075-.235-.2-.147c-.025-.019-.012-.06.02-.06l.247-.002.079-.234c.01-.03.053-.03.063 0zM3.287 1.889l.078.234.247.002c.032 0 .045.041.02.06l-.2.147.075.236c.01.03-.025.055-.05.037l-.202-.144-.2.144c-.027.018-.062-.007-.052-.037l.075-.236-.2-.147c-.025-.019-.012-.06.02-.06l.247-.002.079-.234c.01-.03.053-.03.063 0zM3.287 3.115l.078.234.247.002c.032 0 .045.041.02.06l-.2.147.075.236c.01.03-.025.055-.05.037l-.202-.144-.2.144c-.027.018-.062-.007-.052-.037l.075-.236-.2-.147c-.025-.019-.012-.06.02-.06l.247-.002.079-.234c.01-.03.053-.03.063 0zM3.287 4.341l.078.235.247.001c.032 0 .045.041.02.06l-.2.147.075.236c.01.03-.025.056-.05.037l-.202-.144-.2.144c-.027.019-.062-.007-.052-.037l.075-.236-.2-.146c-.025-.02-.012-.06.02-.06l.247-.002.079-.235c.01-.03.053-.03.063 0zM4.238.061l.079.235.247.002c.032 0 .045.04.02.06l-.2.147.075.235c.01.03-.025.056-.051.037L4.207.634l-.201.143C3.98.796 3.946.771 3.955.74l.074-.235-.198-.147c-.026-.02-.013-.06.02-.06l.246-.002.078-.234c.01-.03.053-.03.063 0zM4.238 1.288l.079.234.247.002c.032 0 .045.041.02.06l-.2.147.075.235c.01.03-.025.056-.051.037l-.201-.143-.201.143c-.026.02-.06-.006-.051-.037l.074-.235-.198-.147c-.026-.019-.013-.06.02-.06l.246-.002.078-.234c.01-.03.053-.03.063 0zM4.238 2.514l.079.234.247.002c.032 0 .045.041.02.06l-.2.147.075.236c.01.03-.025.055-.051.037l-.201-.144-.201.144c-.026.018-.06-.007-.051-.037l.074-.236-.198-.147c-.026-.019-.013-.06.02-.06l.246-.002.078-.234c.01-.03.053-.03.063 0zM4.238 3.74l.079.234.247.002c.032 0 .045.041.02.06l-.2.147.075.236c.01.03-.025.055-.051.037l-.201-.144-.201.144c-.026.018-.06-.007-.051-.037l.074-.236-.198-.147c-.026-.019-.013-.06.02-.06l.246-.002.078-.234c.01-.03.053-.03.063 0zM4.238 4.966l.079.235.247.001c.032 0 .045.041.02.06l-.2.147.075.236c.01.03-.025.056-.051.037l-.201-.144-.201.144c-.026.019-.06-.007-.051-.037l.074-.236-.198-.146c-.026-.02-.013-.06.02-.06l.246-.002.078-.235c.01-.03.053-.03.063 0zM5.19.663l.078.234.247.002c.032 0 .046.041.02.06l-.199.147.075.235c.01.03-.025.056-.051.037l-.201-.143-.201.143c-.026.02-.061-.006-.051-.037l.074-.235-.199-.147c-.025-.019-.012-.06.02-.06l.247-.002.078-.234c.01-.03.053-.03.063 0zM5.19 1.889l.078.234.247.002c.032 0 .046.041.02.06l-.199.147.075.236c.01.03-.025.055-.051.037l-.201-.144-.201.144c-.026.018-.061-.007-.051-.037l.074-.236-.199-.147c-.025-.019-.012-.06.02-.06l.247-.002.078-.234c.01-.03.053-.03.063 0zM5.19 3.115l.078.234.247.002c.032 0 .046.041.02.06l-.199.147.075.236c.01.03-.025.055-.051.037l-.201-.144-.201.144c-.026.018-.061-.007-.051-.037l.074-.236-.199-.147c-.025-.019-.012-.06.02-.06l.247-.002.078-.234c.01-.03.053-.03.063 0zM5.19 4.341l.078.235.247.001c.032 0 .046.041.02.06l-.199.147.075.236c.01.03-.025.056-.051.037l-.201-.144-.201.144c-.026.019-.061-.007-.051-.037l.074-.236-.199-.146c-.025-.02-.012-.06.02-.06l.247-.002.078-.235c.01-.03.053-.03.063 0zM6.142.061l.078.235.247.002c.032 0 .045.04.02.06l-.199.147.075.235c.01.03-.026.056-.052.037l-.2-.143-.202.143C5.883.796 5.85.771 5.86.74l.074-.235-.199-.147c-.026-.02-.012-.06.02-.06L6 .296 6.079.06c.01-.03.053-.03.063 0zM6.142 1.288l.078.234.247.002c.032 0 .045.041.02.06l-.199.147.075.235c.01.03-.026.056-.052.037l-.2-.143-.202.143c-.026.02-.06-.006-.05-.037l.074-.235-.199-.147c-.026-.019-.012-.06.02-.06L6 1.522l.078-.234c.01-.03.053-.03.063 0zM6.142 2.514l.078.234.247.002c.032 0 .045.041.02.06l-.199.147.075.236c.01.03-.026.055-.052.037l-.2-.144-.202.144c-.026.018-.06-.007-.05-.037l.074-.236-.199-.147c-.026-.019-.012-.06.02-.06L6 2.748l.078-.234c.01-.03.053-.03.063 0zM6.142 3.74l.078.234.247.002c.032 0 .045.041.02.06l-.199.147.075.236c.01.03-.026.055-.052.037l-.2-.144-.202.144c-.026.018-.06-.007-.05-.037l.074-.236-.199-.147c-.026-.019-.012-.06.02-.06L6 3.974l.078-.234c.01-.03.053-.03.063 0zM6.142 4.966l.078.235.247.001c.032 0 .045.041.02.06l-.199.147.075.236c.01.03-.026.056-.052.037l-.2-.144-.202.144c-.026.019-.06-.007-.05-.037l.074-.236-.199-.146c-.026-.02-.012-.06.02-.06L6 5.2l.078-.235c.01-.03.053-.03.063 0zM7.094.663l.078.234.247.002c.032 0 .045.041.02.06l-.2.147.075.235c.01.03-.025.056-.05.037l-.202-.143-.2.143c-.027.02-.062-.006-.052-.037l.075-.235-.2-.147c-.025-.019-.012-.06.02-.06l.247-.002.079-.234c.01-.03.053-.03.063 0zM7.094 1.889l.078.234.247.002c.032 0 .045.041.02.06l-.2.147.075.236c.01.03-.025.055-.05.037l-.202-.144-.2.144c-.027.018-.062-.007-.052-.037l.075-.236-.2-.147c-.025-.019-.012-.06.02-.06l.247-.002.079-.234c.01-.03.053-.03.063 0zM7.094 3.115l.078.234.247.002c.032 0 .045.041.02.06l-.2.147.075.236c.01.03-.025.055-.05.037l-.202-.144-.2.144c-.027.018-.062-.007-.052-.037l.075-.236-.2-.147c-.025-.019-.012-.06.02-.06l.247-.002.079-.234c.01-.03.053-.03.063 0zM7.094 4.341l.078.235.247.001c.032 0 .045.041.02.06l-.2.147.075.236c.01.03-.025.056-.05.037l-.202-.144-.2.144c-.027.019-.062-.007-.052-.037l.075-.236-.2-.146c-.025-.02-.012-.06.02-.06l.247-.002.079-.235c.01-.03.053-.03.063 0zM8.045.061l.079.235.247.002c.032 0 .045.04.02.06l-.2.147.075.235c.01.03-.025.056-.051.037L8.014.634l-.201.143c-.026.019-.06-.006-.051-.037l.074-.235-.198-.147c-.026-.02-.013-.06.02-.06l.246-.002.078-.235c.01-.03.053-.03.063 0zM8.045 1.288l.079.234.247.002c.032 0 .045.041.02.06l-.2.147.075.235c.01.03-.025.056-.051.037l-.201-.143-.201.143c-.026.02-.06-.006-.051-.037l.074-.235-.198-.147c-.026-.019-.013-.06.02-.06l.246-.002.078-.234c.01-.03.053-.03.063 0zM8.045 2.514l.079.234.247.002c.032 0 .045.041.02.06l-.2.147.075.236c.01.03-.025.055-.051.037l-.201-.144-.201.144c-.026.018-.06-.007-.051-.037l.074-.236-.198-.147c-.026-.019-.013-.06.02-.06l.246-.002.078-.234c.01-.03.053-.03.063 0zM8.045 3.74l.079.234.247.002c.032 0 .045.041.02.06l-.2.147.075.236c.01.03-.025.055-.051.037l-.201-.144-.201.144c-.026.018-.06-.007-.051-.037l.074-.236-.198-.147c-.026-.019-.013-.06.02-.06l.246-.002.078-.234c.01-.03.053-.03.063 0zM8.045 4.966l.079.235.247.001c.032 0 .045.041.02.06l-.2.147.075.236c.01.03-.025.056-.051.037l-.201-.144-.201.144c-.026.019-.06-.007-.051-.037l.074-.236-.198-.146c-.026-.02-.013-.06.02-.06l.246-.002.078-.235c.01-.03.053-.03.063 0z" transform="translate(.56 .76)"/>
        </g>
    </g>
</svg>
