<svg xmlns="http://www.w3.org/2000/svg" xmlns:xlink="http://www.w3.org/1999/xlink" width="26" height="25" viewBox="0 0 26 25">
    <defs>
        <filter id="prefix__a">
            <feColorMatrix in="SourceGraphic" values="0 0 0 0 0.000000 0 0 0 0 0.407843 0 0 0 0 1.000000 0 0 0 1.000000 0"/>
        </filter>
        <path id="prefix__b" d="M0 21.78L17.288 21.78 17.288 0.068 0 0.068z"/>
    </defs>
    <g fill="none" fill-rule="evenodd" filter="url(#prefix__a)" transform="translate(1)">
        <g>
            <path fill="#000" d="M2.968 5.45L5.848 5.45 5.848 3.652 2.968 3.652z" transform="translate(4 1)"/>
            <g transform="translate(4 1) translate(0 .592)">
                <path fill="#000" d="M14.964.068H2.324c-.539 0-1.003.359-1.164.85h14.968c-.16-.491-.625-.85-1.164-.85"/>
                <mask id="prefix__c" fill="#fff">
                    <use xlink:href="#prefix__b"/>
                </mask>
                <path fill="#000" d="M2.969 7.788L5.849 7.788 5.849 5.534 2.969 5.534zM16.893 1.594H.395c-.218 0-.395.177-.395.395 0 .218.177.396.395.396h16.498c.218 0 .396-.178.396-.396 0-.218-.178-.395-.396-.395" mask="url(#prefix__c)"/>
                <path fill="#000" d="M6.524 3.06v9.983c0 .447-.675.447-.675 0v-1.65h-2.88v1.65c0 .447-.677.447-.677 0V3.06h-1.19v10.628c0 .268.101.525.284.717h14.516c.183-.192.285-.448.285-.717V3.06H6.524z" mask="url(#prefix__c)"/>
                <path fill="#000" d="M2.969 10.718L5.849 10.718 5.849 8.464 2.969 8.464zM13.911 16.822L15.25 21.78 16.139 21.78 15.47 15.612zM7.48 19.956c0 .2.163.362.362.362h1.604c.2 0 .362-.162.362-.362v-.304H7.48v.304zM1.269 21.78L2.158 21.78 3.476 16.898 1.929 15.697zM2.239 15.081L7.258 18.976 10.032 18.976 15.05 15.081z" mask="url(#prefix__c)"/>
            </g>
        </g>
    </g>
</svg>
