<svg xmlns="http://www.w3.org/2000/svg" xmlns:xlink="http://www.w3.org/1999/xlink" width="22" height="23" viewBox="0 0 22 23">
    <defs>
        <path id="prefix__b" d="M0.276 0.363L3.811 0.363 3.811 8.5 0.276 8.5z"/>
        <path id="prefix__d" d="M0 0.363L3.536 0.363 3.536 8.5 0 8.5z"/>
        <path id="prefix__f" d="M0.314 0.189L12.498 0.189 12.498 22 0.314 22z"/>
        <path id="prefix__h" d="M0 22.312L21.811 22.312 21.811 0.5 0 0.5z"/>
        <filter id="prefix__a">
            <feColorMatrix in="SourceGraphic" values="0 0 0 0 0.411765 0 0 0 0 0.439216 0 0 0 0 0.498039 0 0 0 1.000000 0"/>
        </filter>
    </defs>
    <g fill="none" fill-rule="evenodd" filter="url(#prefix__a)" transform="translate(-5 -4)">
        <g transform="translate(5 4)">
            <g transform="translate(18 13.812)">
                <mask id="prefix__c" fill="#fff">
                    <use xlink:href="#prefix__b"/>
                </mask>
                <path fill="#000" d="M3.172 2.408h-.766V1.002c0-.353-.286-.639-.64-.639-.352 0-.638.286-.638.64v1.405H.276V8.5h2.896c.353 0 .64-.286.64-.64V3.048c0-.353-.287-.639-.64-.639" mask="url(#prefix__c)"/>
            </g>
            <g transform="translate(0 13.812)">
                <mask id="prefix__e" fill="#fff">
                    <use xlink:href="#prefix__d"/>
                </mask>
                <path fill="#000" d="M3.536 2.408h-.852V1.002c0-.353-.286-.639-.64-.639-.352 0-.638.286-.638.64v1.405H.639c-.353 0-.639.286-.639.64V7.86c0 .353.286.64.639.64h2.897V2.407z" mask="url(#prefix__e)"/>
            </g>
            <g transform="translate(4.5 .312)">
                <mask id="prefix__g" fill="#fff">
                    <use xlink:href="#prefix__f"/>
                </mask>
                <path fill="#000" d="M3.68 2.957h5.452c.353 0 .64.286.64.64 0 .352-.287.638-.64.638H3.68c-.353 0-.639-.286-.639-.639 0-.353.286-.639.64-.639zm5.112 4.005H8.11c-.353 0-.64-.286-.64-.64 0-.352.287-.638.64-.638h.682c.353 0 .639.286.639.639 0 .353-.286.639-.64.639zm0 2.726H8.11c-.353 0-.64-.286-.64-.639 0-.353.287-.639.64-.639h.682c.353 0 .639.286.639.64 0 .352-.286.638-.64.638zm0 2.727H8.11c-.353 0-.64-.286-.64-.639 0-.353.287-.64.64-.64h.682c.353 0 .639.287.639.64 0 .353-.286.639-.64.639zm0 2.726H8.11c-.353 0-.64-.286-.64-.639 0-.353.287-.639.64-.639h.682c.353 0 .639.286.639.64 0 .352-.286.638-.64.638zm-4.09-8.18H4.02c-.353 0-.639-.285-.639-.638 0-.353.286-.64.64-.64l.68.001c.354 0 .64.286.64.639 0 .353-.286.639-.64.639zm0 2.727H4.02c-.353 0-.639-.286-.639-.639 0-.353.286-.639.64-.639h.68c.354 0 .64.286.64.64 0 .352-.286.638-.64.638zm0 2.727H4.02c-.353 0-.639-.286-.639-.639 0-.353.286-.64.64-.64h.68c.354 0 .64.287.64.64 0 .353-.286.639-.64.639zm0 2.726H4.02c-.353 0-.639-.286-.639-.639 0-.353.286-.639.64-.639h.68c.354 0 .64.286.64.64 0 .352-.286.638-.64.638zM.314 22H3.38v-3.408c0-.353.286-.639.64-.639h4.77c.354 0 .64.286.64.639V22h3.067V.827c0-.353-.287-.639-.64-.639H.954c-.353 0-.64.286-.64.64V22z" mask="url(#prefix__g)"/>
            </g>
            <mask id="prefix__i" fill="#fff">
                <use xlink:href="#prefix__h"/>
            </mask>
            <path fill="#000" d="M9.159 22.312L12.652 22.312 12.652 19.543 9.159 19.543z" mask="url(#prefix__i)"/>
        </g>
    </g>
</svg>
