<svg xmlns="http://www.w3.org/2000/svg" width="26" height="25" viewBox="0 0 26 25">
    <defs>
        <filter id="prefix__a">
            <feColorMatrix in="SourceGraphic" values="0 0 0 0 0.000000 0 0 0 0 0.407843 0 0 0 0 1.000000 0 0 0 1.000000 0"/>
        </filter>
    </defs>
    <g fill="none" fill-rule="evenodd" filter="url(#prefix__a)" transform="translate(1)">
        <path fill="#030104" fill-rule="nonzero" d="M12.5 3C7.254 3 3 7.254 3 12.5S7.254 22 12.5 22s9.5-4.254 9.5-9.5S17.746 3 12.5 3zm0 2.375c3.092 0 5.703 1.991 6.69 4.75H5.81c.987-2.759 3.598-4.75 6.69-4.75zm0 8.313c-.656 0-1.188-.532-1.188-1.188 0-.656.532-1.188 1.188-1.188.656 0 1.188.532 1.188 1.188 0 .656-.532 1.188-1.188 1.188zM5.375 12.5c3.245 0 5.873 3.127 5.928 7.004-3.358-.575-5.928-3.485-5.928-7.004zm8.322 7.004c.055-3.877 2.683-7.004 5.928-7.004 0 3.519-2.57 6.43-5.928 7.004z"/>
    </g>
</svg>
