<svg xmlns="http://www.w3.org/2000/svg" xmlns:xlink="http://www.w3.org/1999/xlink" width="25" height="25" viewBox="0 0 25 25">
    <defs>
        <filter id="prefix__a">
            <feColorMatrix in="SourceGraphic" values="0 0 0 0 1.000000 0 0 0 0 1.000000 0 0 0 0 1.000000 0 0 0 1.000000 0"/>
        </filter>
        <path id="prefix__b" d="M0 0.434L12.881 0.434 12.881 18.9 0 18.9z"/>
    </defs>
    <g fill="none" fill-rule="evenodd" filter="url(#prefix__a)">
        <g>
            <path fill="#000" d="M3.648 12.07c-.472 0-.855.383-.855.855s.383.855.855.855c.47 0 .855-.383.855-.855s-.384-.855-.855-.855M14.688 7.21l-3.207 3.206c-.293.294-.454.684-.454 1.1 0 .226.047.446.14.646l1.524-1.523.765.765-1.524 1.523c.2.092.42.14.647.14.415 0 .806-.16 1.1-.454l3.206-3.206c1.297-1.297 1.539-2.96 1.575-3.771-.813.038-2.482.284-3.772 1.574M2.793 18.51c0 .308-.072.597-.2.856h12.225c.472 0 .856-.384.856-.855v-.855H2.793v.855z" transform="translate(3 3)"/>
            <g transform="translate(3 3) translate(0 .466)">
                <mask id="prefix__c" fill="#fff">
                    <use xlink:href="#prefix__b"/>
                </mask>
                <path fill="#000" d="M3.648 14.397c-1.068 0-1.938-.87-1.938-1.938s.87-1.936 1.938-1.936 1.937.868 1.937 1.936c0 1.069-.869 1.938-1.937 1.938zM1.643 8.813h7.59V7.73h-7.59v1.083zm0-2.793h9.594V4.937H1.643V6.02zm0-2.794h4.01V2.144h-4.01v1.082zm11.238 10.44c-.1.011-.2.017-.301.017-.504 0-1.005-.142-1.442-.427l-1.631 1.632-.766-.765 1.632-1.632c-.28-.425-.429-.922-.429-1.442 0-.704.274-1.365.773-1.864l2.164-2.164V.434H0V18.2c0 .386.315.7.702.7h.153c.473 0 .856-.384.856-.855v-1.938h11.171v-2.44z" mask="url(#prefix__c)"/>
            </g>
        </g>
    </g>
</svg>
