<svg xmlns="http://www.w3.org/2000/svg" width="25" height="25" viewBox="0 0 25 25">
    <defs>
        <filter id="prefix__a">
            <feColorMatrix in="SourceGraphic" values="0 0 0 0 1.000000 0 0 0 0 1.000000 0 0 0 0 1.000000 0 0 0 1.000000 0"/>
        </filter>
    </defs>
    <g fill="none" fill-rule="evenodd" filter="url(#prefix__a)">
        <g>
            <path fill="#000" fill-rule="nonzero" d="M6.512 0h-5.28C.552 0 0 .553 0 1.232V4.4c0 .68.553 1.232 1.232 1.232h5.28c.68 0 1.232-.553 1.232-1.232V1.232C7.744.552 7.191 0 6.512 0zM6.512 7.04h-5.28C.552 7.04 0 7.593 0 8.272v7.392c0 .68.553 1.232 1.232 1.232h5.28c.68 0 1.232-.553 1.232-1.232V8.272c0-.68-.553-1.232-1.232-1.232zM15.664 11.264h-5.28c-.68 0-1.232.553-1.232 1.232v3.168c0 .68.553 1.232 1.232 1.232h5.28c.68 0 1.232-.553 1.232-1.232v-3.168c0-.68-.553-1.232-1.232-1.232zM15.664 0h-5.28c-.68 0-1.232.553-1.232 1.232v7.392c0 .68.553 1.232 1.232 1.232h5.28c.68 0 1.232-.553 1.232-1.232V1.232c0-.68-.553-1.232-1.232-1.232z" transform="translate(4 4)"/>
        </g>
    </g>
</svg>
