<svg xmlns="http://www.w3.org/2000/svg" xmlns:xlink="http://www.w3.org/1999/xlink" width="25" height="25" viewBox="0 0 25 25">
    <defs>
        <path id="prefix__b" d="M0.77 0.176L4.937 0.176 4.937 4.999 0.77 4.999z"/>
        <path id="prefix__d" d="M0.723 0.021L1.723 0.021 1.723 1 0.723 1z"/>
        <path id="prefix__f" d="M0.74 0.916L3.533 0.916 3.533 8 0.74 8z"/>
        <path id="prefix__h" d="M0.785 0.969L11.541 0.969 11.541 2.724 0.785 2.724z"/>
        <filter id="prefix__a">
            <feColorMatrix in="SourceGraphic" values="0 0 0 0 1.000000 0 0 0 0 1.000000 0 0 0 0 1.000000 0 0 0 1.000000 0"/>
        </filter>
    </defs>
    <g fill="none" fill-rule="evenodd" filter="url(#prefix__a)">
        <g>
            <path fill="#000" d="M14.84 15.17c-.183.139-.353.292-.51.458-1.594 1.68-1.521 4.333.158 5.925v-2.65c.018-.198.185-.35.384-.35.193.002.35.159.352.35v2.649c.809-.802 1.268-1.891 1.276-3.031.001-1.315-.613-2.555-1.66-3.351" transform="translate(3 1)"/>
            <g transform="translate(3 1) translate(15 17.031)">
                <mask id="prefix__c" fill="#fff">
                    <use xlink:href="#prefix__b"/>
                </mask>
                <path fill="#000" d="M2.21.786C2.385 2.336 1.856 3.881.77 5c1.101-.024 2.153-.469 2.935-1.245.936-.927 1.377-2.24 1.19-3.546-.48-.058-.968-.037-1.44.064-.065.033-.16.033-.224.064-.36.103-.703.255-1.02.45" mask="url(#prefix__c)"/>
            </g>
            <g transform="translate(3 1) translate(14 21.031)">
                <mask id="prefix__e" fill="#fff">
                    <use xlink:href="#prefix__d"/>
                </mask>
                <path fill="#000" d="M1.224.521h-.001z" mask="url(#prefix__e)"/>
            </g>
            <path fill="#000" d="M14.615 14.438c.121-.096.292-.096.414 0 .945.63 1.645 1.565 1.981 2.648.275-.144.563-.26.861-.35v-3.673h-8.46v6.99c.005.14.026.28.063.415.202.626.783 1.052 1.441 1.053v.033h2.518c-.665-.858-1.024-1.913-1.02-2.999.002-1.654.827-3.197 2.202-4.117" transform="translate(3 1)"/>
            <g transform="translate(3 1) translate(1 14.031)">
                <mask id="prefix__g" fill="#fff">
                    <use xlink:href="#prefix__f"/>
                </mask>
                <path fill="#000" d="M1.713.916c.575 1.246.927 2.616-.127 3.766l-.03.031C.606 5.558.466 6.99 1.235 8c1-.013 1.877-.672 2.168-1.63.025-.025.036-.06.032-.096.038-.177.06-.358.064-.54l.033.001V3.118c.006-1.077-.76-2.004-1.82-2.202" mask="url(#prefix__g)"/>
            </g>
            <path fill="#000" d="M1.277 21.776c-.544-1.23-.235-2.671.766-3.57.734-.857.51-1.914-.16-3.287-.175.034-.346.087-.51.159-.088.036-.173.08-.255.128-.694.402-1.12 1.142-1.117 1.943v2.617c-.008.864.492 1.65 1.276 2.01M4.371 15.074c.567.554.89 1.313.893 2.106v2.617c0 .096-.03.224-.03.32H8.68v-7.054h-.096c-.199-.017-.352-.182-.35-.382V10.83c.001-.192.157-.349.35-.35h4.116l-.127-6.99H1.755L1.5 14.276c.251-.063.508-.095.766-.096.794.006 1.551.327 2.106.894" transform="translate(3 1)"/>
            <path fill="#000" d="M8.969 12.329L18.35 12.326 18.35 11.212 8.969 11.212z" transform="translate(3 1)"/>
            <g transform="translate(3 1) translate(1 .031)">
                <mask id="prefix__i" fill="#fff">
                    <use xlink:href="#prefix__h"/>
                </mask>
                <path fill="#000" d="M11.51 1.128v-.016c-.006-.084-.076-.148-.16-.143H.962c-.084.004-.148.076-.143.159L.785 2.724h10.756l-.031-1.596z" mask="url(#prefix__i)"/>
            </g>
        </g>
    </g>
</svg>
