<svg xmlns="http://www.w3.org/2000/svg" xmlns:xlink="http://www.w3.org/1999/xlink" width="25" height="25" viewBox="0 0 25 25">
    <defs>
        <filter id="prefix__a">
            <feColorMatrix in="SourceGraphic" values="0 0 0 0 1.000000 0 0 0 0 1.000000 0 0 0 0 1.000000 0 0 0 1.000000 0"/>
        </filter>
        <path id="prefix__b" d="M0 0L14.061 0 14.061 21.093 0 21.093z"/>
    </defs>
    <g fill="none" fill-rule="evenodd" filter="url(#prefix__a)">
        <g transform="translate(5 1)">
            <mask id="prefix__c" fill="#fff">
                <use xlink:href="#prefix__b"/>
            </mask>
            <path fill="#000" d="M7.031 10.547c-1.938 0-3.516-1.577-3.516-3.516 0-1.938 1.578-3.515 3.516-3.515s3.515 1.577 3.515 3.515c0 1.939-1.577 3.516-3.515 3.516M7.031 0C3.154 0 .001 3.154.001 7.03c0 1.165.29 2.319.843 3.343l5.802 10.494c.077.139.225.226.385.226s.307-.087.384-.226l5.804-10.498c.551-1.02.842-2.174.842-3.338C14.061 3.154 10.907 0 7.031 0" mask="url(#prefix__c)"/>
        </g>
    </g>
</svg>
