<svg xmlns="http://www.w3.org/2000/svg" xmlns:xlink="http://www.w3.org/1999/xlink" width="86" height="40" viewBox="0 0 86 40">
    <defs>
        <path id="prefix__a" d="M0 0.455L17.997 0.455 17.997 19.132 0 19.132z"/>
        <path id="prefix__c" d="M0.094 0.581L5.284 0.581 5.284 7.499 0.094 7.499z"/>
        <path id="prefix__e" d="M0.547 0.053L12.898 0.053 12.898 14.232 0.547 14.232z"/>
    </defs>
    <g fill="none" fill-rule="evenodd">
        <g transform="translate(1 6) translate(0 2.92)">
            <mask id="prefix__b" fill="#fff">
                <use xlink:href="#prefix__a"/>
            </mask>
            <path fill="#4D4D4D" d="M7.258 19.131c-1.38.015-2.762-.113-4.116-.382-1.084-.217-2.138-.559-3.143-1.018l.934-4.33h.51c.85.771 1.846 1.362 2.928 1.74 1.155.431 2.377.647 3.61.636 1.315 0 2.291-.17 2.927-.55.583-.283.947-.88.933-1.528.016-.225-.043-.45-.169-.637-.155-.224-.36-.412-.594-.552-.379-.207-.777-.378-1.188-.508-.51-.17-1.145-.382-1.953-.595-.807-.224-1.6-.494-2.377-.808-.63-.27-1.23-.611-1.781-1.019-.472-.358-.85-.823-1.105-1.358-.27-.57-.4-1.194-.382-1.824 0-1.826.806-3.226 2.377-4.33C6.24.965 8.448.455 11.206.455c1.267.001 2.531.115 3.778.339 1.038.172 2.049.47 3.013.892l-.892 4.159h-.508c-.728-.648-1.58-1.14-2.504-1.443-1.074-.397-2.21-.598-3.355-.594-1.187 0-2.12.17-2.758.51-.637.34-.977.806-.977 1.443-.007.246.038.491.127.721.146.234.35.426.595.55.387.224.8.395 1.231.51.55.17 1.19.382 1.952.595 1.996.553 3.438 1.188 4.33 1.91.892.72 1.272 1.698 1.272 2.928.01.968-.24 1.92-.72 2.76-.46.806-1.137 1.468-1.954 1.91-.908.534-1.897.92-2.928 1.146-1.202.232-2.425.346-3.65.34" mask="url(#prefix__b)"/>
        </g>
        <path fill="#4D4D4D" d="M24.618 8.171L21.478 21.754 17.106 21.754 20.246 8.171zM32.089 2.907L27.76 21.71 23.346 21.71 27.718 2.907zM40.28 17.551c.376-.577.663-1.205.85-1.867.2-.805.3-1.633.297-2.462 0-.85-.169-1.486-.55-1.91-.382-.468-.934-.68-1.74-.68-.573-.001-1.131.16-1.614.468-.501.325-.921.76-1.23 1.273-.362.572-.622 1.205-.765 1.867-.18.75-.282 1.52-.296 2.292 0 .934.212 1.57.637 1.995.47.409 1.076.621 1.699.595.536-.002 1.065-.147 1.526-.426.484-.277.891-.67 1.187-1.145m5.646-4.414c.01 1.218-.206 2.426-.637 3.566-.39 1.06-.997 2.03-1.782 2.843-.784.833-1.74 1.486-2.802 1.91-1.184.484-2.457.715-3.735.679-2.037 0-3.566-.466-4.669-1.442-1.062-.978-1.614-2.294-1.614-4.034 0-1.171.202-2.333.595-3.437.393-1.073 1-2.055 1.784-2.886.79-.825 1.744-1.476 2.801-1.912 1.183-.485 2.454-.732 3.735-.72 2.037 0 3.566.467 4.67 1.443 1.102.976 1.654 2.292 1.654 3.99" transform="translate(1 6)"/>
        <g transform="translate(1 6) translate(19.6 .12)">
            <mask id="prefix__d" fill="#fff">
                <use xlink:href="#prefix__c"/>
            </mask>
            <path fill="#007DCC" d="M4.467 3.255c-.553-.721-1.57-1.444-2.972-2.08C.987.964.561.75.223.582.133.999.09 1.426.095 1.855.078 2.58.21 3.302.476 3.977c.28.615.685 1.165 1.19 1.613.745.577 1.557 1.061 2.42 1.443.381.17.72.339 1.017.466.122-.456.18-.926.17-1.4.072-1.012-.213-2.02-.806-2.844" mask="url(#prefix__d)"/>
        </g>
        <path fill="#4D4D4D" d="M52.293 22.049c-1.128.007-2.254-.12-3.354-.38-1.073-.263-2.112-.646-3.097-1.146l.593-2.76h.171c.818.76 1.787 1.339 2.844 1.699 1.05.378 2.153.578 3.269.593 1.698 0 3.012-.34 3.946-1.017.867-.573 1.38-1.552 1.358-2.59.014-.514-.168-1.015-.51-1.4-.389-.408-.891-.69-1.443-.807-.51-.127-1.145-.297-1.867-.424-.721-.127-1.4-.255-2.08-.424-1.273-.298-2.25-.765-2.93-1.444-.674-.672-1.044-1.594-1.017-2.548 0-1.698.72-3.14 2.164-4.286 1.443-1.147 3.353-1.699 5.646-1.699 1.157-.012 2.312.115 3.437.383.912.207 1.795.519 2.632.933l-.55 2.59h-.17c-.727-.607-1.562-1.068-2.462-1.359-1.077-.378-2.212-.564-3.353-.55-1.487 0-2.632.34-3.524.976-.836.537-1.333 1.468-1.314 2.462-.009.507.155 1 .466 1.4.298.424.89.721 1.698.89.51.128 1.189.257 2.038.426.849.17 1.57.339 2.163.508 1.147.299 1.995.765 2.59 1.4.594.63.913 1.47.89 2.336-.015.827-.218 1.639-.594 2.377-.39.771-.94 1.452-1.612 1.995-.775.614-1.652 1.089-2.59 1.4-1.115.333-2.275.49-3.438.466" transform="translate(1 6)"/>
        <path fill="#4D4D4D" d="M62.439 26.719L59.934 26.719 63.881 20.946 61.462 8.256 63.797 8.256 65.706 18.315 72.158 8.256 74.619 8.256z" transform="translate(1 6)"/>
        <g transform="translate(1 6) translate(71.4 7.82)">
            <mask id="prefix__f" fill="#fff">
                <use xlink:href="#prefix__e"/>
            </mask>
            <path fill="#4D4D4D" d="M5.258 14.231c-.92.013-1.837-.116-2.716-.382-.69-.206-1.358-.476-1.995-.808l.508-2.42h.129c.169.128.38.299.677.51.318.236.66.434 1.02.594.422.196.865.351 1.315.468.511.138 1.04.21 1.571.212 1.147 0 2.037-.212 2.673-.637.64-.4 1.013-1.114.977-1.867.02-.394-.175-.767-.51-.977-.443-.27-.932-.455-1.443-.55-.297-.085-.678-.17-1.145-.255-.424-.084-.892-.212-1.316-.297-.934-.255-1.655-.637-2.08-1.145-.457-.496-.702-1.153-.678-1.827-.011-.62.134-1.234.423-1.783.295-.592.715-1.114 1.232-1.528.58-.47 1.241-.83 1.953-1.062C6.716.2 7.619.056 8.527.053c.816-.005 1.628.094 2.417.297.684.167 1.342.423 1.955.764L12.43 3.45h-.127c-.128-.084-.34-.255-.595-.425-.254-.169-.594-.34-.976-.55-.39-.183-.805-.312-1.23-.382-.472-.122-.957-.18-1.444-.17-1.02 0-1.826.212-2.463.636-.597.374-.952 1.036-.933 1.74.01.39.179.758.467 1.02.416.31.893.527 1.4.637.382.084.807.169 1.23.254.425.086.85.17 1.231.255.934.255 1.657.594 2.124 1.103.475.503.735 1.174.72 1.867.007.632-.137 1.26-.423 1.824-.302.6-.738 1.124-1.274 1.529-.617.485-1.324.847-2.08 1.06-.91.261-1.853.39-2.8.383" mask="url(#prefix__f)"/>
        </g>
    </g>
</svg>
