<svg xmlns="http://www.w3.org/2000/svg" width="25" height="25" viewBox="0 0 25 25">
    <defs>
        <filter id="prefix__a">
            <feColorMatrix in="SourceGraphic" values="0 0 0 0 0.000000 0 0 0 0 0.407843 0 0 0 0 1.000000 0 0 0 1.000000 0"/>
        </filter>
    </defs>
    <g fill="none" fill-rule="evenodd" filter="url(#prefix__a)" transform="translate(-21 -972)">
        <g fill="#000" fill-rule="nonzero">
            <path d="M12.247 22.494H3.062c-.564 0-1.02-.457-1.02-1.02V3.102c0-.564.456-1.021 1.02-1.021h9.185c.565 0 1.02-.456 1.02-1.02 0-.565-.455-1.021-1.02-1.021H3.062C1.374.04 0 1.415 0 3.103v18.37c0 1.688 1.374 3.062 3.062 3.062h9.185c.565 0 1.02-.456 1.02-1.02 0-.565-.455-1.021-1.02-1.021z" transform="translate(21 972)"/>
            <path d="M24.272 11.561l-6.205-6.123c-.4-.396-1.047-.391-1.443.01-.396.401-.392 1.047.01 1.443l4.434 4.376H9.185c-.564 0-1.02.457-1.02 1.021 0 .564.456 1.02 1.02 1.02h11.883l-4.434 4.377c-.402.396-.405 1.042-.01 1.443.2.202.463.304.726.304.26 0 .519-.098.717-.294l6.205-6.123c.194-.192.304-.454.304-.727 0-.274-.11-.534-.304-.727z" transform="translate(21 972)"/>
        </g>
    </g>
</svg>
