<svg xmlns="http://www.w3.org/2000/svg" xmlns:xlink="http://www.w3.org/1999/xlink" width="39" height="40" viewBox="0 0 39 40">
    <defs>
        <path id="prefix__a" d="M0 0.324L38.317 0.324 38.317 38.64 0 38.64z"/>
    </defs>
    <g fill="none" fill-rule="evenodd">
        <g transform="translate(0 .096)">
            <mask id="prefix__b" fill="#fff">
                <use xlink:href="#prefix__a"/>
            </mask>
            <path fill="#0068FF" d="M6.383 38.64h25.55c3.526 0 6.384-2.858 6.384-6.383V6.707c0-3.526-2.858-6.383-6.384-6.383H6.383C2.858.324 0 3.18 0 6.707v25.55c0 3.525 2.858 6.383 6.383 6.383" mask="url(#prefix__b)"/>
        </g>
        <path fill="#0046CA" d="M28.953 33.063c.483-1.757.727-3.634.727-5.581 0-2.2-.279-4.247-.829-6.082-.55-1.835-1.386-3.51-2.485-4.98-1.103-1.46-2.653-2.888-4.607-4.245-1.948-1.354-4.353-2.674-7.147-3.926-1.7-.779-3.482-1.602-4.997-2.34L9.29 5.75l-.086.35c-.377 1.518-.568 3.19-.568 4.966 0 3.217.523 6.045 1.556 8.403 1.039 2.376 2.647 4.5 4.78 6.315 2.11 1.806 5.33 3.701 9.57 5.632 1.58.703 2.97 1.349 4.006 1.833l.314.147.091-.334z"/>
        <path fill="#FFF" d="M27.913 16.563c-.963-.178-1.987-.266-3.071-.266-1.578 0-2.923.215-4.032.645.165.406.247.86.247 1.364 0 .898-.202 1.688-.606 2.37-.403.682-.96 1.236-1.67 1.66-.266.162-.544.307-.835.437.203.368.484.697.844.985.4.316.885.589 1.454.819.568.23 1.21.443 1.927.64.65.184 1.181.347 1.592.488.41.142.734.284.971.43.236.143.396.29.478.438.082.147.123.324.123.527 0 .545-.253.964-.759 1.257-.506.292-1.298.438-2.376.438-1.051 0-2.034-.169-2.947-.507-.914-.338-1.709-.817-2.386-1.435h-.413l-.76 3.52c.717.322 1.566.59 2.549.808.982.217 2.1.325 3.356.325 1.13 0 2.142-.098 3.036-.296.894-.197 1.692-.509 2.395-.936.67-.4 1.196-.923 1.577-1.567.382-.644.572-1.39.572-2.238 0-1.012-.351-1.813-1.054-2.405-.704-.591-1.877-1.107-3.52-1.548-.61-.164-1.143-.323-1.596-.477-.454-.155-.786-.298-.996-.43-.243-.144-.404-.292-.483-.443-.079-.151-.118-.342-.118-.572 0-.496.266-.885.798-1.165.532-.281 1.285-.422 2.258-.422.992 0 1.907.159 2.745.476.837.316 1.513.71 2.025 1.18h.405l.719-3.381c-.67-.302-1.487-.542-2.45-.719"/>
        <path fill="#FFF" d="M13.185 22.785c-1.255 0-2.374-.109-3.356-.325-.983-.217-1.832-.487-2.548-.809l.759-3.519h.414c.677.618 1.472 1.096 2.385 1.434.914.34 1.896.508 2.947.508 1.078 0 1.87-.146 2.376-.439.506-.292.76-.71.76-1.256 0-.204-.042-.38-.124-.528-.082-.147-.242-.293-.478-.438-.237-.145-.56-.288-.97-.43-.412-.14-.943-.303-1.593-.487-.717-.197-1.359-.411-1.927-.641-.569-.23-1.053-.502-1.454-.818-.4-.322-.705-.693-.912-1.114-.207-.42-.31-.923-.31-1.508 0-1.472.649-2.646 1.946-3.524 1.298-.877 3.074-1.315 5.328-1.315 1.084 0 2.108.088 3.07.266.963.177 1.78.417 2.45.719l-.72 3.381h-.403c-.513-.47-1.188-.864-2.026-1.18-.838-.318-1.753-.476-2.745-.476-.973 0-1.725.14-2.258.421-.532.28-.798.67-.798 1.166 0 .23.04.42.118.572.08.151.24.299.483.444.21.13.542.274.996.428.453.155.986.314 1.597.478 1.643.44 2.815.956 3.519 1.548.702.591 1.054 1.393 1.054 2.405 0 .848-.19 1.594-.571 2.238-.382.643-.907 1.166-1.577 1.566-.704.428-1.502.74-2.396.938-.893.197-1.906.295-3.036.295"/>
    </g>
</svg>
