<svg xmlns="http://www.w3.org/2000/svg" xmlns:xlink="http://www.w3.org/1999/xlink" width="25" height="25" viewBox="0 0 25 25">
    <defs>
        <path id="prefix__b" d="M0 0.595L12.012 0.595 12.012 12.6 0 12.6z"/>
        <path id="prefix__d" d="M0.855 0.181L13.32 0.181 13.32 12.645 0.855 12.645z"/>
        <filter id="prefix__a">
            <feColorMatrix in="SourceGraphic" values="0 0 0 0 1.000000 0 0 0 0 1.000000 0 0 0 0 1.000000 0 0 0 1.000000 0"/>
        </filter>
    </defs>
    <g fill="none" fill-rule="evenodd" filter="url(#prefix__a)">
        <g>
            <path fill="#000" d="M14.392 13.829l-.85-.85c-1.081-1.082-2.61-1.45-3.994-1.107.343-1.385-.026-2.913-1.107-3.994l-.85-.85c-.235-.236-.615-.236-.85 0l-.85.85c-.143.143-.267.303-.386.463L6.74 9.578c.984.984 1.49 2.255 1.557 3.545 1.29.067 2.561.572 3.545 1.556l1.236 1.236c.161-.12.32-.242.465-.386l.85-.85c.234-.235.234-.616 0-.85" transform="translate(2 1)"/>
            <g transform="translate(2 1) translate(0 8.82)">
                <mask id="prefix__c" fill="#fff">
                    <use xlink:href="#prefix__b"/>
                </mask>
                <path fill="#000" d="M11.931 7.695c.012-.005.024-.006.035-.01l-.974-.975c-.68-.68-1.652-1.153-2.756-1.21l-.002.005c-.423-.02-.848.016-1.26.122.104-.413.14-.838.12-1.261l.006-.001c-.052-1.009-.46-2.008-1.21-2.757L4.916.634l-.01.035c-.552-.31-1.056.43-1.565.94-1.64 1.64-1.64 4.31 0 5.951l.426.425-3.59 3.589c-.234.235-.234.615 0 .85.235.235.615.235.85 0l3.59-3.589.425.425c1.64 1.64 4.31 1.64 5.95 0l.85-.85c.196-.195.22-.486.09-.715" mask="url(#prefix__c)"/>
            </g>
            <g transform="translate(2 1) translate(7.2 .72)">
                <mask id="prefix__e" fill="#fff">
                    <use xlink:href="#prefix__d"/>
                </mask>
                <path fill="#000" d="M13.143.357c-.235-.235-.615-.235-.85 0L9.957 2.694c-.832-.11-3.126-.275-4.464 1.064-.522.522-.801 1.194-.957 1.868-.193-.365-.437-.712-.744-1.019l-.424-.425 2.125-2.125c.235-.235.235-.615 0-.85s-.616-.235-.85 0l-3.401 3.4c-.144.144-.267.304-.386.465L2.09 6.308c.945.945 1.502 2.203 1.574 3.526 1.323.073 2.583.63 3.528 1.575l1.236 1.236c.16-.12.32-.242.464-.386l3.4-3.401c.235-.235.235-.615 0-.85s-.615-.235-.85 0l-2.126 2.125-.425-.425c-.306-.306-.653-.55-1.018-.742.674-.157 1.346-.436 1.87-.958 1.337-1.338 1.173-3.632 1.062-4.464l2.337-2.337c.235-.235.235-.616 0-.85" mask="url(#prefix__e)"/>
            </g>
        </g>
    </g>
</svg>
