<svg xmlns="http://www.w3.org/2000/svg" width="26" height="25" viewBox="0 0 26 25">
    <defs>
        <filter id="prefix__a">
            <feColorMatrix in="SourceGraphic" values="0 0 0 0 0.000000 0 0 0 0 0.407843 0 0 0 0 1.000000 0 0 0 1.000000 0"/>
        </filter>
    </defs>
    <g fill="none" fill-rule="evenodd" filter="url(#prefix__a)" transform="translate(1)">
        <g fill="#000" fill-rule="nonzero">
            <path d="M17.892 0h-.678c-1.101 0-2.187.422-3.014 1.161.419.722.654 1.537.682 2.389.852.028 1.668.263 2.389.682.722-.797 1.161-1.855 1.161-3.014V.54c0-.298-.242-.54-.54-.54z" transform="translate(3 3)"/>
            <path d="M17.56 5.808c-.76-.762-1.773-1.18-2.85-1.18-.356 0-.705.045-1.04.135.089-.336.135-.685.135-1.042 0-1.077-.42-2.089-1.18-2.85L11.91.158c-.21-.21-.552-.21-.763 0l-.713.713c-.584.584-.967 1.316-1.113 2.111l.596.596c.924.924 1.451 2.141 1.494 3.442 1.3.043 2.517.57 3.442 1.494l.596.596c.795-.146 1.527-.529 2.111-1.113l.713-.713c.21-.21.21-.553 0-.763l-.713-.713z" transform="translate(3 3)"/>
            <path d="M14.09 9.278c-.761-.761-1.773-1.18-2.85-1.18-.356 0-.705.046-1.04.135.088-.336.134-.685.134-1.041 0-1.077-.419-2.09-1.18-2.85l-.713-.713c-.21-.211-.553-.211-.764 0l-.712.712c-.585.584-.967 1.316-1.113 2.111l.595.597c.925.924 1.452 2.14 1.494 3.442 1.301.042 2.518.569 3.443 1.494l.596.595c.795-.146 1.526-.528 2.11-1.112l.713-.713c.211-.211.211-.553 0-.764l-.713-.713zM.158 17.51c-.21.211-.21.553 0 .764.211.21.553.21.764 0l2.903-2.903-.764-.764L.158 17.51z" transform="translate(3 3)"/>
            <path d="M10.62 12.748c-.761-.76-1.774-1.18-2.85-1.18-.357 0-.706.046-1.041.135.089-.335.135-.685.135-1.041 0-1.077-.42-2.09-1.18-2.85l-.713-.713c-.178-.178-.404-.158-.382-.158-.143 0-.28.057-.382.158l-.713.713c-1.558 1.557-1.59 4.11 0 5.7l1.426 1.426c1.59 1.59 4.141 1.558 5.7 0l.713-.713c.211-.21.21-.553 0-.764l-.713-.713z" transform="translate(3 3)"/>
        </g>
    </g>
</svg>
