<svg xmlns="http://www.w3.org/2000/svg" xmlns:xlink="http://www.w3.org/1999/xlink" width="26" height="25" viewBox="0 0 26 25">
    <defs>
        <filter id="prefix__a">
            <feColorMatrix in="SourceGraphic" values="0 0 0 0 0.000000 0 0 0 0 0.407843 0 0 0 0 1.000000 0 0 0 1.000000 0"/>
        </filter>
        <path id="prefix__b" d="M0 0.264L7.438 0.264 7.438 5.867 0 5.867z"/>
    </defs>
    <g fill="none" fill-rule="evenodd" filter="url(#prefix__a)" transform="translate(1)">
        <g>
            <path fill="#000" d="M19.533 15.751h-2.58c-.064 0-.116-.052-.116-.115v-2.374c0-.039.02-.075.053-.095l3.954-2.472c.072-.045.072-.15 0-.195L16.89 8.03c-.034-.022-.054-.059-.054-.098v-2.84c0-.064.052-.116.116-.116h2.58c.063 0 .115-.052.115-.116V1.343c0-.063-.052-.115-.115-.115H13.205c-.064 0-.116.052-.116.115v1.175c0 .064-.051.115-.115.115H8.988c-.064 0-.115.052-.115.116v.706c0 .064.051.115.115.115h4.004c.054 0 .097.044.097.097V4.86c0 .064.052.116.116.116h2.58c.063 0 .115.052.115.115v2.84c0 .04-.02.077-.054.099l-3.953 2.47c-.072.045-.072.15 0 .195l3.953 2.471c.033.02.054.058.054.098v2.487h-2.695c-.84 0-1.521.681-1.521 1.521v1.643c0 .84.68 1.521 1.52 1.521h6.329c.84 0 1.52-.68 1.52-1.52v-1.644c0-.84-.68-1.52-1.52-1.52M8.925 16.079c-.105-.105-.275-.105-.38 0l-.267.267c-.113.114-.113.297 0 .41l.87.87h-4.11c-.141-.398-.454-.71-.85-.852v-9.66c0-.146-.119-.264-.265-.264h-.41c-.145 0-.262.117-.262.262v9.662c-.585.21-.996.79-.93 1.46.064.66.598 1.194 1.258 1.258.67.066 1.25-.345 1.46-.93h4.108l-.883.883c-.105.106-.105.277 0 .383l.273.273c.11.11.287.11.396 0l1.76-1.76c.137-.137.137-.358 0-.494L8.926 16.08z" transform="translate(2 2)"/>
            <g transform="translate(2 2) translate(0 .036)">
                <mask id="prefix__c" fill="#fff">
                    <use xlink:href="#prefix__b"/>
                </mask>
                <path fill="#000" d="M4.015 5.773l3.21-2.294c.284-.202.284-.625 0-.828L4.015.36c-.177-.127-.415-.127-.592 0L.213 2.65c-.284.203-.284.626 0 .828l3.21 2.294c.177.126.415.126.592 0" mask="url(#prefix__c)"/>
            </g>
        </g>
    </g>
</svg>
