<svg xmlns="http://www.w3.org/2000/svg" xmlns:xlink="http://www.w3.org/1999/xlink" width="25" height="25" viewBox="0 0 25 25">
    <defs>
        <path id="prefix__b" d="M0.773 0.068L8.416 0.068 8.416 6 0.773 6z"/>
        <path id="prefix__d" d="M0 0.026L13.219 0.026 13.219 13.079 0 13.079z"/>
        <filter id="prefix__a">
            <feColorMatrix in="SourceGraphic" values="0 0 0 0 1.000000 0 0 0 0 1.000000 0 0 0 0 1.000000 0 0 0 1.000000 0"/>
        </filter>
    </defs>
    <g fill="none" fill-rule="evenodd" filter="url(#prefix__a)">
        <g>
            <g transform="translate(6 2) translate(2 13.974)">
                <mask id="prefix__c" fill="#fff">
                    <use xlink:href="#prefix__b"/>
                </mask>
                <path fill="#000" d="M6.524 1.188c-.259 0-.515-.045-.76-.134L4.617.638l-1.149.419c-.245.089-.503.135-.763.135-.79 0-1.529-.426-1.925-1.111L.773.068l.003 4.819c0 .415.23.793.597.986.163.085.34.127.516.127.223 0 .444-.067.634-.199l2.073-1.439L6.67 5.801c.341.237.782.264 1.15.072.368-.193.597-.571.597-.986V.134c-.404.652-1.122 1.054-1.892 1.054" mask="url(#prefix__c)"/>
            </g>
            <g transform="translate(6 2) translate(0 .974)">
                <mask id="prefix__e" fill="#fff">
                    <use xlink:href="#prefix__d"/>
                </mask>
                <path fill="#000" d="M6.61 9.9C4.84 9.9 3.4 8.463 3.4 6.694c0-1.77 1.44-3.208 3.208-3.208 1.77 0 3.208 1.439 3.208 3.208C9.817 8.462 8.378 9.9 6.61 9.9m6.211-5.008l-1.247-1.044-.284-1.602c-.094-.533-.555-.918-1.095-.918H8.565L7.32.287c-.414-.347-1.016-.347-1.43 0L4.644 1.335l-1.627.002c-.54 0-1 .387-1.095.919l-.28 1.603L.397 4.904c-.414.349-.518.94-.247 1.409L.964 7.72l-.28 1.602c-.095.533.207 1.053.716 1.238l1.528.555.815 1.408c.204.352.575.555.962.555.128 0 .257-.022.383-.068l1.527-.557 1.53.555c.508.184 1.072-.022 1.343-.491l.811-1.41 1.53-.557c.507-.185.807-.707.713-1.24l-.285-1.6.813-1.41c.27-.468.165-1.061-.25-1.408" mask="url(#prefix__e)"/>
            </g>
            <path fill="#000" d="M4.677 6.866c.443-1.069 1.67-1.577 2.739-1.134 1.069.444 1.576 1.67 1.133 2.739-.443 1.069-1.67 1.577-2.738 1.133-1.07-.443-1.576-1.669-1.134-2.738" transform="translate(6 2)"/>
        </g>
    </g>
</svg>
