<svg xmlns="http://www.w3.org/2000/svg" xmlns:xlink="http://www.w3.org/1999/xlink" width="25" height="25" viewBox="0 0 25 25">
    <defs>
        <filter id="prefix__a">
            <feColorMatrix in="SourceGraphic" values="0 0 0 0 1.000000 0 0 0 0 1.000000 0 0 0 0 1.000000 0 0 0 1.000000 0"/>
        </filter>
        <path id="prefix__b" d="M0.528 0.543L7.167 0.543 7.167 5.389 0.528 5.389z"/>
    </defs>
    <g fill="none" fill-rule="evenodd" filter="url(#prefix__a)">
        <g>
            <path fill="#000" d="M0 10.49c0 .205.143.366.348.366h.556c.374-.824 1.223-1.447 2.211-1.447.988 0 1.837.623 2.212 1.447h7.225V7.9H0v2.59z" transform="matrix(-1 0 0 1 23 6)"/>
            <path fill="#000" d="M3.115 10.19c-.905 0-1.638.734-1.638 1.638 0 .905.733 1.639 1.638 1.639.905-.001 1.638-.734 1.64-1.639 0-.904-.734-1.638-1.64-1.638" transform="matrix(-1 0 0 1 23 6)"/>
            <g transform="matrix(-1 0 0 1 23 6) translate(12.8 5.467)">
                <mask id="prefix__c" fill="#fff">
                    <use xlink:href="#prefix__b"/>
                </mask>
                <path fill="#000" d="M6.954 1.228L5.394.543H.527v4.846h.944c.373-.824 1.224-1.447 2.21-1.447.989 0 1.84.623 2.213 1.447h.924c.205 0 .349-.16.349-.365V1.58c.004-.15-.08-.288-.214-.353" mask="url(#prefix__c)"/>
            </g>
            <path fill="#000" d="M16.588 3.215c-.194-.373-.583-.604-1.004-.598h-2.256v2.617h4.31l-1.05-2.019zM11.44 0H1.106C.484 0 0 .513 0 1.136v1.211h3.563V1.74c-.005-.346.427-.529.668-.324l2.27 1.79c.266.202.233.621-.006.796L4.276 5.707c-.297.223-.693-.013-.688-.339V4.72H0v2.404h12.553V1.131c.004-.62-.495-1.126-1.114-1.13M16.483 10.19c-.905 0-1.638.734-1.638 1.638 0 .905.733 1.639 1.638 1.639.905-.001 1.638-.734 1.64-1.639 0-.904-.734-1.638-1.64-1.638" transform="matrix(-1 0 0 1 23 6)"/>
        </g>
    </g>
</svg>
