<svg xmlns="http://www.w3.org/2000/svg" xmlns:xlink="http://www.w3.org/1999/xlink" width="25" height="25" viewBox="0 0 25 25">
    <defs>
        <path id="prefix__b" d="M0 0.304L6.015 0.304 6.015 10.884 0 10.884z"/>
        <path id="prefix__d" d="M0 18.713L18.713 18.713 18.713 0 0 0z"/>
        <filter id="prefix__a">
            <feColorMatrix in="SourceGraphic" values="0 0 0 0 1.000000 0 0 0 0 1.000000 0 0 0 0 1.000000 0 0 0 1.000000 0"/>
        </filter>
    </defs>
    <g fill="none" fill-rule="evenodd" filter="url(#prefix__a)">
        <g transform="translate(3 3)">
            <path fill="#000" d="M8.02 1.68v6.006h6.005C13.85 4.445 11.262 1.855 8.02 1.68M12.689 9.69H6.487l-4.378 4.378c2.596 2.348 6.602 2.147 8.95-.448.98-1.083 1.556-2.471 1.63-3.93"/>
            <g transform="translate(0 2.713)">
                <mask id="prefix__c" fill="#fff">
                    <use xlink:href="#prefix__b"/>
                </mask>
                <path fill="#000" d="M6.015.304C2.52.482-.17 3.46.008 6.954c.074 1.46.65 2.847 1.63 3.93l4.377-4.378V.304z" mask="url(#prefix__c)"/>
            </g>
            <path fill="#000" d="M16.04 3.007h2.202L15.706.471v2.202c0 .185.15.334.334.334M14.606 16.276c-.131.13-.342.13-.473 0l-1.003-1.002.473-.473.767.766 1.768-1.769.473.473-2.005 2.005zm.432-3.578c-1.292 0-2.34 1.047-2.34 2.34 0 1.291 1.048 2.338 2.34 2.338 1.292 0 2.339-1.047 2.339-2.339-.001-1.29-1.048-2.338-2.34-2.339z"/>
            <mask id="prefix__e" fill="#fff">
                <use xlink:href="#prefix__d"/>
            </mask>
            <path fill="#000" d="M15.371 5.68h2.674v-.668h-2.674v.668zm0 2.006h2.674v-.668h-2.674v.668zm0 2.005h2.674v-.668h-2.674v.668zm-.334 8.354c-1.661 0-3.006-1.347-3.006-3.008 0-1.66 1.345-3.007 3.006-3.007 1.662 0 3.008 1.346 3.008 3.007-.003 1.66-1.347 3.005-3.008 3.008zm-7.351-9.69c-.185 0-.334-.15-.334-.335V1.337c0-.185.149-.335.334-.335 3.874.005 7.014 3.144 7.017 7.018 0 .184-.149.334-.334.334H7.686zm8.354-4.679c-.552-.002-1.001-.45-1.003-1.003V0H7.018c-.185 0-.334.15-.334.334v8.688h6.349c.184 0 .334.15.334.334-.007 3.742-2.947 6.82-6.683 7.001v2.022c0 .184.149.334.334.334h11.361c.185 0 .334-.15.334-.334V3.676H16.04z" mask="url(#prefix__e)"/>
        </g>
    </g>
</svg>
