<svg xmlns="http://www.w3.org/2000/svg" xmlns:xlink="http://www.w3.org/1999/xlink" width="25" height="25" viewBox="0 0 25 25">
    <defs>
        <filter id="prefix__a">
            <feColorMatrix in="SourceGraphic" values="0 0 0 0 1.000000 0 0 0 0 1.000000 0 0 0 0 1.000000 0 0 0 1.000000 0"/>
        </filter>
        <path id="prefix__b" d="M0 0.001L19.167 0.001 19.167 12.618 0 12.618z"/>
    </defs>
    <g fill="none" fill-rule="evenodd" filter="url(#prefix__a)">
        <g transform="translate(3 6)">
            <mask id="prefix__c" fill="#fff">
                <use xlink:href="#prefix__b"/>
            </mask>
            <path fill="#000" d="M13.976 4.98c0 .176-.144.32-.319.32-.177 0-.32-.143-.32-.32V3.73c0-.177.143-.32.32-.32.175 0 .32.143.32.32v1.25zm0 3.91c0 .175-.144.319-.319.319-.177 0-.32-.143-.32-.32V7.64c0-.176.143-.32.32-.32.175 0 .32.144.32.32v1.25zm-6.86 1.341l.604.44c.181.132.22.384.09.564-.08.109-.202.165-.327.165-.082 0-.165-.024-.236-.077l-1.417-1.03-.02-.018-.033-.03-.025-.03-.023-.031-.019-.034-.016-.036c-.005-.012-.008-.025-.012-.037-.004-.012-.008-.024-.01-.037-.003-.015-.004-.03-.005-.045 0-.01-.003-.018-.003-.028V9.96c.001-.017.003-.034.006-.05l.003-.028c.003-.013.01-.026.013-.04l.012-.036c.003-.008.008-.016.013-.024.008-.015.015-.03.025-.044l.002-.004 1.01-1.442c.128-.183.38-.227.562-.1.183.129.227.38.1.562l-.488.694c1.484-.389 2.586-1.763 2.586-3.4 0-1.938-1.544-3.514-3.44-3.514-1.737 0-3.204 1.325-3.413 3.082-.027.22-.229.38-.449.353-.22-.027-.377-.228-.352-.449.258-2.161 2.07-3.792 4.214-3.792 2.341 0 4.246 1.938 4.246 4.32 0 2.013-1.363 3.705-3.198 4.183zm-2.918-.748c-.078.114-.205.175-.334.175-.077 0-.157-.022-.227-.07-.105-.071-.209-.153-.307-.241-.166-.15-.179-.404-.03-.57.15-.164.404-.178.57-.03.071.065.145.123.221.175.184.125.232.377.107.56zM2.981 7.784c-.037.184-.2.323-.395.323h-.002c-.037 0-.073-.006-.107-.016l-.025-.008c-.034-.013-.065-.027-.093-.046l-.01-.008c-.025-.018-.048-.04-.069-.066l-.016-.019c-.02-.026-.038-.056-.052-.09 0 0 0-.002-.002-.003-.056-.122-.1-.229-.135-.332-.072-.21.042-.44.252-.51.211-.073.44.04.511.252.028.079.063.165.113.27l.003.008c.007.019.014.038.02.059l.006.02c.006.027.01.055.01.085 0 .027-.003.055-.009.082zm15.52-3.624c.411-.22.666-.65.666-1.123v-1.76c0-.704-.572-1.276-1.278-1.276h-3.594c-.175 0-.319.142-.319.319v.984c0 .17-.128.32-.298.33-.186.013-.34-.135-.34-.319V.32c0-.177-.144-.32-.32-.32H1.278C.572 0 0 .573 0 1.278V11.34c0 .706.573 1.277 1.28 1.277h11.74c.175 0 .318-.143.318-.319v-.984c0-.17.128-.32.298-.33.187-.012.341.136.341.319v.995c0 .177.144.32.32.32h3.593c.706 0 1.278-.572 1.278-1.278V9.58c0-.473-.255-.902-.667-1.121-1.717-.918-1.717-3.385 0-4.3z" mask="url(#prefix__c)"/>
        </g>
    </g>
</svg>
