<svg xmlns="http://www.w3.org/2000/svg" width="26" height="25" viewBox="0 0 26 25">
    <defs>
        <filter id="prefix__a">
            <feColorMatrix in="SourceGraphic" values="0 0 0 0 0.000000 0 0 0 0 0.407843 0 0 0 0 1.000000 0 0 0 1.000000 0"/>
        </filter>
    </defs>
    <g fill="none" fill-rule="evenodd" filter="url(#prefix__a)" transform="translate(1)">
        <g fill="#000" fill-rule="nonzero">
            <path d="M18.005 6.595c-.08-.316-.339-.555-.66-.61-.583-.112-1.088-.472-1.385-.986-.296-.514-.355-1.132-.16-1.692.106-.306.028-.645-.2-.874-.23-.229-.569-.306-.874-.2-.56.194-1.179.136-1.692-.16-.515-.298-.874-.803-.986-1.386-.06-.318-.298-.573-.61-.657-.313-.084-.646.018-.858.263C10.193.742 9.63 1 9.037 1 8.443 1 7.88.742 7.491.293 7.28.048 6.946-.054 6.634.03c-.313.084-.55.34-.61.657-.18.975-1.044 1.674-2.035 1.647h-.063c-.197-.005-.393-.039-.58-.1-.306-.107-.645-.03-.874.2-.229.228-.306.568-.2.873.195.56.136 1.179-.16 1.692-.298.515-.803.874-1.386.986-.318.06-.573.298-.657.61-.084.313.019.646.264.858.448.388.707.952.707 1.546 0 .593-.259 1.157-.707 1.546-.245.211-.347.544-.263.857.084.312.339.55.657.61.582.112 1.088.472 1.385.986.296.514.355 1.131.16 1.692-.106.306-.028.645.2.874.23.229.569.306.874.2.073-.02.147-.038.221-.05.035-.012.071-.02.108-.026 1.095-.195 2.143.527 2.35 1.62.06.318.297.573.61.657.312.084.645-.018.857-.263.388-.45.952-.707 1.546-.707.593 0 1.157.258 1.546.707.211.244.545.346.857.262.312-.084.55-.339.61-.657.112-.582.472-1.088.986-1.385.514-.296 1.132-.355 1.692-.16.306.106.645.028.874-.2.228-.23.306-.569.2-.874-.194-.56-.136-1.178.161-1.692.297-.514.802-.874 1.385-.986.318-.06.573-.298.657-.61.084-.313-.019-.646-.264-.858-.449-.388-.706-.952-.706-1.546 0-.593.257-1.157.706-1.545.248-.21.35-.544.263-.856zm-8.968 9.002c-3.644 0-6.598-2.955-6.598-6.599S5.393 2.4 9.037 2.4c3.644 0 6.599 2.954 6.599 6.598-.005 3.643-2.956 6.594-6.599 6.599z" transform="translate(3 4)"/>
            <path d="M9.037 3.6c-2.981 0-5.399 2.416-5.399 5.398 0 2.982 2.418 5.399 5.4 5.399 2.98 0 5.398-2.417 5.398-5.399-.004-2.98-2.419-5.395-5.399-5.399zm2.907 3.32l-3 4.732c-.096.152-.256.253-.435.274-.024.003-.048.005-.072.005-.155 0-.304-.06-.416-.168l-1.8-1.733c-.238-.23-.245-.61-.015-.848.23-.239.61-.246.848-.016l1.27 1.223 2.606-4.111c.177-.28.548-.363.828-.186.28.177.363.548.186.828z" transform="translate(3 4)"/>
        </g>
    </g>
</svg>
