<svg xmlns="http://www.w3.org/2000/svg" xmlns:xlink="http://www.w3.org/1999/xlink" width="25" height="25" viewBox="0 0 25 25">
    <defs>
        <path id="prefix__b" d="M0.539 0.441L9.096 0.441 9.096 4.389 0.539 4.389z"/>
        <path id="prefix__d" d="M0 23L18.903 23 18.903 0.441 0 0.441z"/>
        <filter id="prefix__a">
            <feColorMatrix in="SourceGraphic" values="0 0 0 0 1.000000 0 0 0 0 1.000000 0 0 0 0 1.000000 0 0 0 1.000000 0"/>
        </filter>
    </defs>
    <g fill="none" fill-rule="evenodd" filter="url(#prefix__a)">
        <g>
            <path fill="#000" d="M13.53 12.407L15.313 12.407 15.313 10.652 13.53 10.652zM13.555 9.911L15.338 9.911 15.338 8.157 13.555 8.157zM13.529 17.342L15.312 17.342 15.312 15.587 13.529 15.587z" transform="translate(3)"/>
            <g transform="translate(3) translate(0 .559)">
                <g transform="translate(8)">
                    <mask id="prefix__c" fill="#fff">
                        <use xlink:href="#prefix__b"/>
                    </mask>
                    <path fill="#000" d="M4.845 4.28c0-.197.16-.356.356-.356.198 0 .357.159.357.356v.109H7.34V4.28c.009-.183.155-.329.338-.339.198-.01.366.142.375.339v.109h1.042C8.89 2.161 7.028.452 4.79.441h-.004C2.55.43.692 2.159.539 4.389h4.306V4.28z" mask="url(#prefix__c)"/>
                </g>
                <mask id="prefix__e" fill="#fff">
                    <use xlink:href="#prefix__d"/>
                </mask>
                <path fill="#000" d="M13.53 14.315L15.313 14.315 15.313 12.56 13.53 12.56zM3.877 18.43L4.837 18.43 4.837 17.47 3.877 17.47z" mask="url(#prefix__e)"/>
                <path fill="#000" d="M5.55 18.813c-.001.197-.16.355-.356.357H3.492v.001c-.194-.003-.352-.16-.355-.357v-1.7c.003-.196.16-.354.355-.357h1.702c.196.002.355.161.357.356v1.7zm2.224-4.06l-5.621 1.263v5.76h5.619l.002-7.024zM13.555 6.884L15.338 6.884 15.338 5.13 13.555 5.13z" mask="url(#prefix__e)"/>
                <path fill="#000" d="M17.093 5.13h-1.07v14.507c0 .196-.16.356-.357.356-.196 0-.356-.16-.356-.356v-2.113h-1.782v2.113c-.01.182-.157.33-.34.337-.197.011-.364-.14-.373-.337V5.13h-4.36v16.673h8.638V5.13zM18.52 22.286h-.001.002H.339c-.197.01-.35.179-.34.375.01.184.157.329.34.339h18.208c.196-.003.354-.161.356-.357-.007-.203-.178-.364-.382-.357" mask="url(#prefix__e)"/>
            </g>
        </g>
    </g>
</svg>
