<svg xmlns="http://www.w3.org/2000/svg" width="26" height="25" viewBox="0 0 26 25">
    <defs>
        <filter id="prefix__a">
            <feColorMatrix in="SourceGraphic" values="0 0 0 0 0.000000 0 0 0 0 0.407843 0 0 0 0 1.000000 0 0 0 1.000000 0"/>
        </filter>
    </defs>
    <g fill="none" fill-rule="evenodd" filter="url(#prefix__a)" transform="translate(1)">
        <g fill="#000" fill-rule="nonzero">
            <path d="M8.978 11.93h4.872c.15 1.294 1.32 2.22 2.612 2.07 1.088-.127 1.944-.983 2.07-2.07h2.486c.218 0 .395-.175.395-.393V8.63H9.968c-.218 0-.393-.175-.393-.392 0-.219.175-.393.393-.393H21.42V.407c0-.215-.177-.392-.393-.392H8.977c-.216 0-.393.177-.393.392v1.4h2.051c.218 0 .393.175.393.393 0 .216-.175.392-.393.392h-2.05v8.945c0 .218.176.392.393.392zm7.221-1.965c.868 0 1.572.705 1.572 1.572 0 .869-.704 1.572-1.572 1.572-.869 0-1.571-.703-1.571-1.572 0-.874.704-1.585 1.579-1.591l-.008.02zM1.45 6.878L5.292 6.878 5.292 4.757 1.761 4.757.268 6.878z" transform="matrix(-1 0 0 1 24 6)"/>
            <path d="M.385 11.93h1.18c.15 1.294 1.319 2.22 2.613 2.07 1.086-.127 1.944-.983 2.07-2.07h1.178c.217 0 .392-.175.392-.393V3.004c0-.216-.175-.393-.392-.393h-3.74c-.129 0-.25.064-.323.17L2.53 3.959h3.143c.218 0 .394.176.394.393v2.906c0 .218-.176.394-.394.394H0V11.526c-.006.216.165.397.382.403h.003zm3.513-1.965c.868 0 1.571.705 1.571 1.572 0 .869-.703 1.572-1.571 1.572s-1.572-.703-1.572-1.572c0-.87.698-1.578 1.57-1.591l.002.02z" transform="matrix(-1 0 0 1 24 6)"/>
        </g>
    </g>
</svg>
